<mxfile host="app.diagrams.net" modified="2024-06-03T00:19:05.794Z" agent="Mozilla/5.0 (Windows NT 10.0; Win64; x64) AppleWebKit/537.36 (KHTML, like Gecko) Chrome/125.0.0.0 Safari/537.36" etag="19z6tel3HQtFYMVP-HTp" version="24.4.13" type="device" pages="2">
  <diagram name="MotorCntrls" id="-oRNhfjtR0ssbPP_FFXi">
    <mxGraphModel dx="2868" dy="1592" grid="1" gridSize="10" guides="1" tooltips="1" connect="1" arrows="1" fold="1" page="1" pageScale="1" pageWidth="850" pageHeight="1100" math="0" shadow="0">
      <root>
        <mxCell id="0" />
        <mxCell id="1" parent="0" />
        <mxCell id="Sr7Jv7LxJJs2jSXWzshQ-13" value="" style="rounded=1;whiteSpace=wrap;html=1;" vertex="1" parent="1">
          <mxGeometry x="10" y="10" width="190" height="1077" as="geometry" />
        </mxCell>
        <mxCell id="Sr7Jv7LxJJs2jSXWzshQ-1" value="" style="shape=image;verticalLabelPosition=bottom;labelBackgroundColor=default;verticalAlign=top;aspect=fixed;imageAspect=0;image=data:image/png,iVBORw0KGgoAAAANSUhEUgAAALwAAAMzCAYAAAAcR3g7AAAAAXNSR0IArs4c6QAAAARnQU1BAACxjwv8YQUAAAAJcEhZcwAADsMAAA7DAcdvqGQAAJBOSURBVHhe7Z0PXBTV+v8f+3Mz3Uwsu1FhXgmltLx+CW8adbXC7JpQer1mdQlTg24aegvNW1gpWrp9K+0P1jcyqW5UUin5k0rKsMQSExNSVCBQwT8BIhAouM9vntkZHGZnd2d2zsLCnvfr9ehwdnb3PGefPXvmzDnPpxsKAIdjgm7duklHvg/VlAc8x284S/qfw/ELeMBz/Aoe8By/QnMMb/Q6VnnRwq+BOb6C1sW06R5e/aKd6Yqd43/wIQ3Hr+ABz/EreMBz/ArTAc8vUjmdCSY9vBz09D//AnB8GT6k4fgVPOA5fgWTgJfn3ul/Pg/P8WVMBzwPcE5ngg9pOH4FD3iOX8EDnuNXmA54Pu/O6Uww6eH5jSdOZ4EPaTh+BQ94jl/BJOD5jSdOZ8F0wPMA53Qm+JCG41fwgOf4FTzgOX6F6YBXz7vzeXiOL8Okh1feeOJwfBk+pOH4FTzgOX4Fk4DnN544nQXTAc8DnNOZ4EMajl/BA57jV/CA5/gVpgOe33jidCaY9PD8xhOns0BTLA5R6kng0mwND3iOXhobG+G9996DkydPSiUAvXr1gkmTJsH5558vlXhGRkYGVFZWwqxZs6SStlCUtjFPMPNcjn/x+++/4/jx49vEHFnfvn1xypQp4uOesmjRIuzZs6fDa8tmuofXmoc38nwOx1toxSafpeH4FczG8ByOr8F7eI7fwwOe41fwgOf4FXwML+DPKz678mfNx/Acv4cHPMev4AHP8St4wHP8Ch7wHL+Cz9IIOJul6WrtoOWneR9PQuXmD+H9H47COddOhFm3/wnOlh5xD0JL5feQ9v5WqD7nWpg463b4k/4nu0XLXy8HvIHGwN+hctdWyNmyA/aXFsMBuByuGTQYht0wEsKvvgS6a8ckE3jAe4oQsOWfwqzbHoCV++oh2JoHex4Pg3OkR93SUgqfzJoEE1duB+HJkLfncQjT/WT3OP1c1cYGGzaXZWB8iEV8TaExsFl6RI2tbjd+umACBqvqYbdQHDfvIyysa5HOZo/je9rNFUVFRW3MzJJWTzFaB6M+uuXUXkyfOqz1tVx9xo40YHH6wxgi1yXYinn6n6wLuV4qcyxkgt7GsB3CrDkj7OcFR+Pc1A2YV1SG5UU78Ns1S3Cy+IWxYEh8BpY126QnsUWuo9rUUEBlZGRgeHg4Tp8+HRMTE0WjYzr/lVde8Xrgm6mD0jfZPKcO96TGYIDitfQHvA0b96zCyQGKunTugNfbGDZsyHsBR9A5lmi0bqsSSpS0YF3+axhlodcYhcm5NVI5W5S+K03JgQMHMDo6WgwuOlZTVVWFixcvFgNR63EWmK2DOx/1IwRswRvi52KJnIozxgaJr6U74Bt3YkpUf+EzH4NxM8bY69J5A95IYxzD7Llh4uMB8Zl4RKsDt5Vi+mShcYReftjyfOErwB6l70qToR6TAo16T3d89913Xgl6FnVw5aMRbLVb0RopfK5iJ7UD18QEi6+lK+BtVbjNGo0WCMJI62bcsybOXpd2Cnjm05J44kd4dU4yrINoeHrJo3D7JX+QHtEA/wB/Gv8spKeugOfuDYO+WtcY3XrBZQMDhYN6OHGqRax1e5OamgrDhw+HmTNnSiXOufHGG+GJJ56AFStWSCVs8IU6iGA1bH/zOXj2q7MhyroQZl5/kTjzoY/TcGJ7Gvzn2bUAUU/BSzP/Ar30P5kZDt8Cj2n99vbHqJSd2IjlmGHk26/FqV2YEhkovEYgjkndjaelYpao/ZeNoGECHdP/RqDemFUvz6oOSt9kM0YLVucswnDheZaoN7CgkX6S9X/GtupNuCA8QPhlmIwpBXVCSTNWZHTaHv401Hz3Ovwrkb6982FJ7LXQXXrEY1qOQN7by+HFryoBQu6BWXcEt/udst27d4MwLoY+ffpIJfqYMGEC/Pjjj9Jf5vCFOhB49CtY9NBS2BYwFV5/8X4YbGSuGCvgy0XzYeG2i2HK6wth2mCL9ED7wix+TDWGkvpS2PrF55Dx7ssw565REB7/FuwLmQorVj8OYwPPlU5qP44cOQKhoaHSX/q57rrrYOvWrdJf5vCFOkBLOax/biG8tCcEpqbMh3uCe0gP6OEkVKx/GWa/tAtCpi6C5HtCoP0/STtsAt5UY7TldPkXkDh2PPw9Zg68vH6PUDIMYmZOgduv7qv/hoYP0KOH523ACnZ1aILydS/Cv18WAjb+KXhm4lUGApZuTq2HRf9OgT0h0+D5Z6JhwLkdMHCXYBDwZhpDgx6D4V9rMiErax2kv7UQYsIPQ1rCGBg0/BF4u7BWHIi1N/X19dKRfn799Vfo16+f9Jd5Oq4OCM3FGfDE9OXCL60QsPP/Bv3OMRCwzfvgA+ECeuW+QRD/fAJE9TM90DWNw8BePzY8tf89nEI3EEISMKOsUSqXMXvRasPm6u2YGivdwApfhDnV7Ccmlb4rjdixY4d48WcUmg//4osvpL/MwaoOznx0SWMBpk4OEc4dgXOyDqnukxCuPmP5fowFQ+ds0Jh2bv+LVsEcC3VjqjH0InypilIxWrz5NATjMw9qvI851P7LJkPBRkGnF5oZoXlwlnddWdTBlY/OaM6zOlny4cpGoTWvjp6M1mCtx12b57HSFq3XFsyxUC+mGsMIp3dj6hiammTXGEoc62g3GQo0vQFM59Btfrr97wwKRro5ROfIRj0xrYdxBos6uPLRGV0t4GkwRgdtsJ/rnpbtL0Do9YlQLP2tj1FgzcuEx8MswgvUQGlhCRypqoFzr74ZwgKd3aQ6AJ88MBomphULv3wGV+TpQM9qyVdffRU2btwo/n/FFVdIpW2prq6GefPmwdChQx1uEFHy0A0bNkBaWpr4N91EUs68VFRUiK9P/9Nz77zzTodpSLN18GS1JB4vhR3F1Y5B0soR+ObpeEhcfwCCEtLg439eI3w250Cf4MHwpwvroXRHMVQ7fXIL/PbNMhib+AkIT4a0j/8J1wgfbLc+wTDsT70N3NDShvlqSVtNCW7Py8M8p7YerePsSwuExsCtYlk+ltRI39/abJwbSO8ZjFPSS5wPVepzMCmIzvPOzSe1/7KpoV6Yyun2PvW4dCOIelPqmamMeuDVq1dLZ59BvtVPa2Bc9eIE9f7ya2n9SnhaB0Lpm2zmMTNs7WxjeLe4aQzbQcyMHyI+bolOxaJTWiHfiGUZCfZlpJZ7MbWoQSpnh9J3pWlBAUYBRcErn0fHVKZ1J1QOQneBroYCn4YldOGpHsYYrYOMfK7SzMMDXoG7xrBhQ/4KjBQvSINw9IINWNao6L9t9ViWtRBHi48HYPiCTVjN+opVQO2/bGahYKeg1TPu1kIei5OxwBs+draAb+879Sq6QY+hU+HV1+MgRBinf7PwDhgccS/MXWyFF6wL4NG7/gqDxy6Ab+otEBL7EqxKjIAAswO7duLLL78Ux9u0gMvTBP/0PHkBmDz255jH4VvADr3f/iY8mvc+zhsX6lAXS/iDaM3YgUe9tPmDUL+nbJ5CwwpPhjHOYPV6LH3sDGj5S/0lHbTBfm4HgE1w/FA5lB2pE67fz4Lz+1wO/YL6gsXInT0P0DNLYwSaRSH0LOXVyyeffCKui1m2bJlUYhxPZmk6M1r++lbAdxAsA56mH2kNi9ArG17d6Ap63b/+9a9i4DubknQHD3iel4Y5wrADhItMpsFO0Hg+JiaG6XJff4QHPGNKSkrgjjvukP5iy7Bhw9gt9/VTeMAzhgJywIAB0l9s6du3r3TE8RQe8F7AW2vhg4KCwGq1Sn9xPIEHfCeCLoTDw8OlvziewAOeMb179xY3XniD33//HUaNGiX9xfEEHvCMoRWQe/fulf5iC+tdVP4ID3jG0LJfWlLgDT7++GNxpobjOTzgGSPfFPr+++/F/1lB69x37twJ//M//yOVcDyBB7wXSExMZD6b8vzzz4vZxDxdiMaxw5cWCLBcWiAzY8YMuOmmm8S7o2ahX4s5c+bAt99+ayrgvbO0wKgGwI+Qm7cLSioPwv4DAEFXXQGBA4ZBxC1/gYG92Warcfq5qo0dTViRsxqF3g5fyioxlgjVVoHZS+IxJjkbj0lF3kKrDcjMIG+ipt1OZqDXobqwWHmp9o/MHEY0AHZh+uxItKjev9WCJ2Ly53uxjuGiWM330SiQTjeL/sZwpAkPZSZiKNUnJgMrpFJvofZfNldQACpNa5OHHPSepuuQtwY6+9LoqYMSoz66Ra8GgPI8SyQmpKzFnPwiLCspxLxvP0Zr7Ejpi+As+4VnyPVSmWMhEzxWhxB+FTYuknY5CeZDAU8BRftMKQhpFxJtqyOjYzqfdjipg46CnlJs0Hmutt8pofNoax+9jzo1hyd1kFH6Jpvn6NUAaMGq7KfsnZdlEq7Ir3EM6OZyzJo3yv46Q5ZgbgObkJfrpTLHQvN4qA7R/Bvmf5CIo+RgJ/ORgFcGLh2rUQap+nE5SOk16RzqsdXBT+dQcFPA0nnuvjxG60AofZPNM4xoABzGrISh4uOBc7OxVipVYytLxyni5x6BybnHpVJzKP1UmGOhOTxRhziFNUVf4etxEdJPWyiOGmVvJF8IeAo8CjQKQnfIwxCtgKPXoeENBazW+1E5Pa71S8CiDlrv6QmGBBFac9MEY0xGuVSogd7zDKD2VTLHQjN4og7Rkr8ch8nvH3IfWrP3YbGsDOEDAU9BRj2nXqg3p+BlCYs6uPJRNx5pAAjXc3W/4bE6510eVmVhgqj5FIZzs9lMU6h9lcyx0GM8FEQQs1tZRmKsdR0WVJ+ikjO72Ts44Km3pWOtXtcV1Btr9fKewKoOSt9kM4Y5QQTnnMJDGQ/bh8CWBzG97KRUbg61r2QMbzx5Lohw1pV3w2d7v4K3Hx8PgwM6KnO4NlwQ4QzMNABU4NFseOHJd6EGLBD6yL0QGeRCJskkzALeTGOcdXEwDAnsYTq1mjfggggSDDUAlGD9z7Bq3n+E160HCJkGi/91I/TxYiCwCXgvNUZnhgsiuEcM9lmxMO2dHSBc84H1vwvgbi/nj2cQ8N5pDF+CCyKYEETQBKGlchP87/QYe7AHT4TFa1+F2df38fqvvMmA90Zj+Ba0P5VSYxglLy8PBg4cKP1ljg6tQ9Mv8O6Tz8IHNSNgzitzGfTAp6H+l48g8d4YSPxwpzCMmQGpa1Nh/i1XtJukkcOVrG68JojgO7M0BM12qO94uoJmRmgeXH3jyAws6uDKR2ew1QBoworspRgVbF9uYhn9NGYW12rEDRsc6yWaY6FevCeI4FsBT4GmN4DpHLrNT/PgLGFRB1c+OoPdZ6xcMmLBkNhUzBenoL2HVt0YTkt2Xf785z+Ly3ynTJkCBw8elEodoU0ajz76qChGQFOCLOmoOpwtjK8/EoZGNDzStvVgHRcknkuCCFvFspdhYrBy6HMSKrOtcN9dSfBNfRCMXvAxbEyJhaEdNAXt8C3Qi2lBBKf4Vg8vY0aMgBWdTxBBIXwnpkT/Eiu8mBhXidpXyRwL2dE1xvBKKMA8ESNgiad1kM9VmnncfMa2MsyYKmWFDpmOKRu3qjpFtW3Hwgo2ohdKPxXmWMiOrhfwnRnv+Oj6M24pTMEI1Xu6Nu8uHuNjeI4XaYGje/LhO+kvX4AHPMckQTBh9X76qYD9DuqK50DghJXiY/ptP6yeYL8I9gZ0l4i6+jbQG/sT3tjE7Yt4ZxO376LlL+/hOX4FD3iOX8EDnuNX8IDn+BU84Dl+BQ94jl/BA57jV/CA5/gVPOA5fgUPeI5fwQOe41fwtTQCfC2NGQwIIoANmioLYEtOLvxUuBt+OdELrh4QDFcPj4CI6wdAb8YJALT8ZRrw2FQJu7Zshi0/7YXS/RUAQaEw6OphcMPN4XD1xd1dp2DAJvht9w+QnZMH+0uL4QBcDtcMGgzDIm6GEQP7eHVHOw94T0FoKf8UZt32AKzcVw/B1jzY47BiUka5zU8qaiUQwuOtsMp6Dwy2OP+6GMXp56o247RgXdGnuCBK2tmituBonPfhLqfqDra6vfh58kQnm4VDMWrBp1hUZ0g/xBCO72k3VyiFCMj0bK5mjdE6GPXRLbo1AFqwessyaQO38HkmrcaNeXuwpGgHfrtmCU4WRTMsGBKfgWUMt/8p/VSYY6FRbEc24JxQe6WDx83D1KxtWFRehkX5m3DN4nsxRHzdMIzPKHFskOYyzJw9QnpvqTG2FmBxcQFuzXoTE0bRnlja5f4eFonJO9mj9l82NRRQlAmA9o0aFSNghZk6KH2TzXMMaAA0/IjWEQHCOUEYad2KtW0+RqGzLHgHY8WgH4nzso8wS9uh9FNhjoXGOI551rHi8yyRL+G2WlVPbKvB/BWT7HnfHdQdFOoQMAxjU3eqfgVs2Fz1nT39NvTH6NRC9EZiB7X/simhPC+UG4aCSysrMO0ldSVGwAKzdXDno36MaACcxtrs+RhI7xeYiFlVWr/U9ViYMkF8DcuUdCxjFPFKPxXmWGiI2mycG0jPG4LxmQc1v5228nScLL72WFyeXy+VCthKMH2KfT9kwNQMPKTpqA0bcpfgEHo+QzkUJWr/ZZOhHpMCjXpPd7gSRDADizq48tEIxjQAqjAnyf4L7koBpHXvqyUeMyq0B0ZGUfopm+lpSTyrP4x/Mx1SX34M7r3+j5oXpt36XAYDxV1bTXCqhd5Xoq4UftpULBwMhZjJN8JlmtcY3aDHtRFwNz2/4Bv4bnedvbgdSU1NFRW2Z86cKZU458YbbxT1VFesWCGVsMEX6iCC1bD9zefg2a/OhijrQph5/UWuJyNsR2HfD78KB0EwfEg/uMBe6sDZVwyEkcLPANTvhPz9J+yFXsLhW8AWG54qXImR4mtPwtSiRqlcoCIDY8RyN9nIWuVQ+uPk9FLNXxEzaLUBGUHDBDp2lf5CC+qNWfXyrOqg9E02Y3ggiNCUi8n96b3cKHu05OPyYTSO79RZCxBajv0Ib1vfgK/AAiEP/xPuCDGTjPNXyDtQBaelv9oDLohwBo80AKorYC918ELf3vdCF5/92X3gimv/KBxUQ8nRWq99xl4IeBvUl/4AX3yeAe+ueAzuGnEbxL+zD0JilsLqpDEQqGyjXn3hSnGocwB+2n9M/ApqgRX74acj0h/tDBdEkGg3DYAaqKw/6TQWzOKFgG+C8i+eg7Hj/w4xCS/B+mJSdpgEM2Nug6v7qqRMel4No6aECQfF8MHyj+GHExrfazwOP6/NgEzpZsWR/ZVCk/g+XBDBN/FCwJ8FPQbHwJrMDZCVmQ5vLYqF8MpVkHBbGAyfkQaF9cqgvghGxjwEURbhMHcRxMxaCZsPNLR+u7HpEPzwXjLM/s9W+GNwgFgWcMmF0N6hxAURuo4GgBcCvjv0v2kCTLxzLNx+52SY9tSb8MV3qRAbArDvnTkw1fod1LT+XnWD7oPvBevrcRAC9bAvbSbc3C8Ewu+8Dx544O9wy5BQuCHmI+j27xdhaey14jP+0KsHnCcetQ9cEMGkIMJ5PSHA3le5xtYAxw//Lhz0h+uDLnKxHsc84tWr0tjTgEWp99pvPgUkYOYR1bW8rR7LN6/CuePaLk2whD+I1nW7sLr5OOYmRwhlFhy2PB9ZLzJQvqfSZGi2w6wYgVlY1MGVj84wnR++dYYtFOMyD9nLtNB7ngG066ZR6A1OF6XiGPH1XUxB2hqxurRQzCKbX3QQaxpPS+WlmD65v/BcdlNWSrTagEyGhRiBWVjUwZWPzjAviHAIM+OoIwvAiJRdzjur1inqaEwp9F72YJNDGoSW47/Czu258PX/2w6VNqlYg7Mu6A2XSsdO6dYdAvpfA2FhYTB04OXQu7tUvboS+CmH5raGwIjQi+xl7QgXRFCLICjNnSBCHxg4nIajNZCfUwiHKOwcsMGJ3XnwFR0G/RkGX3m+WOotHL4F+lGsk3CpoGzD+pynUWgW4fWVN5+OY2HGa2i1WnFFdrmTG0otWJWVaH+PDlpaIMMFEbRwnxL9dHEa3kUrJS2TMaVA49e9eT+mx9KvgAWHJG8RBsBsUPsqmWOhEWxHMjFeVHdwsbiruQQz4sPE17ZEp2LRKTloG7AwJdpe7mzRUONOTImi4UwAjly+A9mIkrdF6bvStKAA80SMgCWe1kE+V2nm0aEBYDuC2fNGiudYRi/ErLL6M51b82HctnK6fUVtwFRM288q3L0U8Ii1mL/8LvsFqeUOXJBVispVvLbGUsxacIf9cRiNC3KOKnpyG54SxvbR4jpp9WpJGzbX7MZ1SdJzwxdhTrV31sRrtQFZV8M7PuoIeAHb0W/w6dH2VZVgCcdJiYvQuuwpjBtNKpBUFyfLx00g+6gyx0LDNBZiWqy8ESAQwyb9G5OFYcqypEcwKixQKtda/kvUYVFanLRmXvncGThakjeEkBmYWnDcyZDHPLLfautqeMdHfQEvdmBHt+F786JVF8EWDB49G1duOcQ02Ikz79HGHAs9QvhpyntvPo6Tg7TVAjE81ooZ+UecO2Q7jkWZVowNl78csoXiuLmrcHO54ifQC7R9zzPW1fANH09jY81BLMonPaefsLC0qs2IgCVa/tItMzpog/1cz8CmGjhUfgCO1DULf50Pffr1g6C+Fn17UlvqobKkBCrouedcAH+8sh9c3tvNXlgG8D2tXRMtf5kHfGeEB3zXRMtfLywt4HB8Fx7wHL+CBzzHr+ABz/EreMBz/Aoe8By/ggc8x6/gAc/xK3jAc/wKHvAcv4IvLRDgSwv0Y0oDAJrheMlP8N2mH2H3r8WwWxRE6A/BwyLglhEhfiCIYKuE7Zm5UGYgzdTZV46A8WGBTH+aeMDr4TTU780Ea+J8WLhuj1SmIDga5i1JhqcmDQGLVnO2VEBuylPwwKOrYJ9UdAYLBEclwZsrE+CWQHY5KZx+rmozjoeCCK071fWb6zXXnqH1PmSukEUIaJudHjECb2C0DkZ9VGJKAwAbcH/aVCmX/FCcvPgj/Da/CMtKlBoAtBtqGW5huMlH7SsZfQXooA32c/WDR7Pgsb9OgpeEL37wuEfgP7P+DhHXXAJQXQq71r8J85/8r/CtDoP4jI/hlQl/OrNU+PQv8O7DS2HjSelvJ9iqCuGz9duhHoJgbOqX8PmDoUzzlujt4RsbG2HDhg3w/PPPi5ukA6SEKzU1NfDWW2/BK6+8AtOmTYPzz/feJmQzdfC8h6+F7S/cA9cnZoEl8iX4Zs0suL6X4hPA47Dz1Ycg4tGPoX7IEsj94Qm4oYfivU58DfNCb4Vllf0hasUaeH9mmOJXAIXOfz0k3joFXt5zMdyV9iVk/DOEyS+4l3p4M4IIOmjdTWXB0NmZeIihJIqM2n/ZlFCeF8oN46kYAQvM1sGdj04xowEg0JrqQysnkUitEEOR9jpNTsdyRh+x2lfJHAsNYbIxXGKrwm3WaPHLwvrnTolWG5DJ0FCBAo2yArijKwoi2OqKcXNmOqa+vApzKp0MKOtzMCmIXlOdd4iyTjxmH870X4y5TVoR0owVGXH2OgVbMY/RmFXtq2SOhUYw1xiuaMHabS9hpLjBewwuzq3qsD2tFGTUc+qFEiBRL8wSFnVw5aM5XGgACLSqe8AETCnU6PBslZg1274nOiAhC1nlflD7KpljIVtcN4ZTGrbjclHbKQDDF2zCam9Fu4BWG5ARNEygY1fpL7Sg3phVL8+qDkrfZDMPbc7eiiulYWfIw+uwQv1Z2cox82F7mpaAyW/gjmpFMhdbPZZlLZQU/tRZLcyh9lUyx0J26GgMTRS5KEPmYGaFN6TMzqDVBmQEDQ+M9KwylCOGVbo9VnVw5qNxTmNdyVbMylyDacvnSBv3hc835jXcUtEknaNEiIOK7zAlLsL+mQZHYULyMrRan8OkuDH28b0lEmenO5c29QQtfwVzLDSH0cZwxFa1EeeJU2DeU+5TotUGZAQFjCeBS1OFrIY1rOrgzEfjnEmg1WohU3H5xiKscTapYGvAirwPcJ6cm6aNDcUpK77FQ3IuUUY4vo9XJG8MCCJo8jvs++xteG2P8LzQ++HRuwZ1yuT7XUsQQY0RDQCBloPw9XMxcNP1U2DpNz1h3NzXISN7C+TlZsO61c9BbPhR+ODRv8Kgvy2B7Eo3c9QMcPgWmKMRS3MyUGgMoZdPR6ExMFwcn5G48DtY4E5Ru2ELJg+h3t17qfXUaLUBGUE9Kw0NjEI5IPXMqOiBVR2c+WieU1idnyqJC6uvuU5hReYc+40pyx24YOMBhxtTtrqdmCol8rJErsB8RvlD1b5K5ljIFleNoUaRONVlcla2aLUBGUHDArr4MwqNuSngWMCqDs58ZIMTDYCWXZgSQSrcATjC+qNwlja2Qxk4VcxR6nx62yha/rbDaslzIWDoPTD/iSiwQA1se+VT+P5Yi/SYCjwMWz7bAJXCYcD9d8PoID1DIO9CaaqJ/Px88X89UDrrzz77DG666SapxBy+UAf39ICrIm6FkXRYsxP2HGgSS+HoXsj9jlS5BsO4iIFO5Yq6XXYDTPgHCbcVwFd7DncmFT8tnDSGmpoC2PhhgXAwBCaPGwZ9te8MtzvPPPMMPPTQQ+JtfXfQOc8++6woDMxyiUHH1YGVBsA5cN65rhaE9ILAq+zP/v1YrXAl5x1MBjxLQQQbnMj/Fj6izsASAZFh2qreHYE/CyLQZ/z7T2/CHdePhFsnvw45B09J5WoQGvb/DN+Ix32hzwXSiqlWjac6OFbrpKMjhF/3X74jVXYLXHr5RdDTXuoVHMY5+jEriKCkHvOX29fkQHQalrC5btGF2n/Z1JgRI2CFmToofZNND6Y0AGxlmDHVvoo2IPZDLNOctrRhY8EbGCVObkRgUs5vUrk5lH4qzLHQCOYEERS06jgB9k/ORX0z9mxQ+q40LSjAKKBofls+j46pzOidUE/xtA7yuUrThzkNgIb8FdISkSAcnZSJxW1m6k5hdcGa1vn5gCnv4X6t+PAAta+SORYaw0xjKGjV5PeOcJkrtNqArKthykczGgC241iQOkNaMy9Y8BiMS3qu7Z1WwSyjF+FGnTcn9WCvk4M5FhrGlCCCRKuKm5EFZmxQ+q60roZpH81oAAi/2UfzPsTkmJFS56cw4QsQb12HBco1Ngxo8x5nzLHQI0w1hnJFnYEFZoxoW98z1tVg5aOtsRoPFO0U5UXz8gqx5Gidy8+2Lc1Yd7QUC8XnquRJGaPlL02E0EEb7Od6hilBhA5C746nzo7nO546J1r+Mg/4zggP+K6Jlr/tdOOJw/ENeA8v4KyH9wd4D8/hdGF4wHP8Ch7wHL+CBzzHr+AXrQJ8WrJrwi9aOX4PD3iOX8EDnuNX8DG8AB/D68ecIIL0/NxcyNu1H34tKYETva6C0EHXQvgtN8H/BPZw+3wjaPlLJcwC3uPGwGr45asc2FPvYo8gcfaVMGJ8GAQy/l3iAa8Hk4II7p5viYTZb70Ii/7h7PnGcfq5qs04HgoiyLRu/nBjDDPLKtF8L8FcYVSMwBsYrYNRH5WYE0Sw4anidJwqpmoRnh+VhGkb87CorBgLt/4/fCsh0v0GIQ/Q8lcwx0KjmGsM4fklaRhN51jCcNz9MRgT48RmpGGhFzJma7UBmRoKKEqKRPtGp0+fLm6rI6NjOp/2lHo78M3UQembbPowqQHQuq/VSTKu5jLMnD3CXqfIlVjo21v8zAoiKDaCR6R4JaDdofZfNiWUhZeSIVFwaWUFpr2klPhIKy87K8zWwZ2PTjGlAWDDhrwXcAQ9FhCH6WVam3tseDJ/BY4Un89uA5CWv4I5FhrCtCBCIxalThLfN3BuNtZKpe2J2n/ZZKjHpECj3tMdXBBBvUVTVvew4JDkLU4zj2HzMSzaWYTlFUeY7YDS8lcwx0IjmBdEOIxZCUOFx4IwOm0fs/GbEbTagEyGgsxIumoaclAvzBIWdXDlozlcaACc3o2pY2hfcxjOzT4mFbYPWv4K5ljIFjeCCC35uHwYjf8jMDn3uFTYvmi1ARlBwwQ6dpX+QgvqjVn18qzqoPRNNvO40QBoHQHIn/0prCnajBmpL2FSQhwmJFkxJT0bd1Y0MO/stPwVzLGQHToEEY5mYhzlLLHMxDW7tuGnK57AmFEhUl1CcHTcYlyd7SLvOAPU/stGcEEELQxoALRmo4jDjLJS/NZ635l0HUoLnoiLsx0zC5vB4T3s5lhoDiOCCDZsyl2M/el9Lf0xuD+d61gfGu6Mmp2Ohe5SbXuI9nva24ECxpPApalCVsMaVnVw5qNx9AsitCr4wRicETcGLWIWi+cwbUMObtuWgxveewHjJZ1Wymv09LeVzHr6NvU7Y46F5jCiDtGEJWn3SefR/OzTmL5lt3DhUoEVFQexJP8LxRxtEI5evNkrWk9t6qowwtNgo3nxjg54dR2c+Wgc/RoAZwKerD9GWTfjUVUcKPPDw4gXMK9z5Yc3IojQiMUZSRh7fxSOnupELEEhXQkwDpfns0/SpNUGZAQFGg0NjKIWIzADqzo489E8zjUA2gS80zl24TqvKBWjxThhd3Gr9lUyx0K2GBFE0MZWlYWzxQufAIxI2YWsBzZabUBG0LCALv6MQmNupRiBGVjVwZmPbNAWRGi9qSgMZcak7hYGvE6w7cO0aBraWHDY8nwmn7GWv+2wWtKAIIITuvX5M4z9x1DhqAa+y90LR+3F7QIXRNCLtgZAt+494ULxqAdc2run8+W53c6DnheSAEY9nDjVIkanN2in5cE6BRGc0hMuvkJMMt4hcEEEExoAlwRD2DCh34dTUNtw0muBrBeTAW+yMVrq4bcDe4Xn74TS4656/Qb47SApJQiDmoCecJ541H5wQQQTgghnXw5DIgcJBwcgZ8seOOYs4k8egZKdR4SDoXDntVd4NTVj6/hGNv2YFEQQxuYJYm55N3dZW5X93IwDPUSrDcjUmBEjYIWZOih9k00P5jQAbNiQuwSH0PtZJmNKgdakQzMeyZqHoXSOUhDNJGpfJXMsNII5dYiDmBk/xF4e9QYWKBPLt9KIZelxKAxohMZ4GDMOsU2pTCh9V5oWFGAUUDTdJ59Hx1Rm9E6op3haB/lcpenDpAaA8vMf/R9cU/Cb4gaTclIjCCOXb3e+3sYgal8lcyw0hpnGaMHa3KX2lXQ0z75gA5YpFw7ZarE482lJh78/RqXsFMKfPVptQNbVMOWjKQ0Akp7/Ehe0qnDTHfSncFkbQQStaWtzyD6qzLHQMAzVISxhkzGRdPiXJeGsqDDpi0Jfhi+xwkvLC2S/1dbVMO2jSQ0AW90+zFr+CI5WPz84GuembsbydpCeF8yx0CPMNIatHss3r8K54xx3TFnCH0Rrxg6Hu3MsUb+nbF0NVj6aE0Sg51dhaeFP9ucX/orV/iuI0AL1laVQXHFCODoLzu9zOfQL6guWcxhtcnQC39PaNdHyl3nAd0Z4wHdNtPxtpxtPHI5vwAOe41fwgOf4FTzgOX4FD3iOX8EDnuNX8IDn+BU84Dl+BQ94jl/BA57jV/ClBQJ8aYF+zAoitAWhpfJ7SHt/K1Sfcy1MnHU7/Ols6SEGaPnLNOBNNQb+DpW7tkLOlh2wv7QYDsDlcM2gwTDshpEQfvUl0N1YSxqCB7wezAoiaNBSCp/MmgQTV24Xnm+FvD2PQxjDvX1OP1e1GcecIIKtbjd+umCCImGP0kJx3LyPvJZ1jHB8T7u5grbUkdE2O/rfWU52b2K0DkZ9VGJWA8CRBixOf/hM2j0viF2ofZXMsdAophrDdgiz5kjJ8MWNABswr6gMy4t24LdrluBkSTUiJD4Dyzp4AwgFFCVFon2jXBBBgVsNADU2bNyzCieLW0Ml6zwBb6YxFMnyLdFo3VbVdi8k/XLkv4ZR4ha/UZicWyOVs0Xtv2xKKAsvJUOi4NLKCkx7SSnxkVZedlaYrYM7H51iWgNAReNOTInqL3zmYzBuxhh7XTpNwJtqjGOYPde+uTcgPhOPaD65FNMnC43DMCOVGrX/sslQj0mBRr2nO7gggpYGgILW1IlBGGndjHvWxNnr0lkC3lRj2GqxZPPnmJ66AlfmVGh+WYR+C3OS7EOeYGueoa1kelH7L5sMBZmRdNU05KBemCUs6uDKR3O40QBopQVrt72EkcIvtj1LxSmsyOhkAe8evY3hhFO7MCWSNoJ7JycNodUGZAQNE+jYVfoLLag3ZtXLs6qD0jfZzKNDA0DCVr0JF4QHKPLTNHe1gNffGJo0H8ZtK6fbL3pD5mBmBfucNIRWG5ARXBBBCyMaABKtkxMhOCWtSMpf1CUC3oPGUFJXgrlZmbgm7SWcLWcxCJmKK7Yc8spwhlD7LxtBAeNJ4NJUIathDas6OPPROEY0AIgmPJSZiKEUB1PTsbg1K1n7B7wXlhY0QfkXz8HY8X+HmISXYH1xvfClngQzY26Dq/tSdljXnC7/AhLHjoe/x8yBl9fTDY5hEDNzCtx+dV+v5htkTY8ePaSjjsN7dTgLegyOgTWZGyArMx3eWhQL4ZWrIOG2MBg+Iw0K609L5xEILeXrYdG/U2BPyDR4/ploGHCuF+8iusELAW+kMTToMRj+tSYTsrLWQfpbCyEm/DCkJYyBQcMfgbcLa8WvaXtTXy98aQ3y66+/Qr9+/aS/zOMLdThDd+h/0wSYeOdYuP3OyTDtqTfhi+9SIVYYe+57Zw5MtX4HNfIH1bwPPnjiCVi5bxDEP58AUf26Sw90HG26fDK2mBFEEK4BqrefkUMJX4Q51ewnJtX+y0bQsIAu/oxCY24uiFCHe1JjMEAYyoTO2aAx7dzlLlpltNUh9KGUQ3E+128GrTYgk6Fgo6DTC82M0Dw4y7uuLOrgykcWnBY+pzHi60rTz815aA12fE93xmr6Weu122l5sBlBhG5w7lUjIWpkoHBcAF/tOQxuBkXM4YIIJjQAfAyTAW9WEKEGSnduh61fb4Ttlc4S7Quc1RN6X9pxF4FcEMFDQYSzg2HiR3mQl+fMtkKWVapjUAKkbbWXfzQxGBiuEnbAodvXj0lBhNZlCcE4Jb3E+VCl9U4tF0TofIIIruiEY3hmgghOG6kRyzIS7DefLPcKXxZW6fLPoPRdaVpQgFFA0fy2fB4dU5nRO6Ge4mkd5HOVpg+TgghO6ZQXrWYaw4YN+SvEtRX2HPBqQYR6LMtaKAkieCZ5qQetNiDrapjy0ZQggjM6ZcALmGqMOixKi2vdCKAtiGBhrg6hRPZbbV0N0z6aFERwpLMGPGGqMZrwaN77OI8LIngVVj6aFURoL7T8pXu8dNAG+7meYUoQAZvg+KFyKDtSxwURvIC5Pa2dDy1/mQd8Z4QHfNdEy1+el4bjV/AeXsBZD+8P8B6ew+nC8IDn+BU84Dl+BQ94jl/BL1oF+LRk14RftHL8Hh7wHL+CBzzHr+BjeAE+htePeQ2AHyE3bxeUVB6E/QeEp191BQQOGAYRt/wFBvY+VzqRDU4/V7V5iq2xAndmf4gp1kU4N+5hnJu8HFMzcrDwWKPODQEKbBWYvSQeY5Kz8ZhU5C202oCsq2HOR7MaALswfXaktNxbw4InYvLnew2spXeP5vtoFEinG8FcYzgiZ6oSnhuTgRVSqbfQrLNgrjAqRuANjNbBqI9KTGkAnNqL6VOl/RKWSExIWYs5+UVYVlKIed9+jNbYkdIXYQTOyTpkvHN0gtpXyRwLjcJWHaIJKzYuknY5CeZDAU8BRSnvaN8oF0RQ4FIDoAWrsp+yd16WSbgiv8YxoJvLMWveKHuddAkq6EPpp8IcC43BUB2i+TfM/yARR8nBTuYjAU95Xig3DAWXVlZg2ktKiY8oELUeZ4HZOrjz0SmmNAAOY1bCUPG9AudmY61UqsZWlo5TxM89ApNzj0ul5lD7KpljoSGYqEOcwpqir/D1uAjppy0UR42yN5IvBDz1mBRo1Hu6gwsiqDQAWpMxBWNMRrlUqIHe8wyg5a9gjoVGYKEO0ZK/HIfJ7x9yH1qz92GxrAzhAwFPQWYkXTUNOagXZgmLOrjy0RzuNABs2Fz3Gx6rczGgrcrCBDH7RRjOzWYzTaHlr2COhWxxL4jQnGfFYMtIjLWuw4JqSvSh2NzbwQFPwwQ6dpX+QgvqjVn18qzqoPRNNvOY1AAQOYWHMh7GAKqTy/xGxtDyVzDHQnboa4zTx/bjrooG4WwZ3wl4LoighUkNABXKSY/QeRuxyvAXRhstf71wp9UG9aU/wBefZ8C7Kx6Du0bcBvHv7IOQmKWwOmkMBGrcCzjr4mAYEtjD9U2LDuLIkSMQGhoq/aWf6667DrZu3Sr9ZQ5fqENbzGkAKMH6n2HVvP/AS3voNabB4n/dCH28GAheCHh2jdGZ4YII7hGDfVYsTHtnh9C5R4P1vwvgbi/nj/dCwLNpDF+CCyKoMSCIoAlCS+Um+N/pMfZgD54Ii9e+CrOv79Muv/IO4xy2eCKI4DtjeLqLSRd/RqExNxdE0KIF6wrTcfaoIHsdQmZgasFxxfUbO9S+SuZYyB6jggi+E/AEBRsFnV5oZoTmwVnedWVRB1c+ssBBEMGBJqzIXopRUnY6y+inMbO41ivBTqh9lcyx0Bu4bwwlvhXwFGh6A5jOodv8rGZoZFjUwZWPzrFhc00p5udtwez1eVjhKld5RQbGiK+r9Rkrl4xQrtBUzBenoL2Hlr8mx/BdSx3CGVwQwUNBhFZOQmW2Fe67Kwm+qQ+C0Qs+ho0psTA0gO1yYL04fAv0Y1IQwSm+1cPLcEEETwQRbHhq/3s4RXw+pUT/Eiu8mBhXidpXyRwLjeAddQjfDHiCAowCim7by+fRMZUZvRPqKZ7WQT5XafowoQFgK8OMqbLA9HRM2bhVyjrszLZjYQUb0Qu1r5I5FhrDG+oQvhvwnRlTPnqoAdBSmIIRivdzbz6+eEyEuToED3hvYNpHwxoAis9Rt3WGgCeYqkPwgPcGrHzkgggKTAkidBB8E3fXRMtf5gHfGeEB3zXR8pfnpeH4FTzgOX4FH9IIOBvS+AN8SMPhdGF4wHP8Ch7wHL+CBzzHr+AXrQJ8Hr5rwi9aOX4PD3iOX8GHNAJ8SKMfU4IIYIOmygLYkpMLPxXuhl9O9IKrBwTD1cMjIOL6AdD7HNfPNoqWv1TCLODFxsjNhbxdJVB5qAQOwGVw1eWXwYBhEXDLiBDXDmET/Lb7B8jOyYP9pcXCcy+HawYNhmERN8OIgX28uviMB7weTkP93kywJs6Hhev2SGUKgqNh3pJkeGrSELBoNqdym59U1EoghMdbYZX1HhhsOVsqM4/Tz1VtxlGlXnAwCwZHLcbPnexQt9Xtxc+TJ2Kw5nNDMWrBp1hUp0rDzRDH97SbK4yKEXgDo3Uw6qMScxoALVi9ZZm0gVv4PJNW48a8PVhStAO/XbMEJ4spXCwYEp+BZQy3/2n5K5hjoTFseKo4HaeKlQa0jJqNKZk5mF9UiiWFeYJDVowNlzaBhM7DLHWKjuYyzJw9QnpvqTG2FmBxcQFuzXoTE8QvEe1yfw+LlFupGCL7rTY1FFCUCYD2jRoVI2CFmToofZNNHyY1ABp+ROuIAOH5QRhp3Yq1bR4WOsuCd6S8RSNxXvYRHTvi9KH2VTLHQkPYjmD2vJHi8yxRr2G+Q09sw+aKDTgvnBy24JDkLXhmx6JCHUJzR5Tw3Krv0BpJQe9iz6xJ1P7LpoTyvFBuGAourazAtJeUEh9RIGo9zgKzdXDno1NMaQAoNvoHJmJWldYvdT0WpkwQ62OZko5ljCJe7atkjoWG0JXX+ySWpT9o7wH6L8bcJskjWwmmTwkW3zNgagYe0nTUhg25S3AIPZehHIoStf+yyVCPSYFGvac7uCCCOidNFeYk2X/BXSmAtO59tcRjRgWb/VNqX8lMT0u2lO6Cz2vo6Hr4y9W9xTJH/gCXXXU1/JEOfy2Himopv2RdKfy0qVg4GAoxk2+EyzSvMbpBj2sj4O4g4bDgG/hud529uB1JTU2F4cOHw8yZM6US59x4443wxBNPwIoVK6QSNnRkHbpZBkDEnZPhwYRYuOlSrekDhOayX2DrATpW5aSxHYV9P/wqHATB8CH94AJ7qQNnXzEQRgo/A1C/E/L3n7AXegmHb4FxmrHu2G9Y5/SCQxi6ZD1mT3gfOB+za6X0VS4zVSlolUPpj5PTS5mN8WS02oCMoGECHbtKf6EF9casenlWdVD6Jpt53GgANOVicn96LzfKHi35uHwYjeO9u4mb0Y2nc8By8UVgcTbtiIdg04frgX4ILKOGwlUXePq2v0LegSpoz/zDu3fvBmFcDH369JFK9EFZv3788UfpL3P4Qh3aYkADoLoC9lIHL/TtfS90kQr77D5wxbU0BqiGkqO1XvuM2+FOawsc/fJ1eHIVzd2OhEemj4YguUF69YUraagCB+Cn/cfEr6AWWLEffjoi/dHOcEEELbypAVADlfUnncaCWbwc8KehvvB9mDfrNdgDFgiJfwz+dXPfM3fjel4No6aECQfF8MHyj+GHExrfazwOP6/NgEzpZsWR/ZXiL4WvwwURfBMvBjwF+3sw6+6Z8M6+erBELoL/Lo2Gfm2GPRfByJiHIMoiHOYugphZK2HzgYbWbzc2HYIf3kuG2f/ZCn8MFq4ABAIuuRDaO5S4IIIas4IIHYeXAv4kVOa8AtPFYBcuQ6KWwtrVD8P1vdS3jbtB98H3gvX1OAiBetiXNhNu7hcC4XfeBw888He4ZUgo3BDzEXT794uwNPZa8Rl/6NUDzhOP2ocBAwbAJ598Iv2ln7y8PBg4cKD0lzl8oQ6uORcCht4D85+IEn7Ha2DbK5/C98da7A+d1xMC7H2Va2wNcPzw78JBf7g+6CJgt8DAEfHqVWmmsB3HwnRZTZvukL6DBe6WBdjqsXzzKpw7Tkq6KZkl/EG0rtuF1c3HMTc5Qny9YcvzkfUiA+V7Kk2GZjvo9r1eaGaE5sFZ3nVlUQdXPrJAUwOgdYYtFOMyD9nLtNB7ngG0/BXMsdBjmg9g9mJ5TUwQjk7KxGIja2BsjVhdWiimcMsvOog1jdL0pa0U0yf3F16T3ZSVEq02IJOhQNMbwHSOlhiBWVjUwZWPzjEriHAIM+OoIwvAiJRdzjur1udGY0qhT2cPlhCCfWNrlmBaJrBd6JkZzZi33tpm1xhKtNqATAnd4XQ3t07z5BRoeu6GeoLZOrjzURuzGgCNWJQ6SXwv58sGFO8R9DTm1LOJG7WvkjkWGkYZ7Bops50jDH8yXkOr1Yorssud3FCim1aJ9sbooKUFMlwQwTMNgNPFaXgXDXEtkzGlQOMGY/N+TI+lXwH1WitzqH2VzLHQGA24P22qJBsuBPvGAwYyyTZgYUq0+J5Ov/2NOzElioYzAThy+Q5kI0reFrX/smlBAeaJGAFLPK2DfK7S9GFSA0C5wHD0Qswqqz/zePNh3LZyun15ccBUTNvP7hdc7atkjoVGsB3KwKnit58uUF/HjdvUig5q240Vra1lw1PChU60eIGrXi1JY8fduC5JasjwRZhTzfpy1Y5WG5B1NUz5aFIDwHb0G3x6tLRfwhKOkxIXoXXZUxg3OkR6rrO19J5jf10HcyzUz5keWr/FqVbD1WFRWpy0gUDZkDNwtJxr3otanoRjHe3W1TDtoykNAFpzsw3fmxet2uhjweDRs3HllkNMg51oW8dWcyzUTzlmxNiX9+o3dcAL2I5jUaZio0irheK4uatwc7niJ9ALtH3PM9bVYOWjOUGE09hYcxCL8um5P2FhaZXO6z3jaPlLtz3poA32czuAlnqoLCmBChJTOOcC+OOV/eDy3u42BpuH72ntmmj561sB30HwgO+aaPnbDqslORzfgQc8x6/gAc/xK3jAc/wKHvAcv4IHPMev4AHP8St4wHP8Ch7wHL+CBzzHr+BLCwT40gL9mNIAgGY4XvITfLfpR9j9azHsFgUR+kOwrucaR8tfKmEW8IYbw1YJ2zNzocxAGpOzrxwB48MCmf408YDXw2mo/2UNJD2SCC9vEpNIqrBAcNR8WP7STPjbgF6OC/5aKiA35Sl44NFVsE8qOgM9NwneXJkAtwSyy0nh9HNVm3E8FERo3amu34Ktee21blp6VBujYgTewGgdjPp4BpMaAMpdcTAUJy/+CL/NL8KyEqUGAO2GWoZbGG7ykX1UGn0F6KAN9nP1gtBc8hHEjZ0Oqyjh0qjZYH1sAowYGAS9WqrgwO5vYNXSF+GdbZUgNAZkfZsMt18iZZc9/Qu8+/BS2HjS/qczbFWF8Nn67VAPQTA29Uv4/MFQpnlL9PbwjY2NsGHDBnj++edh6NChECAlXKmpqYG33noLXnnlFZg2bRqcf/75Yrk3MFMHj3t4PApfz78bbl26BSxRr8F378fB0DbSNAgtlV/AU9H3wtJtzTAk+Uv44ckRZxJmnfga5oXeCssq+0PUijXw/swwhSyO8NyK9ZB46xR4ec/FcFfal5DxzxAmv+De6eFNCSLooHVrmQVDZ2fiIYaSKDJq/2VTQpkCKGOAp2IELDBbB3c+OsWMBoBAc57VvsspIAEzHXp/ohbzrJH2Ok1Ox3JGH7HaV8kcCw1hsjFcYqvCbdZo8Xmsf+6UaLUBmQwNFSjQKCuAO7qiIEJrwGrtVlOgfZ4iVbrTz74ZKzLi7HUKtmIeozGr2lfJHAuNYK4xXNGCtdtewkhxg/cYXJxb5bVtflptQCZDQUY9p14oARL1wixhUQdXPrrHQw0AgVZ1D5iAKYVKORwJWyVmzbZvEA9IyEJWuR/UvkrmWGgczxvDKQ3bcbmo7RSA4Qs2YbW3ol1Aqw3ICBom0LGr9BdauEuYZARWdVD6JhszbGWYMdWeKtEh5YqtHDMftuesCZj8Bu6oVmS2sdVjWdZCSeFPI8WHCZR+KsyxkDmuGkOTBixKvdc+BAqZg5kV3pAyO4Paf9kIGh4Y6VllKEcMq3R7rOrgzEfzNOORrHmSOJ2WEh9dx32HKXER9s80OAoTkpeh1focJsWNsf/yWyJxdvouzRQfnqLlr2COhWxx1xiO2Ko24jxRE9R7yn1KtNqAjKCA8SRwaaqQ1bCGVR2c+WgOpeykC61VWwNW5H2A8+TcNG1sKE5Z8S0eknOJMsLxfZhJ3jjDjSCCJr/Dvs/ehtf21AOE3g+P3jUIzpUe6Ux0bUEEGT0aAAItB+Hr52LgpuunwNJvesK4ua9DRvYWyMvNhnWrn4PY8KPwwaN/hUF/WwLZlW7mqBng8C1gg/KbLwxltARttWjYgslD6DneS62nRu2/bAT1rDQ0MArlgNQzo6IHVnVw5qNnNGHFty+1qmgHRy3F7Iom6TElp7Aic4490ZZFOxWjrW4npkpZzSyRKzCfUf5Qta+SORaaR29jqFEkTnWZqZYtWm1ARtCwgC7+jEJjbgo4FrCqgzMfDWNEA6BlF6ZE0D2YABxh/dHpPZgzKRudix8bRctfwRwLTeGJIIKM7SBmxg8R6xAQn4lHGF7AuELtv2wyFGwUdHqhmRGaB2e53IBFHVz5qBujGgCted8jMDn3uFSohZxHnt3yEbWvkjkWeoxZQYTWm1jsvuV60GoDMhkKNL0BTOd0LUEEBZ5oAOjV4sU6zLOOEuvkSrHbCGpfJXMs9AjTggjKxPvs5Mf1oNUGZEpoLKye11ZD8+RdTxBBwlMNAF134gVs+zAtmmZw2MkaafkrmGOhYTxtjDbUY/7ysfY6RKdhSXt17wJq/2VTY0aMgBVm6qD0TTZ9mNAAUNyDCYj9UHvKUvgtbyx4A6PEYXAEJuX8JpWbQ+2rZI6FxjAjiKCgVccJsH9yrnDZ236o/ZdNCwowCiia35bPo2Mqo8faA0/rIJ+rND2Y1QBoyF8hLRHRGuaewuqCNa3z8wFT3sP9CvUQM6h9JaMJUzpog/1cfWDFJzBtyERYVWOBkNhlkPLIcOjtcqK9J1w2eBAEdleddHIrLA4dAU/9GgwxGd/A6gmiRHe7oHd5cGfHs+XBv8MvK++FwQ+vlf7WQxxkVLwKEwKlZeBYC4WrEuHuaf9n3/wRPAbi7h0NV/UCOLH/G/jvG19CsVBsGb0IPns/EW5ltAnEC8uDWQgiSOi+uGGPdj2NtEPnwDMfGWkACL/ZR/M+xOSYkdJ1nsKCx2C8dR0WKNfYMKDNe5wxx0L9sGoMVKyoUyrAtQ/a9eQB7x2ase5oKRZKw5828qSM0fKX+nw6aIP9XP+BD2m6Jlr+8jQdHL+CBzzHr+ABz/EreMBz/Aoe8By/ggc8x6/gAc/xK3jAc/wKHvAcv4IHPMev4AHP8Sv4WhoBvpZGP+YEEZTP3w+/lpTAiV5XQeigayH8lpvgfwJ7uEnhYgwtf6mEWcB73BhYDb98lQN76m1SgRPOvhJGjA+DQMa/Szzg9WBSEIGevzcTrInzYeG6PVKZAkskzH7rRVj0jyGKVNrmcPq5qs04HgoiyDTlYnJ/reepjGFmWSWa7yWYK4yKEXgDo3Uw6uMZzAoiKJ9PsZCEaRvzsKisGAu3/j98KyFSWiPfKXJLmm0M4RVK0jCaHreE4bj7YzAmxonNSMNCFrt7VSh9V5oaCijKBED7RmmjNG2rI6NjOp/2lHo78M3UQembbLowqwHQuq/VSdqW5jLMnD3CXqfIlVjoxS1+gjkWGsK0IIIiW0FEilcC2h1q/2VTQpkCKGMABZdW1gDaS0qJjygQXWUVMIPZOrjz0SmmNABs2JD3Ao6g8oA4TC/T2txjw5P5K3CkWCd2G4C0/BXMsdAQpgURGrEodZL4vqzykRhF7b9sMtRjUqBR7+kOLoigPk9W93Cj/tJ8DIt2FmF5xRFmO6C0/DV9+ddSugs+r6Gj6+EvV/cWyxz5A1x21dXwRzr8tRwqqpWyfbVQ+vNe4f8gGD6kH1xgL/QpUlNTYfjw4TBz5kypxDk33ngjPPHEE7BixQqphA0dWYdzwh6H/dgMdccWw5i+ztS1TsOJ3w5DNR0G9oHePaXQslXAzq8KhINB8LcRIWd0n9ScczEMvG4gBAVeAr27e3e23OFbYBwTgggt+bh8GI3/3aVi8x5abUBG0DCBjl2lv9DCXcIkI7Cqg9I32ZjhTAOgNhvnBtJ7yUOVU1hTtBkzUl/CpIQ4TEiyYkp6Nu6saBAGNmxR+yqZYyFzXAkiHM3EOMpZYpmJa3Ztw09XPIExo0KkuoTg6LjFuDq7CGsMZTEzhtJ3pRFcEEEPLjQAWrNRCMOcslL81nqfPZOw2oIn4uJsD3MaOcHhPezmWMgWV4IINmzKXYz96TFLfwzub5/pcbQgHDU7HQuN5Kk0gPZ72tuBAsaTwKWpQrq4ZAGrOjjz0RyuBRHOjOvH4Iy4McJ1XCCGxz6HaRtycNu2HNzw3gsYL09nW+7Ap7+tZNbTq32VzLGQHe7UIZqwJO0+6X1pfvZpTN+yW7hwqcCKioNYkv+FYo42CEcv3uwVrSe1/7IRngYbzYt3dMCr6+DMR89xrwFwJuDJ+mOUdTMeVf1aK/PDw4gXMK/z5Ycn9AgiNGJxRhLG3h+Fo6c6SautkK4EGIfL89knaVL7LxtBgUZDA6OoxQjMwKoOznz0DH0aAG0C3ukcuw1PFaVitJiOz03SVQOofZXMsdA8ngoiaGOrysLZ4oVPAEak7BK+SmzRagMygoYFdPFnFLUYgRlY1cGZj4YxoAHQelNRGMqMSd2NTiccO1X2YCVmBBGcchizEoba6xeTgRVSKSvU/ssmQ8FGQacXmhmheXCWd11Z1MGVj7pp9lQQIRhjMsqlQi3OZLHzH0EEp5xJlt8RAU+BpjeA6Ry6ze/JmNsVLOrgykddKNOi69UAaJ12DsLotH0uLkg7W8B70hjNdXisvAjz8/KxpMaVi2d6eJZKzTJq/2VTQmNh9by2Gponp0BjNXZXY7YO7nx0ifLztRjRADiG2XMlUWJXMkZN29A6lL4YQzEh67BUaA61r5I5FhrG08ZoXZbg5tvfquznZhzoIVptQKbGjBgBK8zUQembbPowowFgw4bcJThEfO5kTCnQmnRQTF0HJGCmxgJDT9DyVzDHQmOYUYc4I2JmiXoDCzS/JY1Ylh5nf/2AhzHjEHuZYrX/smlBAUYBRdN98nl0TGX0WHvgaR3kc5WmB3OCCALNJZgRb+/lLaP/g2sKflPEyCmszk+VZvOCMHL5dufrbQyi9lUyx0IjmGuMFqzNXWpfSUdj/gUbsEy5cMhWi8WZT0s6/P0xKmWnEP7s0WoDsq6GZz6y0ACgFbNf4oJWFW66g/4ULlNKzzOb4DiDY71EcyzUD4PGsB3HgtQZrbebLWGTMZF0+Jcl4ayoMOmagL4MX2KFu2sCD3Gso926Gp75yE4DwFa3D7OWP4Kjg6k3V5wfHI1zUzdjeTtIzwvmWKgfRo1hq8fyzatw7jj7ehulWcIfRGvGDoe7cyxRv6dsXQ1f8dHWWIWlhT/Zf/ELf8Vq/xVEaIH6ylIorjghHJ0F5/e5HPoF9QWLm43BZuF7WrsmWv76WMB3DDzguyZa/vK8NBy/ggc8x6/gAc/xK3jAc/wKHvAcv4IHPMev4AHP8St4wHP8Ch7wHL+CBzzHr+BLCwT40gL9mBVEaAtCS+X3kPb+Vqg+51qYOOt2+JOzTH4eoOUv04A31Rj4O1Tu2go5W3bA/tJi4bmXwzWDBsOwG0ZC+NWXQHcj7WgQHvB6MCuIoEFLKXwyaxJMXLkdINgKeXseh7BzpMcY4PRzVZtxzAki2Op246cLJigS9igtFMfN+8hrWccIx/e0mytoSx0ZbbOj//VsrmaN0ToY9fEM5jUAHGnA4vSHz6Td84LYheyjyhwLjWGyMWyHMGuOlAxf3AiwAfOKyrC8aIfw3CWtuW0cs5axQ/ZbbWoooCgTAO0bpY3StK2OjI7pfNpT6u3AN1MHpW+y6cK0BoAaGzbuWYWTxZ1yknWagDfVGIpk+ZZotG6rEkqUCL8c+a9hlLjFbxQm59ZI5WxR+y+bEsoUQBkDKLi0sgbQXlJXYgQsMFsHdz46xbQGgIrGnZgS1V/4zMdg3Iwx9rp0moA31Rg6UjjYSjF9stA4wpeFVUYqNWr/ZZOhHpMCjXpPd3BBBDfntaZODMJI62bcsybOXpd2CnjT05KmBBHwD/Cn8c9CeuoKeO7eMOirdY3RrRdcNjBQOKiHE6daxFq3N1wQwYQgQhuEc7anwX+eXQsQ9RS8NPMv0EvX1S1bHL4FxjEhiOCOU7swJZKuAbyTk4bQagMygoYJdOwq/YUW7hImGYFVHZS+ycYMVxoAErbqTbiAhrat+WmasSKjk/Xwds4By8UXOd97iodg04frgX4ILKOGwlUX6HzbliOQ9/ZyePGrSoCQe2DWHcHtfqds9+7dIIyLoU+fPlKJPiZMmAA//vij9Jc5fKEOrmmBo1++Dk+uIv3VkfDI9NEQpA4FrIAvF82HhdsuhimvL4Rpg4UBbgfQDvGjozGU1JfC1i8+h4x3X4Y5d42C8Pi3YF/IVFix+nEYG3iudFL7ceTIEQgNDZX+0s91110HW7dulf4yhy/UwTmnob7wfZg36zXYAxYIiX8M/nVzX9U8/EmoWP8yzH5pF4RMXQTJ94RA+3+Sdrwc8Hoaoy2ny7+AxLHj4e8xc+Dl9fQlGQYxM6fA7Vf3FX5HOg89ejiV72o3vF8H+nzfg1l3z4R39tWDJXIR/HdpNPRr80uP0FK+Hhb9OwX2hEyD55+JhgHnuooA7+LFgNfTGBr0GAz/WpMJWVnrIP2thRATfhjSEsbAoOGPwNuFteJArL2pr6+XjvTz66+/Qr9+/aS/zOMLdWjLSajMeQWmi58vQHDUUli7+mG4vpfqorZ5H3wgXECv3DcI4p9PgKh+3aUHOg6Hgb15WAki2LC5evsZOZTwRZhTzX5iUu2/bATdxaSLP6OoxQjMwKoOznw0jG4NgDrckxqDAcI5oXM2aEw7t/9Fq2COhaZgLoiglEMZgvGZB1U3p8yj1QZkMhRsFHR6oZkRmgdnedeVRR1c+agbIxoAzXloDXZ8T3fGBRFO78bUMfblCawaQ4naf9lkKND0BjCdQ7f5uSCCQJcOeKONQTRXY0l+HuZmf4V5FSelQi3Yq0MoUfsvmxK6w6me11ZD8+QUaHruhnqC2Tq489ElnmgA2GqwZLs6e7TStmKWdYK9LkEJmLbVXr69pIbJr7jaV8kcCw3jSWMQrSrNwTglvcS5k/U5mBRE53FBhM4niOCKTjmGZySIEJ2KRZqSho1YlpFgX0ZquRdTi1ilyz+D2n/ZtKAA80SMgCWe1kE+V2l6MC2I4JROGPDmGsOGDfkrMFK8INUSRKjHsqyFkiBCAIYv2NTuwsRdCc98ZCGI4IxOF/AsGqMOi9Li3AgisJjtcY5jHe3W1fDMR3aCCI50uoBn1RhNeDTvfZzHBRG8ij/4qETLX7rtSQdtsJ/bAWATHD9UDmVH6rggghcwt6e186Hlr28FfAfBA75rouVve6+25XA6FB7wHL+CBzzHr+ABz/EreMBz/Aoe8By/ggc8x6/gAc/xK3jAc/wKHvAcv4IvLRDgSwv0Y14D4EfIzdsFJZUHYf8BgKCrroDAAcMg4pa/wMDebLPVOP1c1eYptsYK3Pl1BqYut2Ly3Icxbu4itC5PxYycIqwxutrRVoHZS+IxJjkbnaVoZYVWG5B1Ncz5aFYDYBemz46UlntrWPBETP58L9YxXBSr+T4aBdLpRjDXGI404aHMRAyl58ZkYIVU6i206+y6HYyKEXgDo3Uw6uMZTGoAnNqL6VOlVCuWSExIWYs5+UVYVlKIed9+jNbYkdIXYQTOyTqkM0bcI/uoMsdCY7BWh2jCio2LpF1OgvlQwFNAcUEEoxoALViV/ZS987JMwhX5Ghu0m8sxa94oe52GLMHcBjYhr/RTYY6FhmCpDtH8G+Z/IOe0kcxHAp4yBVDGAAourawBtJfUlRgBC8zWwZ2PTjGlAXAYsxKGiu8VODcba6VSNbaydJwifu4RmJx7XCo1h9pXyRwLDcFEHeIU1hR9ha/HRUg/baE4apS9kXwh4KnHpECj3tMdXBBBdV5rbppgjMkot5dpofc8A2j5K5hjoRFYqEO05C/HYfL7h9yH1ux9WCwrQ/hAwFOQUc+pFxpyUC/MEhZ1cOWje8xoAAi/8nW/4bE6F8NZXR2nMbT8Fcyx0DjmBBHEL4NlJMZa12FB9SkqObO5t4MDnoYJdOwq/YUW7hImGYFVHZS+ycYMHYIIzjmFhzIellK9PIjpZa6SculH7SsZoxtP5gQRzrrybvhs71fw9uPjYXBAR2UO14YLIujBoAaACjyaDS88+a4QHxYIfeReiAz6g/QIe9rhTqv7xjjr4mAYEthDn5htO8MFEdxhXANACdb/DKvm/Qde2lMPEDINFv/rRujjxUDwcsCba4zODBdEcI8Y7LNiYdo7O4Sf/miw/ncB3O3l/PFeDHhzjeFLcEEELXQKImiC0FK5Cf53eow92IMnwuK1r8Ls6/u0S2foMLA3j1lBBN+5aKW7mHTxZxSaUeGCCFqo7sqHzMDUguOON6MYoPZVMsdCUzARRPCdgCco2Cjo9EIzIzQPzvKuK4s6uPJRN6Y0AISOMHspRgVLd+VHP42ZupebGEftq2SOhR5jqjGU+FbAU6DpDWA6h27zq8UIzMKiDq581IUnGgCtKJeMUEeYivniFLT30PJXMMdCjzDVGGp8K+AJuvGjntdWQ/PkFGh67oZ6gtk6uPPRJZ5qAIgog10jS7SX0PJXMMdCw5hqDC18L+AJLoggPMeoBoAwYDm1/z2cIt5FpWD/Eis87giNoeUvXRTTQRvs5+rldyh+dyaEx6yCGssdsOCzNyHp1itMaqq2QOUnM+GyiW+AEPBQsXoCBEqPeAMjG0Cqq6vh888/h4KCArBarWJZYmIiDBkyBO68807DN4c8wdM6eLoBBCs+gWlDJsKqGguExC6DlEeGQ2+X0yk94bLBgyCwu3ASlsMn026HiXQfJmQ6pKRMh/DerqKjG5x/WShcE2h+StUrG0C8ow7hmz18Z8czH81pALQUpmCE5jnOzKcXj3lLHYIHvDfwzEczGgCKz1G3eTfgTd54qoI9uQXSMadrEgQTVu+nb4YBWwkTAmnYcg4ETlip8bgr2w+rJwTZ39oL0CCHIr8N9Mb+hJExfGfG0zF8Z0XL33ZYPMbh+A484Dl+BQ94jl/Bx/ACzsbw/gAfw3M4XRge8By/ggc8x6/gAc/xK/hFqwC/8dQ14RetHL+HBzzHr+BDGgE+pNGPKUEEsEFTZQFsycmFnwp3wy8nesHVA4Lh6uEREHH9ADfPNY7Tz1VtrLAdycYlU2dgcnalVOICWyMeK9yE6SkvSGIKybg89VPMKaoysLvGM7TagKyrYc5HsxoAqjTobSwQw+Pf82Czv2sc30c0x0ImNJdh5uwRwuu5X99sq9uLnyfLm7/VFopRCz7FIsaNocTxPe3mCqNiBN7AaB2M+ngGsxoALVi9ZZkU7MLnmbQaN+btwZKiHcJzl7SmcwmJz8Ayhtv/lH4qzLHQNG02dLtLkyx/MehcqTG2FmBxcQFuzXoTE8QehXZTvYdF5jbKOkXtv2xqKKA8FSNghZk6KH2TTRdmNQAafkTrCHosCCOtW7G2zcco/HIUvIOxYtCPxHnZR5il7VD7KpljoecIjlfn4wdttHxcBbxCHULMdLBTpfEjvF7Vd2iNpKDvj9GpheiNxA5q/2VTQpkCKGMABZdW1gDaTE2JjygQXWUVMIPZOrjz0SmmNABOY232fAyk8sBEzKrS+qWux8KUCWJ9jGcedo7aV8kcCz2iuQqLNr6OcfJPW0gEjhpG32oXAW8rwfQp9u1jAVMz8JCmozZsyF2CQ+g1GcqhKFH6rjQZ6jEp0Kj3dAcXRFCfV4U5SfZfcFcKIK17Xy3xOraA6kPtq2SOhcapx/zlY6XnC8OPyS9idtluXCPuhXQR8LXZODeQnjMUE7IOS4Ua1OdgUhCdF4nWPGdN5jlq/2WToSCjnlMvWmIEZmFRB1c+usdDDYDTuzF1DHWCQRidts/5cKU1FkZgUo6xPPjO0PKX0Tw8QsupJrCEPwjWdbnww3uz4ZZ+PcU5T5c0HIfDlXQQAFdc3FMs0uS8HtBLTBm+D/L2V4s1by8oJcasWbMgPj5eKnEP5WXfu3cvHDx4UCoxhy/UwWMNgObjULmXPuRLYNDlvZ3HRM+L4PJLhQERHIWyYw32Mi/AKODPgyuj34C9Of8Hj48fAgFeyxD8K+QdqILT0l/tARdE0IMLDYDqCtj7Kx1cAH0vdJEK++w+cMW1fxQOqqHkaK3XPmNGAX8uXBwyEAK7G3y5Xn3hSnGD+gH4af8xpz03VuyHn45If7QzXBDBHaw1AGqgsv6k137FGQW8h/S8GkZNCRMOiuGD5R/DDyc0vtd4HH5emwGZUnr0I/srxZ9NX4cLIvgmHRvwcBGMjHkIomjolrsIYmathM0HGlq/3dh0SLgeSIbZ/9kKfwwWLocEAi65ENo7lLggghZmBBE6jg4O+G7QffC9YH09DkKgHvalzYSb+4VA+J33wQMP/B1uGRIKN8R8BN3+/SIsjb1WfMYfevUQrhjajwEDBsAnn3wi/aWfvLw8GDhwoPSXOXyhDm3AWvjlwyS4d9wc+FAI9pDYV2Ht+4/BLYEan8x5PSHA3le5xtYAxw//Lhz0h+uDLgJvfW06OOAJCwy8/38he/MqmDuOxqmVsH39fyEtLQPy+vwDrOv+H2QkRcLl3Wziub3+cI6J8aFx/vznP4v/5+fni//rgWZGPvvsM7jpppukEnP4Qh1aaTkIXz83DaLuscKm+iAYnfQBZL1yPwy2OAnRXhfDFeK19mHYX3lCLNJECPjqYprN6Q69e/7Bq5+xOD+pNDbIOQndr6VpxdaI1aWFYtLV/KKDWCPnELeVYvrk/sZeywBabUAmw0KMwCws6uDKR114pAFwCDPjSL81ACNSdqHTFVEVGRgjvm40phS2WZjgMVr+CuZYyAYPAt4ZrTcl2DWGEq02IFNCN37MiBGwwGwd3PnoEo81ABqxKHWS+F7Olw0olh8EPY059bpe2C1qXyVzLGSDnoA/joUZr6HVasUV2eVO7sLRHbxEe2N00NICGS6IIDzHsCCCEM7FaXgXrZS0TMaUgjqpVEHzfkyPpV8BjYVnJtDyVzDHQjboCfgz6badfvsbd2JKFA1nAnDk8h3IRpS8LWr/ZdOCAowCim7by+fRMZXRY+2Bp3WQz1WaHkxrAChXW45eiFll9Wc6t+bDuG3ldAyh+gRMxbT97H7B1b5K5ljIBj0Bb8NTRakYLa6TVq+WtGFzzW5clyT9jIYvwpxq76yJ12oDsq6GZz6y0QCwHf0Gnx4tbR6xhOOkxEVoXfYUxo0OkZ4ThvEZJUw3+7StU6s5FrJB7xi+DovS4uzfcAjEsEn/xmRhiLMsaQaOluQNvanlSaj9l62r4ZmP8ufo+FznprWqUujAjm7D9+ZFqzb6WDB49GxcueUQ851tbevUao6FbNAb8AK241iUqdg102qhOG7uKtxcrvgJ9AJt3/OMdTV8w8fT2FhzEIvyaejzExaWVpkUwHOOlr803UkHbbCf2wG01ENlSQlU1DUDnHMB/PHKfnB57+5en3fnm7i7Jlr++lbAdxA84LsmWv76wJ1WDqf94AHP8St4wHP8Ch7wHL+CBzzHr+ABz/EreMBz/Aoe8By/ggc8x6/gAc/xK/jSAgG+tMBz8OjX8PwT6WC7fyE8eculUqkzmuF4yU/w3aYfYfevxbBbFEToD8G6xBSMo+WvVwPebWPYKmF7Zi6UGUgzdfaVI2B8WCDTnyYe8B7SUg6fJ94D418+CjEZ38DqCWJWLW1aKiA35Sl44NFVsE8qOoMFgqOS4M2VCdqZDzzE6eeqNiboEURozkNrsOP7u7Jga157rZuWHtXGqBiBNzBaB6M+usSIBoByiyAMxcmLP8Jv84uwrESpAUC7oZbhFoabfNS+knmnh285CNmLHoK7Fm6Aegh2/u0//Qu8+/BS2HhS+tsJtqpC+Gz9duG1gmBs6pfw+YOhTPOW6O3hGxsbYcOGDfD888/D0KFDIUBKuFJTUwNvvfUWvPLKKzBt2jQ4//zzxXJvYKYObHp4hJaan2HNwkSY8fJXwmdCuPiMiRNfw7zQW2FZZX+IWrEG3p8ZBpbWqgivV7EeEm+dAi/vuRjuSvsSMv4ZwuQXvB16eKOCCDpoLMS02GHC61gwdHYmHmIoiSKj9l82JZQpwIwYAQvM1sGdj27xRANAoDVvfEACZjrI4RC1mGeNtL/m5HQsZ/QRK/1UmGOhR3jYGC6xVeE2a7T45WH9c6dE7b9sMjRUMCtGYBYWdXDlo3s81ABQ5o1vowyipBkrMuLsrx1sxTxGY1alnwpzLDSOp43hihas3fYSRoobvMfg4tyqDtvTSkFmVozALCzq4MpH99QJvfAotIQ/iNZ1u6QETPq2cbaqe8AETCmsl0oV2Coxazb9igMGJGQhq9wPal8lcyw0jueN4ZSG7bhc1HYKwPAFm7DaW9EuoNUGZAQNE+jYVfoLLdwlTDICqzoofZNNP6fw2N4irJCzwYno/Ixt5Zj5cJj4fgGT38Ad1QqlLls9lmUtlBT+RuOCnKPMOja1r5I5FhrHRGNo0oBFqffarwNC5mBmhTekzM6g1QZkBA0PjPSsMpQjhlW6PVZ1cOaj5+j9jIVru4rvMCUuwv6ZBkdhQvIytFqfw6S4MfbxvSUSZ6fvUonamUPLX0bT2R4KIjgBq3Phbes6qIf+EP3EdLg98FzpkfaHCyKwoBucc+kwiJ7xCDwyOgigeB0sf2ouJCbOh0VvfAnFMBSmLHkKEqOvUczeeAcfXFrwO+z77G14bU89QOj98Ohdg4SvU+fDPwQRdCJmHI6Bm66fAku/6Qnj5r4OGdlbIC83G9atfg5iw4/CB4/+FQb9bQlkV7qZozaJ7wX87zvh45eodw+AkQ9PhIg+HZ9gnwsimKEZKrNehPgnM6DYcgcs2PgVfLb0YZhwywgIu+EWGB/zBLz9dRakxg6D+m+S4K4H3oSdv9Powzv4WMCfhurNn8JrBcKHa7lb6N2vAVG8rwPhgggmOV0Ea5e+A/uEDmzE08/CvFuvgHOkh2S6Wa6DqYufgqkBwhf7qzdh5dcV4oDbG/hWwONh2PLZBqC0+AH33w2jgzo63LkggmmO7oXc70iVazCMixjoVK6o22U3wIR/0HVKAXy157Cvq/gxoqYANn5YIBwMgcnjhkFfL1/A6OWZZ56Bhx56SLyt7w4659lnn4UnnniC6RIDX6iDOc6B8851NTztBYFX2RcY/n6sVriS8w4+FPA2OJH/LXwkKttGQGTYH72eYk8v1MPGxMTAlClTXAr9koDwo48+Kq5xIY1UlvhCHTyiVeOpDo7VNolFmgi/7r98VywcWODSyy8CFzLVpmkzT0nGBqPz8Iq7tdFpWOLFG01q1P7LpsZ/BRGcoeMztpVhxlQSOwAMiP0QyzTXQtmwseANjBJvPkVgUs5vUrk51L6S+U4Pj8dgzxZScgboHx4Cl/lK965gzJgxIAQYXHbZZfDf//4XLrroInHqj1Yp9urVC7KyssRe2Jv4Qh0M0S0Ixib8CyItwoj1ncchduF6KKlXjtCboabwE3hmVjKsqxeu3abEwwM3GFMcN4rDt4ANBnv4plxM7k/v78mdWXNotQFZV4O9jzo/Y9txLEidIWkACBY8BuOSnmt7p1Uwy+hFuLGiSXqSeZR+yuY7PXyrJn8QXHulfY03p4vQ7UIY/OAr8H3eh5AcMxIsxV/CG4vmn7nTGjwG4q3rYGvGPLiV4Y4nLXwm4E/XHIUS8agv9LlAPVPL8U2CYMLq/cLPxH7X2/tEzoO+Yf+AJ1d/C5VHS6EwL0+8T5BfdBBqCjZAyuPjYXCA9++p00iZuvo22H8N/Ae9O546O2x2PHUetPz1rXl4DsfL8IDn+BV8SCPgbEjjD/AhDYfTheEBz/EreMBz/Aoe8By/gl+0CvB5+K4Jv2jl+D084Dl+BQ94jl/Bx/ACfAzvOcYEEYTzmyphV24u5O3aD7+WlMCJXldB6KBrIfyWm+B/Answ3eWm5a9XA153Y2A1/PJVDuypt0kFTjj7ShgxPgwCGf8u8YD3ECOCCHAa6vdmgjVxPixcZ9/o0wZLJMx+60VY9I8hzJIxOf1c1cYEPYIIMq2bP9wYw8yySjTfSzBXGBUj8AZG62DUR5cYEkSw4anidJwaYhHOtWBwVBKmbczDorJiLNz6//CtBDm9uvdzS3qnh9criCCBpe/C3QNiYK0lDMbdNRguctaDn3cbzEv5J1zDODeT3h7ejBgBK8zUgU0P74EgApbDJ9Nuh4mrDkJI7Kvw6Sv3w2CL4kNs/aXIBYhcCYXrH4JrzjXfzbdDD++JIMJprM2ej4F0bkQKFnonBbxL1P7LpoSy8JoRI2CB2Tq489EtHmkA2LAh7wUcQecHxGF6WaNUrsSGJ/NX4EixTpMwtUjrHOOofZXMsdAjPBZEaMSi1EnicwLnZmOtVNqeKH1XmgwLMQKzsKiDKx/d46kGgKzuYcEhyVuwQSp1oPkYFu0swvKKI1jTJgu156h9JWN0+dcAO1+/Dwbd9i94Y1sdCI0B2Rv/D2Zeq2f3eS2U/rxX+D8Ihg/pBxfYC32K1NRUGD58OMycOVMqcc6NN94oJkBasWKFVMKGjq+DMJQ51QSW8AfBui4XfnhvNtzSr6f7WRVbBez8ipJrDYK/jQhxmnkMzrkYBl43EIICL4HejLJQO8PhW2AcE4IILfm4fBhdzERgcu5xqbB90WoDMoKGCXRM/xtBLUZgBlZ1UPomm3481ACozca5gfRe8lDlFNYUbcaM1JcwKSEOE5KsmJKejTsrGphdrMpo+cvoq3QeXBn9BuzN+T94fPwQCDAiMFt9AH7ZR8lT/wyhln3w2Svz4YHRA8ULjm7dBsIt8Usg7eu9cLyF6tv+7N69G4RxMfTpYyxXCmX9+vHHH6W/zOELdfBYA6DhOBymZKHQR+i5D0POC1Nh+KCbYOK0ObBo+RuwfFEiPHzPrTD0phh47uuD0CI+yXswCnhPBREQThb/DF+Il/qfw7zxo+HuR5+HtE2ydO0++OaNJ+GBW2+DuxM/gl/aJPBpH7gggjlaKkrge/GoFLKWxMG4xK+hd+xzkLYhB7Zty4EN770A8aNIJCEDnox+CJJzDotdsbfw7mDJLaegYt8vIKajqf9N+IQeg/Qtu6G8ogIqKg5CSf4X8FZCJFjgAGx6ORFmrsiFmo7p6A3DBRHUfAn/98ZeuMX6Eaz/v3nwz7E3wfXX3wRj73sMXs/8XMwPD/Ub4Nkn3oefum5+eATsOQBi74+C0VNfhbXvJ8HkEaHChUsgBAZeDn8aOgamvZQO31ijxaD/5snn4d2f7TO/7QkXRGBE5BPwXMKN0Fc15O1muRb+OX8mRFuEP3I/gI+2Vtkf8AIdHPDdYcCEhbDq3bXw9dsPtL0ZIdOtD4Q9+DBMD6Q/tsDHub96LXe4FlwQwRxn9/kjDBGPAmHMPX+FUM0bSt3g3JCbYeKtdOOqCL4qOOQn+eGd0K3Pn2HsP4YKRzXwXe5eOGovbhe4III5unXvCReKRz3g0t49nQdct/Og54UkgFEPJ061eG0c3ykCHqAnXHxFx+Wb5IIIJrgkGMKG0VjlFNQ2nPTqBakeOjbgW+rhtwN7Yef2nVB63NWEVAP8dpCUEgACAnqCd9NtOsIFEUxw9uUwJHKQcHAAcrbsgWPOIv7kESjZeUQ4GAp3XuuoA8USqkIbY4OOmxJVWZgQQO8ZhNFp+5zfeGjYgslD6OZUII5J3Y1sbjyfQasNyNRwQQQ1em4u2rAhdwkK43gEy2RMKaiTypU045GseRhK5wQkYOYRNktitfzt2B4+YAjcNpkuaQ5A9pqv4ZcmqpOaJijPXA3/S8p+AXdB3NjgDvtZ4oIIntANelx/DzwbHyYMzz+ExFnPQUZhleIGUzPU7EyDebNegz0QBJHPxMAtl3g3e7TDt4ANer79LVibu9S+kk7o5Ucv2IBlylvXtlosznxa0uHvj1EpO5HNOrq2aLUBWVeDvY86l48IvXxzxZe4YHSQ9L4hODruKVzWRhDBgiGx72BBHbvlsmpfJXMsZIPOxlCpQ1jCJmMi6fAvS8JZUWHSMmP6MnyJFZr6QOZR+y9bV4O9j3oD3o6tbh9mLX8ERwfT8FRRj+BonJu6GcsZrZKUafMeZ8yxkA0GGsNWj+WbV+HccXbxK6WJC9IyduBRLwU7oX5P2boavuKjrbEKSwt/wry8PMwr/BWrGQe6jJa/dBeADtpgP7cjaIH6ylIorjghHJ0F5/e5HPoF9QWLkcVoHqB3x1Nnh82Op86Dlr8+FvAdAw/4romWv53kxhOHwwYe8By/ggc8x6/gAc/xK3jAc/wKHvAcv4IHPMev4AHP8St4wHP8Ch7wHL+CBzzHFKQB8NyDD8Hirw9LJUZAaKn8Dt5+4QV44eUvoLQddud7dS2NIXUI/B0qd22FnC07YH9pMRyAy+GaQYNh2A0jIfzqS6C79nIXJvC1NB5iSBBBg5ZS+GTWJJi4cjtAsBXy9jwOYQz3fjj9XNXGBAOCCLa63fjpggnSRgC1heK4eR9hIcONAWoc39NurjAqRuANjNbBqI8uMSSIoEUDFqc/3LoPwhtiF2pfJXMsNI2RxrAdwqw59MUQzhU3AmzAvKIyLC/agd+uWYKTJdWIkPgMLOvgDSAUUBkZGeK+0enTp4t52snomM6nPaXeDnwzdVD6JptxPNEAUGPDxj2rcLK4n1myzhnwRhtDkSzfEo3WbVVCiZIWrMt/DaPELX6jMDm3Ripni9p/2ZRQFl4zYgQsMFsHdz66xWMNABWNOzElqr/wmY/BuBlj7K/V6QLeo8Y4htlzw8TzA+Iz8YhWB24rxfTJQuMIvfyw5fnCV4A9St+VJkM9plkxArOwqIMrH93jqSCCClsVbrNGCx1iEEZaN+OeNXH212yngGc0S+OhIAL+Af40/llIT10Bz90bBn21rjG69YLLBlKePe9mpHIFF0QgPBREaMNpOLE9Df7z7FqAqKfgpZl/gV7GXoAJDt8C45gQRHDHqV2YEkm/Gt7JSUNotQEZQcMEOqb/jaAWIzADqzoofZNNPx4KIiiwVW/CBeHCr35rfppmrMjolD28CUEEV7Qcgby3l8OLX1UChNwDs+5o/5w0XBBBxlMNAAmsgC8XzYeF2y6GKa8vhGmDhau8DoBR/JhsDCX1pbD1i88h492XYc5doyA8/i3YFzIVVqx+HMYGniud1H5wQQQWnISK9S/D7Jd2QcjURZB8T4gQMR1De3eYbjld/gUkjh0Pf4+ZAy+vJ8XmYRAzcwrcfnVfr+YbZA0XRJARxv7l62HRv1NgT8g0eP6ZaBjAQIPVU3wu4KHHYPjXmkzIyloH6W8thJjww5CWMAYGDX8E3i6sFQdi7Q0XRDBB8z74QLiAXrlvEMQ/nwBR/bpLD3QMPhfwZ/e/CaZMvBNuv308TJ72FKQKwxtRDmXf/8G0qa/AdzXtq/PEBRHMUA9F7y6GhA8qIXROMjx79586/Ffa93r4NnSDcwKGnZFD2fYh/Pd774peqeGCCCZoKYLMJWlQIwT+npfugD+eRcqMSjsXLpv4hv3c4kS4XhjqUPlVL2z3mpqfjwc80Q3OvWokRI2kufgC+GrP4XaVvCG4IELXoWMDvqUGSnduh61fb4TtlaekQg3O6gm9L+24CzAuiOAhZwfDxI/yxKGVtm2FLKtUx6AESNtqL/9oYjBoqH0xo83EPBkbdNyUaFVpDsYp6SWqdTQK6nMwKYjO44IInU8QwRWd9saTh1wwCG6KJkGEYsj84BvY10x1UtME5V9kQPoB4dAyGiZH9OuwnyUuiNA1cPgWsEHPt9+GDfkrMFJcDakliFCPZVkLJUGEAAxfsAmrvbBCWKsNyLoa7H3kPbxBukGPoVPh1dfjIISEhxfeAYMj7oW5i63wgnUBPHrXX2Hw2AXwTb0FQmJfglWJERDQcfcsOF0Eh28BG4x8+5vwaN77OI8LIngVf/BRiZa/1F/SQRvs53YA2ATHD5VD2ZE6LojgBbT87Go+KtHy17cCvoPgAd810fK3E9x44nDYwXt4AWc9vD/Ae3gOpwvDA57jV/CA5/gVPOA5fgW/aBXg05JdE37RyvF7eMBz/Aoe8By/go/hBfgY3nOMawD8CLl5u6Ck8iDsPwAQdNUVEDhgGETc8hcY2Jttthqnn6vaWGE7ko1Lps7A5OxKqcQAtgrMXhKPMcnZeEwq8hZabUDW1WDuoyENgF2Y3iartMqCJ2Ly53uxjuGiWM330SiQTjeJgcZwpAkPZSZiKNUnJgMrpFJvodUGZK4wKkbgDYzWwaiPLjGiAXBqL6ZPHWZ/T0skJqSsxZz8IiwrKcS8bz9Ga+xI6XVG4JysQ863ehpE7atkjoWmMaUO0YQVGxdJu5wE86GAp4DigghGNQBasCr7KXvnZZmEK/JrHAO6uRyz5o2yv9aQJZjbwCbklX4qzLHQc0yqQzT/hvkfJOIoOdjJfCTgKQuvGTECFpitgzsf3eKRBsBhzEoYKp4fODcba6VSNbaydJwifu4RmJx7XCo1h9JPhTkWeoQpdYhTWFP0Fb4eFyF9UUJx1Ch7I/lCwFOPaVaMwCws6uDKR/d4KIjQnIfWYHqOmzjQe54B1L5K5lhoHHPqEC35y3GY/P4h96E1ex8Wy8oQPhDwFGTUc+qFhhzUC7OERR1c+egeMxoAwi9/3W94rM7FLu2qLEwQNZ/CcG42m2kKLX8Fcyw0jjlBhOY8KwZbRmKsdR0WVJ+ikjO72Ts44GmYQMf0vxHUYgRmYFUHpW+y6ce8IIJzTuGhjIcxgOpkeRDTy05K5ebQ8pfRjSdzgghnXXk3fLb3K3j78fEwOKCjModrwwURZBhqAKjAo9nwwpPvQg1YIPSReyEy6A/SI+xhVHtzjXHWxcEwJLCHeBfM1+CCCN4F63+GVfP+Ay/tqQcImQaL/3Uj9PFiIPClBV6CCyK4Rwz2WbEw7Z0dwqVfNFj/uwDu9nL+eB7wOuCCCKxBaKncBP87PcYe7METYfHaV2H29X28/ivPA94NXBCBNaeh/pePIPHeGEj8cKcwjJkBqWtTYf4tV7SLWAIPeDdwQQSWnITKr/8X7ouaDi9vOgCW0U9DZtYLMHXwhe12/cYDXgdcEIEFQrBnW+G+6Hmwrljo2GNT4buMJ+HOAb3adbKCB7wOuCCCWaRgvysJvqkPgtELPoaNKbEwtIOmoB0m59lg5qaE79x4UsIFEdTo+YxteGr/ezhFvItKKdG/xAovJsZVouUv7+ENwAURPAAPQObiZPigRjgOuR3+cXMvqNj5E2zfvt2J/QS/VP5uf66XcPgWsKHr9fCdHfY+uv+MWwpTMELjfZ2b2WUKZ9B6fd7Dc7xICxzdkw/fSX/5AjzgOSYIggmr9ws/E/th9YQgqUzJORA4YSX9jBgwZ6/FBpoRoq6+DfTG/gTfxN010fKX9/Acv4IHPMev4AHP8St4wHP8Ch7wHL+CBzzHr+ABz/EreMBz/Aoe8By/ggc8x6/gAc/xK/haGgG+lsZzDAkigA2aKgtgS04u/FS4G3450QuuHhAMVw+PgIjrB0Bvgwm83KHlL9OAx6ajsPvHbyHnxyIo3V8BEBQKg67+H6+oO7CEB7yHtJTD54n3wPiXj0JMxjduVjkqt/lJRa0EQni8FVZZ74HBlrOlMvM4/VzVZpwWrCtej8lRoQ6vJVrwBFzw6W6m6g4s0ayzYK4wKkbgDYzWwaiPLjGkAdCC1VuWSTn/QzEqaTVuzNuDJUU78Ns1S3ByiEUot2BIfAaWMdz+p+WvYI6FxrBh86FMnB1KlRaeLwR3UtqXuLVwPxYXbsWst+ZI+d6HYWxaITZKz/Il1P7LpoYCigsieKAB0PAjWkdQ6vQgjLRuxdo2MS10lgXvYKwY9CNxXvYR4R3YoPZVMsdCQ9iOYPa8kfbnhszA1ILjqgqfwqotL2AkBb3lXkwtapDKfQe1/7IpoSy8ZsQIWGC2Du58dItHGgCnsTZ7PgbS+YGJmFXVIpUrqcfClAnia1qmpGMZo4hX+qkwx0IjnFFuCMWpGWVOvp01mJtMkiYWHJK8BX0t5LXagEyGekyzYgRmYVEHVz66x1MNgCrMSSKtL9cKIK17Xy3xmFHhIo+8AZR+ymZyWtIGdft3wia6CAkYB5NHXe4kqc6FcO3Nf4UgqIeCj7+H3SfpvTsPqampMHz4cJg5c6ZU4pwbb7xRTIC0YsUKqYQNHV8HhJZTTWAJfxCs63Lhh/dmwy39erpPomQ7Cvt++FU4CILhQ/rBBfZSB86+YiCMFH4GoH4n5O8/YS/0AqYDvuF4NVTSYZ9L4eJezq6wu8F5PSwgZv3e+QvsP9oilnYGKLHRrFmzID4+XipxDyVA2rt3r8uESUbwhTp4rAHQfBwq91KEXAKDLu/t/AvS8yK4/FLhqgCOQtmxBnuZF+iAG0+lcODoSenY9+GCCDIeagBUV8Be6uCFvr3vhS5SYZ/dB6649o/CQTWUHK2F0/ZS5pgM+LOhV99LhR8rgSO7YX/FKbHUkVNQsX83HJH+6kxwQYT2pgYq60+KA25vYDLgu0HPoTfDFHHs9Sksf287nNCoKdbvgrX//VoYwROHYX+l98ZovgIXRPBNzA9peg2HmAWTwSJ8M3OffARmvfotHGiySQ/SreQf4L2k+fCfn8+GYBqiQQBc4uqnzQfhgghdBwZjeAsMjl0Ar8cOE453QNqjo6Bf3+Fw5z8fgAf+cSsMuewGiHnrHPh3yhKIpSGacPHTq4f3RKtYwwURTHJeTwgIkI5dYWuA44cpp2R/uD7oImGw7B0YBLxA92vg/pTPYHPqPBhH3Xj9dlj/XhqkfVwEfWKtsG7ru5A0uh90E69EusMfGC8S8iZcEMEkvS6GK8RrbTdDWSHgq4tpNqc79O75B/fTnSZonZSXzQy2xiosLfwJ8/J2YtGBamyU7kTZytNxsvj6ccxuLLBCqw3IZGitCt3I0bNsgM6h2/x0+58lLOrgykfP0JMw9xBmxtEaqwCMSNmFWvdZRSoyMEasUzSmFLK5NanlL5seXkG37n2g/zXDICzsOhh4RQB0F7+qNqjbtxNy6DDizxB6SXuo+bCDCyKYoQ8MHH6t8H8N5OcUwiEKOwdscGJ3HnxFh0F/hsFXele1xOFbYIi6AsxYbkXrsjcx+4ATBWVbJWbNHia8dudcWiDDBRHU6EuJfro4De8S11JNxpSCOqlUQfN+TI+lXwG28aHlr2COhYZo2YUpEfYFRFPSSzTW0tiwseANjBLX24zD5fkaDncwWm1ApgUFGA0VaAGXfB4dU5DRY+2Bp3WQz1WaOXRqACgWGFpGL8SssvozcdJ8GLetnI4hVJ+AqZi2n113qPZVMsdCYzRgUeq99qWiDqslT2FN0VpMGh0kvG4Ahi/YhNXaq8s6FK02IOtqsPdRv+iF7eg3+LQYB8L7WsJxUuIiYVTwFMaNDpHqEobxGSXI8upO6afCHAsN01iIabE0ZBGeLztjfQ6T4sZgsPiaFgyJfQcL6pxesnQoav9l62qw91F/wNMvffPRbfjevGgpJmSzYPDo2bhyyyGmwU4o/ZSNLinpoA32c42B9Xtg/UorLHz2bdimvEcSHA1z//M4zLx3JAQZXYfRTvAtfu2JDZqOV0J52WGoazkLzr/oShhwZR9pcoMtWv4yC3g7CC31h6GkuEJwBuCcCy6FK/sFQm8fDXQZHvBdk3YI+M4JD/iuiZa/vt31cjiM4T28gLMe3h/gPTyH04XhAc/xK3jAc/wKHvAcv4JftArwacmuCb9o5fg9POA5fgUPeI5fwcfwAnwMb4CWGijJ+x42/fgL/FpSAid6DYAB/QfCsIibYcTAPuBLe9m0/DUd8LbK7ZCZW2YgU1R3uHLEbRAW6DuZC3jA6wGhpfJ7SHniUXg0bYdUpiQUoha/Civn3gKBPrJJ3+nnqjYjNOdZVeub3dkotOb51q4n7Xq6bgejYgTewGgdjPrYhlNFmDZF2qwRci8uXrMJ84tKsaSNBkAQjl682Wc2+ah9JTPdw5/+5V14eOlGcJ0tsgWqCr+B9dsrASyTIXX7O/DgQN9JxqS3h29sbIQNGzbA888/L26SDpASrtTU1MBbb70Fr7zyCkybNg3OP997m5DN1MHzHt4GJ75+CkJvfQ4qLZNgxXdvwsyhysSoJ6Hi8yS4dbwV9ljuh7Sdb8E/B5wnPdZxeKWHd48NG4vekxQeRuDszDLmO1vMotUGZErMihGwwGwd3PnonDrMs1J+f8CA+Ew8otWDN21D61D6jPvj5PRSxTbPjkPtq2SOhSyx1W5FayTtZfStnzslWm1AJkNDBf8WRDiMWQlDxfP7J+dik1TaFnm7H2CwNc8nOjWlnwpzLGSGrQq3WaPtG7xHLMXc2s65p5WCjHpOvcgZBVjCog6ufHRNAxamRNufE7kSC0859lq2qiycHUivORQTsg5LpR2L2lfJHAvZYMOG/BV2bScYjQtyjvrEz5wWWm1ARtAwgY5dpb/QgnpjVr08qzoofZNNL7aKdfiwOCwNwckpeVitUNuzNZZilqzoF74Ic6p9o2PT8lcwx0ImnCrE1Oj+wutZMOThdVjhq9EuoNUGZAQND4z0rDKUI0ad6s5TWNXBmY/6aMKKLW9IgmYWDB43C5OtlIDrTKoNy6hETC9Ui9p1HGpfJXMsNE8LVmU/haH0ej6q3KdEqw3ICAoYTwKXpgpZDWtY1cGZj3qxNR7EvPT5kt6qykJicEVOeWsuUV/AoY6CeWdpQXMRfLbiPdgDFgh95EG4K8T/EvN3LUEEuumUDc9Nvg2uv+c5+OaP0TA3ZQ1k5/4IudlrYfWyByG8Mg0evflG+NszX0FlC8WWb+KFgEf4fftaeGktCfv8FR6e8hfooz0d2mnwe0EEPAhZi+bBk+uELmz0Iti4+UNYGj8RbrkhHG64JQpiEt+Er7e+A7EhNfDNwmnwwOs7gDK9+yLsAx6PwOYPP4YC4dAy5Z9w13Wi7EenhQsiAJzevR6WpmwXjsbC09ZZcGug+qbS2WAZfC8sfv6fEAAH4Ktn0uBrH1VqZB7weCwPPltNay2GwP33RkBQJ+/duSBCCxzdkw/f0WH/myBiSC+x1JFz4bKb/gb/oP6tZifsOdBkL/YxGAf8aajZsQk+rBEOA26FccP/qLj93Hl55pln4KGHHhJv67uDznn22WdFYWCWSwx8oQ5w9h/g3LNdfKIBgXCVKGtUB8dq/SLgayD/603Cv8JwJvpmCOvbuYQPnOHfggjd4LyeFmGoIvB7NdT+LgvWOYIHfoHviumoL1x+kXdFDczgMHXjMS35uHwY3ZwIwui0fT57o0mNVhuQqfFXQQTboQycGkDnh2Js+n4nywbqsCBlsv3mU+gzmFN7WirvOLT8Fcyx0FPO6DhFYHLucanU99FqAzItKMBoTpzmt+Xz6NidGAFLPK2DfK7S9FGL+cvvsgez5Q5MytyLdcrerPk3LFjzH2l+PgSnpBXhKemhjkTLX8EcCz3Dhk25i7G/+Bq+J1zmCq02IOtqmPHRVrcTU2UNADGn+wxMWtb2Tqu4QHDBl1ihWHbQkSj9VJhjoWc0Y0VGnP01gq2Y13ni3cF/2boapn1sPox56YsxRlxeoHwd+gI8jNZ1u9qsselo2tbRbnTJTQdtsJ9rlN/hl5X3wuCH1wKMSYWiDQ/CQC/c1vIGejeAdHY83wCioqUejh0oh/JqmjE6Fy74YxD0u1xWbPQdtPxlGPCdFx7wXRMtfztJH8zhsIEHPMev4AHP8St4wHP8Ch7wHL+CBzzHr+ABz/EreMBz/Aoe8By/ggc8x6/gAc/xK/haGgG+lsYINmiqLIDc3DzYVfwrlOw+Ab2uCYVB1/4FbvnrUAjs7jt9qJa/zAIej/8CX329B9wlkzj7yhEwPizQp35aeMDrBGth79qXIfHxF2BdseMnbRmVCG+99iT845oLfWIvsxcDHuHk1ucgdMSTQNloXBFszYM9j4f5vDQK4awdaE/pjz/+CHv27BH/Dg0NFVNpyNkF2gNP6mAu4H+Hkg8fh7H3pMA+UvtImg+PRt8AIX2aoXLvFvjg+UWwfNMBgPBFkPPFfLgp4GzpeR2HFwP+JJS+Ow0GxLwPlrBxcNfgi5z24OfdNg9S/nkNdHxznEFvwFOQUTaAY8eOiRukg4ODxfLi4uLWvDGUXcCbgW+mDmYCHis+gWlDJsKqmmEQm/oOvDL1OrC0vhxCS8V6SLx1Cry85wKITPkS1scPgXOlRzsKp5+r2oxzDLPnhgnPDcCIlF3om0mxnaPVBmRKKKEpldEmamfIednpf29gtg5K32TTx3HMs44Vzw+I/RDLNHc11WH+8nH21x2TikUdv4e7jZ8Kcyw0zOndmDqGtn2F4dzsY1Jh50GrDchkKOU0/U1ZAtxB51LA6TnXCCzqoPRNNl20qnuMwuTcGqlQjQ2bj+3DnUVlWFFZ4xNJVbX8Fcyx0DBVWZggpnG4D9NKtPUhfBmtNiCToYwARrL3UqBRbnaWsKiDKx9dcbooFcfQ+YHzMdsH0m/oRctfJpMlpw8UQQ5lX+p/DYRc5jtylCygMfOmTZsMJTWi8XPfvn3h+++/l0rM0bF1sEH9wf2wiw6vvQqusAgh01INezd/Bm8vfxpmPzgbFrzwBnz49c9Q2eQ8SZOvwCDgT0P1gf3ClTuA5fYQsOxZB6888QCMvuoC8aKh21W3Q/ziNPh6bzX4ZnpN1/zyyy9ixi+j3HHHHeKFJAs6tg42aDheDZV0eOmF0P3IJnjh/ltg0M13w7TZC2H5quWwKDEe7rn1Rrhp8gvwdaVrPceOhkHA10Pxzh32+feN82H8n++CR5emwSZ5nrb4S3jjqQfg1rB7IPHDAqinH5ZOBKWpvuyyy6S/9DNkyBAoKKAcyubp2Do0QUVJkf3w6HpY8kAMJK7vCbHL0mBDzg+wLWc9vPfyIzDKIsTBunkQfd//Qs4x3+3azAc8HoN928rEw/ric+G6BR/AlqIyqKioEKwY8r94ExJGBQkPfgUvT38CVmz9TRxMcTohWavgjdzhYP0yA/4v8Z8w9qbhcP1Nf4P7EpZDppgf3gL137wAT6zuyvnhbd2g51WRcP+4O2Bq6ofw/jP3wIiB/SAwMFCwATB0zAx4ae3HYI2koF8PTz7+Afx8qvOEvMViEb+8RqGelXpYFvhCHewEQqT1GUgYcanqxiHlh58E85+IAgvUQO6Ln8LWE747nm+9gpWNPS1YlZWIgeLrR2NKoW9pPmm1ARkhT/G5k3VXM336dGbz8azq4MxH1zRhSdp90vmTMLWoUSp3xFaShtHieWNxeX69VNpxqH0lYzCG18PZ0Cf8VviHmHO5AHL3VImlnYErrrgCRo0aJcq964WEC+hO6I033iiVmKNj63A2dO8pq7j0gd4XOF8U0q17T7hQPGqCUz6s8+TwLfAKzXloDabXD8aYjHKp0DfQagMyGfmmj54e29lNH7OwqIPSN9n00JK/HIeJ57u5z1KRgTHieaPQmlcnFXYcWv4K5lioHxs21x3D8qKdmLe9BGtc3V1rvTnlO0rNMlptQKaEAo3K/HJpQW02zhVVtodgfOZBJ3n/bdiUZ8Wh9LoBj2FWVccvMNHyVzDHQv3Q2PwxFEYqwvNcfftt2JC7BIXLJ+E81+PAjkCrDcjUUM9JdzzpDiblYqfAo8CiYyojY92zqzFTBz0+alODucmjxPMtUW9ggda6AdshzJozQjwnID4Tj3TVpQW2I5kYL/bc/TEqZSdqhnLzfkyPDRVfO2BqBh7ygcZQovZfNmdQ0NFtflLHJqNjbwe6Gk/qYMTHtgi/5GUZGC9Kzwfh6HlrsKBaIXnQ/Bvmp87AEHpNy13CBWut9EDHouWvYI6FhrBVYe7iMfbnWu7ABVmlbRYO2er2YmaSpMNvmYwpBR0/tlOj9l+2roY5H5uwYuOiMyrcwWMwLuk5lSDCMIxN3dlWHaQDUfqpMMdCo7RVhwjEsEn/RtLhX5b0CEaFScnz6cuw8YATfaCORem70roa5n1swbriL3B5/BgMbvM6FgweNw9TN5f5vPQ8ow0gwnOayuH7/74Ozy95Dda32f4VCOGx/4YnZsdA1NBLfGqnk4zeDSCdHTMbQNpig6aaA1BS8hs0wllw/kVXwoAr+/ipIEJLPVSWlEBFXbPwx/nQp18/COpr8clAl+EB3zVpn4DvhPCA75po+dtOd1o5HN+ABzzHr+ABz/EreMBz/Aoe8By/ggc8x6/gAc/xK3jAc/wKHvAcv4IHPMev4EsLBPjSAjOchMrNH8L7PxyFc66dCLNu/5PPZIbW8pdpwGNTJezashm2/LQXSvdXAASFwqCrh8ENN4fD1Rd3F9/MF+EB7ykILeWfwqzbHoCV++p9Lve/FwP+NNTvzQRr4nxYuM6eoL8NwdEwb0kyPDVpiCKnuO9gNOA9ESNgjSd1YB7wzfvgw7jJcM+qHeKfnSHgmYzh8ehXsCD6n0KwH4TgcfMgNWsbFJWXQVH+Jliz+F4IKV4LSyfHQuKnpZ0yv6QMBdmMGTNg5syZYvq7v/71r6LRMYkQ3HXXXWJ6DG/iC3WwUw9F7ybDw1KwdyboK97GjHEmWb4l8iXcVqvarW6rwfwVk+xb/IYswdwGH9vQKqD2XzYlZjMGsMBsHZS+yeYZNmwseAOjLPSZT8UZY4PE1xJ6eJ/a0ab2VTLHQkPoSOFgK0/HyeJr+0ZGKjVabUAmQxum6W89G7XpXK2cMGZhUQelb7J5gq12K1ojhSC3RKN12w5cExMsvpZfBLytrhg3Z6Zj6surMKfSibv1OZgURK/tGwl61Gi1AZmMvwsitMFWhdus0cIvtpylohwz/Cng3WPDU4UrMVJ8bd/LSUNotQEZIfeWRvFGbkmjsMktqaQFq3MWYbjwvDP5aTpXwHv5xhNCy7Ef4W3rG/AVWCDk4X/CHSHdpcc6B1wQ4Qw0ObHooaWwLWAqvP7i/TDY13Zt68ALAW+D+tIf4IvPM+DdFY/BXSNug/h39kFIzFJYnTQGAjtZG3WsGIEdX6gDtJTD+ucWwkt7QmBqyny4J7iH9EDnwgsB3wTlXzwHY8f/HWISXrKn7AiZBDNjboOr+3Yt/Sf/QfhM170I/355F4TEPwXPTLyqwzVYPcULAX8W9BgcA2syN0BWZjq8tSgWwitXQcJtYTB8RhoU1p+WzusccEEEhObiDHhi+nLYFzINnp//N+h3TucbyihxGNiz5RRW56dirJiXMADDF2zCah+bitdqAzJCvmD0W0GExgJMnUyp9EbgnKxDGtPOfJZGgwYsSr3XfvMpIAEzj/hSs7gOeMKfpyWb86yqtHp6rMvmh9dPq7itD87Fa7UBmQz1sPS3nh5b7o3VN31k6HG6U0oZfymIlUYBTY9rwaIOSt9kcwcP+DbYsLmmFPPztmD2+jyscCXS7GPqEEq02oBMCQUalXl6W7+oqEgManr8lVdeEc+hMtnob2WOd63XoDIzdVD6Jps7bDUluD0vD/Oc2nq0jrMvLQhKSMOtYlk+ltR0/K+42lfJHAv1cxprs+fbxcosD2J62UmpXI0N63OexiDx9f1LEIHG3dSbUxDS+XrG4fSa9Fr0XurzPamDjB4fjdO5xvB0uU0HbbCfqw88+jn8K3Q8rKzpD9Gp6+HjB69xnLJqKYVPZk2CiSu3gyU6FbZ/PBUGnus7V/reWh7c2NgIjz76KAQEBMCzzz4L559/vvSIe+i5qampkJaWBp988okobKbEJ5YHixyATx4YDRPTijvF8mBCjHylGaMW85ffJQkeaAgiNJZi1gJJEAFG44Kco5oLzDoSrTYgMwP1zDRLQsMXM9C4nn4djM7QaMHaRzv+OEvTWIhp7gQRfEwdQonSd6WZgQKdhh4sYPVarH2046/Tks2HMe+9+TgumObbla8XiOGxVszIP+JTjaGkbX3PmKfQRSirXpmg16GxudaFqBFY+tgZ0PKXBjl00Ab7uZ6BTTVwqPwAHPFjQYS5c+fCDTfcABMmTJBKzPP999+D1WqFzz77TCoxjnfG8L6Llr/MA74zwjLgq6ur4aKLLgKhVzZ0kaoH2r5H2/g83TvLA94ra2n8m7y8PFi8eDHzYCfoF+Pnn3+W/uJ4Ag94xuzdu1ecIvQG1113Hbvlvn4KD3jGlJeXM1slqaZHjx7iF4rjOTzgOxEDBw6EtWvXSn9xPIEHfCeCevfo6GjpL44n8IBnTL9+/bw2zqaZH+rlOZ7DA54xFJDy+hbW0AyNt64P/AUe8Iy5/vrr4cknnxQXf7GGFpHRTA3Hc3jAM6ZPnz6QmJgIGzZskErYQHdaifZM2NoV4QHvBaZPnw7PP/88s16eXoeWFdAXiWMOvrRAgOXSAplXX31VnJNftmyZVOI5rF6LxdICUQMgNxfydpVA5aESOACXwVWXXwYDhkXALSNCoLcPZTRw+rmqjRW2I9m4ZOoMTM6ulEp8E602IDMDrXDsWuvhW7CuMB1nj7Jv53M0CwZHLcbPi2t9Zr+DVj2918O3lMPniffA+JePQkzGN7B6QpD0gO9htIf3vx1PCM0lH0Hc2Omwal89WEbNButjE2DEwCDo1VIFB3Z/A6uWvgjvbKsUKjIPsr5Nhtsv6fj1se3XwzcfwI2tu5yCMSajXHrAN9FqAzI1tJ+Uem15PymtT++IPa1G6yCjx0dNbEcwe95I8XxL1GuYX6fSAKDN/BUbcF54gHCOBYckb8EG6ZGORO2rZI6FniM4Xp2PH8yOlIKdrGsEPAUVlXmaMUBP1gIql4NW6zWozEwdlL7JpouqLEwIoPPDcG72MalQzUksS3/Q/rn3X4y5TR0/sNHyVzDHQo9orsKija9jXLi0pS8kAkcNo2985w946lXpb2c9pxI6lwLO2bn0OAWsp3lpzNRB6ZtsejiTmyYOMyqc71vTe157oeWvYI6FxqnH/OV22Rv6SQuZ/CJml+2WlCE6f8DLwagXCjTqpVnCog6ufHRPM9Yd+w3rmp313C3CD8FjGECvGzgfs2tdJSlqH7T8ZTQPj9Byqgks4Q+CdV0u/PDebLilX0+flak0Al0cbtq0ydB2Pbpw7Nu3b+vNIrP4Qh0AzgHLxReBxdm0Ix6CTR+uhxrh0DJqKFx1gW/e4mFUq/Pgyug3YG/O/8Hj44dAQCfPLquECyLooQWOfvk6PLmKZoxGwiPTR0OQj4YAo4A/Fy4OGQiB3bvejVsuiOCO01Bf+D7Mm/Ua7CGVl/jH4F839/XZX/euF6GcdoSC/T2YdfdMeIfm5yMXwX+XRvt0/nge8G7gggjOOAmVOa/AdDHYAYKjlsLa1Q/D9b3Olh73TXjAu+Gaa64R73YaXQhGqyWDg4Olv8zhC3VoA9bCLx8mwb3j5sCHQrCHxL4Ka99/DG4JPE86wXfhAe8GuqU/atQoQ8t9Sfr92LFjcOONN0ol5vCFOrTSchC+fm4aRN1jhU31QTA66QPIeuV+GGzx7Z5dicNcJRvknINd58aT1t1LNc5u+piFRR2UvslmiDZLRihX6Hasdjov3/Fo+SuYYyEbuk7AE2Zv67PAbB2UvsmmG2Wwa2SJ9kW0/KXLaTpog/1cs8h5w6HLrJakG0ArVqwQswfQTaBLL70UevbsKc5104pGwkwqPD2YqYPnqyV/h+J3Z0J4zCqosdwBCz57E5JuvcKn84USWv7ygBfQG/AynizNZY0ndfA04LHiE5g2ZCKsqrEIF6jLIOWR4dBbu8kkesJlgwdBYAcrdTv9XNXGhq41pOkKeOZjAxamRGs+17n57uIxPkvDcUMV7MntOvksecBz3BAEE1bvF4c++m0lTAj0zRE+DXKoq28DVdqfMDqG76x4OobvrGj5y3t4jl/Be3gBZz28P8B7eA6nC8MDnuNX8CENp8ujHNrwHp7jV/CA5/gVPOA5fgUPeI5fwQOe41fwgOf4FTzgOX4FD3iOX8EDnuNX8IDn+BU84Dl+BQ94jl/BA57jV/CA5/gVPOA5fgUPeI5fwQOe41fwgOf4FTzgOX4FD3iOX8EDnuNX8IDn+BU84Dl+BQ94jl/BA57jV/CA5/gVPOA5fgUPeI5fwQOe41fwgOf4FTzgOX4FD3iOX8EDnuNX8IDn+BU84Dl+BQ94jl/BA57jV/CA5/gVPOA5fgUPeI5fwQOe41doBrxSuZjD6UpoSs9zOF0VPqTh+BU84Dl+BQ94jh8B8P8BMf/bkkZEZckAAAAASUVORK5CYII=;" vertex="1" parent="1">
          <mxGeometry x="507.93" y="85" width="108" height="470.49" as="geometry" />
        </mxCell>
        <mxCell id="Sr7Jv7LxJJs2jSXWzshQ-2" value="" style="shape=image;verticalLabelPosition=bottom;labelBackgroundColor=default;verticalAlign=top;aspect=fixed;imageAspect=0;image=data:image/png,iVBORw0KGgoAAAANSUhEUgAAALwAAAMzCAYAAAAcR3g7AAAAAXNSR0IArs4c6QAAAARnQU1BAACxjwv8YQUAAAAJcEhZcwAADsMAAA7DAcdvqGQAAJBOSURBVHhe7Z0PXBTV+v8f+3Mz3Uwsu1FhXgmltLx+CW8adbXC7JpQer1mdQlTg24aegvNW1gpWrp9K+0P1jcyqW5UUin5k0rKsMQSExNSVCBQwT8BIhAouM9vntkZHGZnd2d2zsLCnvfr9ehwdnb3PGefPXvmzDnPpxsKAIdjgm7duklHvg/VlAc8x284S/qfw/ELeMBz/Aoe8By/QnMMb/Q6VnnRwq+BOb6C1sW06R5e/aKd6Yqd43/wIQ3Hr+ABz/EreMBz/ArTAc8vUjmdCSY9vBz09D//AnB8GT6k4fgVPOA5fgWTgJfn3ul/Pg/P8WVMBzwPcE5ngg9pOH4FD3iOX8EDnuNXmA54Pu/O6Uww6eH5jSdOZ4EPaTh+BQ94jl/BJOD5jSdOZ8F0wPMA53Qm+JCG41fwgOf4FTzgOX6F6YBXz7vzeXiOL8Okh1feeOJwfBk+pOH4FTzgOX4Fk4DnN544nQXTAc8DnNOZ4EMajl/BA57jV/CA5/gVpgOe33jidCaY9PD8xhOns0BTLA5R6kng0mwND3iOXhobG+G9996DkydPSiUAvXr1gkmTJsH5558vlXhGRkYGVFZWwqxZs6SStlCUtjFPMPNcjn/x+++/4/jx49vEHFnfvn1xypQp4uOesmjRIuzZs6fDa8tmuofXmoc38nwOx1toxSafpeH4FczG8ByOr8F7eI7fwwOe41fwgOf4FXwML+DPKz678mfNx/Acv4cHPMev4AHP8St4wHP8Ch7wHL+Cz9IIOJul6WrtoOWneR9PQuXmD+H9H47COddOhFm3/wnOlh5xD0JL5feQ9v5WqD7nWpg463b4k/4nu0XLXy8HvIHGwN+hctdWyNmyA/aXFsMBuByuGTQYht0wEsKvvgS6a8ckE3jAe4oQsOWfwqzbHoCV++oh2JoHex4Pg3OkR93SUgqfzJoEE1duB+HJkLfncQjT/WT3OP1c1cYGGzaXZWB8iEV8TaExsFl6RI2tbjd+umACBqvqYbdQHDfvIyysa5HOZo/je9rNFUVFRW3MzJJWTzFaB6M+uuXUXkyfOqz1tVx9xo40YHH6wxgi1yXYinn6n6wLuV4qcyxkgt7GsB3CrDkj7OcFR+Pc1A2YV1SG5UU78Ns1S3Cy+IWxYEh8BpY126QnsUWuo9rUUEBlZGRgeHg4Tp8+HRMTE0WjYzr/lVde8Xrgm6mD0jfZPKcO96TGYIDitfQHvA0b96zCyQGKunTugNfbGDZsyHsBR9A5lmi0bqsSSpS0YF3+axhlodcYhcm5NVI5W5S+K03JgQMHMDo6WgwuOlZTVVWFixcvFgNR63EWmK2DOx/1IwRswRvi52KJnIozxgaJr6U74Bt3YkpUf+EzH4NxM8bY69J5A95IYxzD7Llh4uMB8Zl4RKsDt5Vi+mShcYReftjyfOErwB6l70qToR6TAo16T3d89913Xgl6FnVw5aMRbLVb0RopfK5iJ7UD18QEi6+lK+BtVbjNGo0WCMJI62bcsybOXpd2Cnjm05J44kd4dU4yrINoeHrJo3D7JX+QHtEA/wB/Gv8spKeugOfuDYO+WtcY3XrBZQMDhYN6OHGqRax1e5OamgrDhw+HmTNnSiXOufHGG+GJJ56AFStWSCVs8IU6iGA1bH/zOXj2q7MhyroQZl5/kTjzoY/TcGJ7Gvzn2bUAUU/BSzP/Ar30P5kZDt8Cj2n99vbHqJSd2IjlmGHk26/FqV2YEhkovEYgjkndjaelYpao/ZeNoGECHdP/RqDemFUvz6oOSt9kM0YLVucswnDheZaoN7CgkX6S9X/GtupNuCA8QPhlmIwpBXVCSTNWZHTaHv401Hz3Ovwrkb6982FJ7LXQXXrEY1qOQN7by+HFryoBQu6BWXcEt/udst27d4MwLoY+ffpIJfqYMGEC/Pjjj9Jf5vCFOhB49CtY9NBS2BYwFV5/8X4YbGSuGCvgy0XzYeG2i2HK6wth2mCL9ED7wix+TDWGkvpS2PrF55Dx7ssw565REB7/FuwLmQorVj8OYwPPlU5qP44cOQKhoaHSX/q57rrrYOvWrdJf5vCFOkBLOax/biG8tCcEpqbMh3uCe0gP6OEkVKx/GWa/tAtCpi6C5HtCoP0/STtsAt5UY7TldPkXkDh2PPw9Zg68vH6PUDIMYmZOgduv7qv/hoYP0KOH523ACnZ1aILydS/Cv18WAjb+KXhm4lUGApZuTq2HRf9OgT0h0+D5Z6JhwLkdMHCXYBDwZhpDgx6D4V9rMiErax2kv7UQYsIPQ1rCGBg0/BF4u7BWHIi1N/X19dKRfn799Vfo16+f9Jd5Oq4OCM3FGfDE9OXCL60QsPP/Bv3OMRCwzfvgA+ECeuW+QRD/fAJE9TM90DWNw8BePzY8tf89nEI3EEISMKOsUSqXMXvRasPm6u2YGivdwApfhDnV7Ccmlb4rjdixY4d48WcUmg//4osvpL/MwaoOznx0SWMBpk4OEc4dgXOyDqnukxCuPmP5fowFQ+ds0Jh2bv+LVsEcC3VjqjH0InypilIxWrz5NATjMw9qvI851P7LJkPBRkGnF5oZoXlwlnddWdTBlY/OaM6zOlny4cpGoTWvjp6M1mCtx12b57HSFq3XFsyxUC+mGsMIp3dj6hiammTXGEoc62g3GQo0vQFM59Btfrr97wwKRro5ROfIRj0xrYdxBos6uPLRGV0t4GkwRgdtsJ/rnpbtL0Do9YlQLP2tj1FgzcuEx8MswgvUQGlhCRypqoFzr74ZwgKd3aQ6AJ88MBomphULv3wGV+TpQM9qyVdffRU2btwo/n/FFVdIpW2prq6GefPmwdChQx1uEFHy0A0bNkBaWpr4N91EUs68VFRUiK9P/9Nz77zzTodpSLN18GS1JB4vhR3F1Y5B0soR+ObpeEhcfwCCEtLg439eI3w250Cf4MHwpwvroXRHMVQ7fXIL/PbNMhib+AkIT4a0j/8J1wgfbLc+wTDsT70N3NDShvlqSVtNCW7Py8M8p7YerePsSwuExsCtYlk+ltRI39/abJwbSO8ZjFPSS5wPVepzMCmIzvPOzSe1/7KpoV6Yyun2PvW4dCOIelPqmamMeuDVq1dLZ59BvtVPa2Bc9eIE9f7ya2n9SnhaB0Lpm2zmMTNs7WxjeLe4aQzbQcyMHyI+bolOxaJTWiHfiGUZCfZlpJZ7MbWoQSpnh9J3pWlBAUYBRcErn0fHVKZ1J1QOQneBroYCn4YldOGpHsYYrYOMfK7SzMMDXoG7xrBhQ/4KjBQvSINw9IINWNao6L9t9ViWtRBHi48HYPiCTVjN+opVQO2/bGahYKeg1TPu1kIei5OxwBs+draAb+879Sq6QY+hU+HV1+MgRBinf7PwDhgccS/MXWyFF6wL4NG7/gqDxy6Ab+otEBL7EqxKjIAAswO7duLLL78Ux9u0gMvTBP/0PHkBmDz255jH4VvADr3f/iY8mvc+zhsX6lAXS/iDaM3YgUe9tPmDUL+nbJ5CwwpPhjHOYPV6LH3sDGj5S/0lHbTBfm4HgE1w/FA5lB2pE67fz4Lz+1wO/YL6gsXInT0P0DNLYwSaRSH0LOXVyyeffCKui1m2bJlUYhxPZmk6M1r++lbAdxAsA56mH2kNi9ArG17d6Ap63b/+9a9i4DubknQHD3iel4Y5wrADhItMpsFO0Hg+JiaG6XJff4QHPGNKSkrgjjvukP5iy7Bhw9gt9/VTeMAzhgJywIAB0l9s6du3r3TE8RQe8F7AW2vhg4KCwGq1Sn9xPIEHfCeCLoTDw8OlvziewAOeMb179xY3XniD33//HUaNGiX9xfEEHvCMoRWQe/fulf5iC+tdVP4ID3jG0LJfWlLgDT7++GNxpobjOTzgGSPfFPr+++/F/1lB69x37twJ//M//yOVcDyBB7wXSExMZD6b8vzzz4vZxDxdiMaxw5cWCLBcWiAzY8YMuOmmm8S7o2ahX4s5c+bAt99+ayrgvbO0wKgGwI+Qm7cLSioPwv4DAEFXXQGBA4ZBxC1/gYG92Warcfq5qo0dTViRsxqF3g5fyioxlgjVVoHZS+IxJjkbj0lF3kKrDcjMIG+ipt1OZqDXobqwWHmp9o/MHEY0AHZh+uxItKjev9WCJ2Ly53uxjuGiWM330SiQTjeL/sZwpAkPZSZiKNUnJgMrpFJvofZfNldQACpNa5OHHPSepuuQtwY6+9LoqYMSoz66Ra8GgPI8SyQmpKzFnPwiLCspxLxvP0Zr7Ejpi+As+4VnyPVSmWMhEzxWhxB+FTYuknY5CeZDAU8BRftMKQhpFxJtqyOjYzqfdjipg46CnlJs0Hmutt8pofNoax+9jzo1hyd1kFH6Jpvn6NUAaMGq7KfsnZdlEq7Ir3EM6OZyzJo3yv46Q5ZgbgObkJfrpTLHQvN4qA7R/Bvmf5CIo+RgJ/ORgFcGLh2rUQap+nE5SOk16RzqsdXBT+dQcFPA0nnuvjxG60AofZPNM4xoABzGrISh4uOBc7OxVipVYytLxyni5x6BybnHpVJzKP1UmGOhOTxRhziFNUVf4etxEdJPWyiOGmVvJF8IeAo8CjQKQnfIwxCtgKPXoeENBazW+1E5Pa71S8CiDlrv6QmGBBFac9MEY0xGuVSogd7zDKD2VTLHQjN4og7Rkr8ch8nvH3IfWrP3YbGsDOEDAU9BRj2nXqg3p+BlCYs6uPJRNx5pAAjXc3W/4bE6510eVmVhgqj5FIZzs9lMU6h9lcyx0GM8FEQQs1tZRmKsdR0WVJ+ikjO72Ts44Km3pWOtXtcV1Btr9fKewKoOSt9kM4Y5QQTnnMJDGQ/bh8CWBzG97KRUbg61r2QMbzx5Lohw1pV3w2d7v4K3Hx8PgwM6KnO4NlwQ4QzMNABU4NFseOHJd6EGLBD6yL0QGeRCJskkzALeTGOcdXEwDAnsYTq1mjfggggSDDUAlGD9z7Bq3n+E160HCJkGi/91I/TxYiCwCXgvNUZnhgsiuEcM9lmxMO2dHSBc84H1vwvgbi/nj2cQ8N5pDF+CCyKYEETQBKGlchP87/QYe7AHT4TFa1+F2df38fqvvMmA90Zj+Ba0P5VSYxglLy8PBg4cKP1ljg6tQ9Mv8O6Tz8IHNSNgzitzGfTAp6H+l48g8d4YSPxwpzCMmQGpa1Nh/i1XtJukkcOVrG68JojgO7M0BM12qO94uoJmRmgeXH3jyAws6uDKR2ew1QBoworspRgVbF9uYhn9NGYW12rEDRsc6yWaY6FevCeI4FsBT4GmN4DpHLrNT/PgLGFRB1c+OoPdZ6xcMmLBkNhUzBenoL2HVt0YTkt2Xf785z+Ly3ynTJkCBw8elEodoU0ajz76qChGQFOCLOmoOpwtjK8/EoZGNDzStvVgHRcknkuCCFvFspdhYrBy6HMSKrOtcN9dSfBNfRCMXvAxbEyJhaEdNAXt8C3Qi2lBBKf4Vg8vY0aMgBWdTxBBIXwnpkT/Eiu8mBhXidpXyRwL2dE1xvBKKMA8ESNgiad1kM9VmnncfMa2MsyYKmWFDpmOKRu3qjpFtW3Hwgo2ohdKPxXmWMiOrhfwnRnv+Oj6M24pTMEI1Xu6Nu8uHuNjeI4XaYGje/LhO+kvX4AHPMckQTBh9X76qYD9DuqK50DghJXiY/ptP6yeYL8I9gZ0l4i6+jbQG/sT3tjE7Yt4ZxO376LlL+/hOX4FD3iOX8EDnuNX8IDn+BU84Dl+BQ94jl/BA57jV/CA5/gVPOA5fgUPeI5fwQOe41fwtTQCfC2NGQwIIoANmioLYEtOLvxUuBt+OdELrh4QDFcPj4CI6wdAb8YJALT8ZRrw2FQJu7Zshi0/7YXS/RUAQaEw6OphcMPN4XD1xd1dp2DAJvht9w+QnZMH+0uL4QBcDtcMGgzDIm6GEQP7eHVHOw94T0FoKf8UZt32AKzcVw/B1jzY47BiUka5zU8qaiUQwuOtsMp6Dwy2OP+6GMXp56o247RgXdGnuCBK2tmituBonPfhLqfqDra6vfh58kQnm4VDMWrBp1hUZ0g/xBCO72k3VyiFCMj0bK5mjdE6GPXRLbo1AFqwessyaQO38HkmrcaNeXuwpGgHfrtmCU4WRTMsGBKfgWUMt/8p/VSYY6FRbEc24JxQe6WDx83D1KxtWFRehkX5m3DN4nsxRHzdMIzPKHFskOYyzJw9QnpvqTG2FmBxcQFuzXoTE0bRnlja5f4eFonJO9mj9l82NRRQlAmA9o0aFSNghZk6KH2TzXMMaAA0/IjWEQHCOUEYad2KtW0+RqGzLHgHY8WgH4nzso8wS9uh9FNhjoXGOI551rHi8yyRL+G2WlVPbKvB/BWT7HnfHdQdFOoQMAxjU3eqfgVs2Fz1nT39NvTH6NRC9EZiB7X/simhPC+UG4aCSysrMO0ldSVGwAKzdXDno36MaACcxtrs+RhI7xeYiFlVWr/U9ViYMkF8DcuUdCxjFPFKPxXmWGiI2mycG0jPG4LxmQc1v5228nScLL72WFyeXy+VCthKMH2KfT9kwNQMPKTpqA0bcpfgEHo+QzkUJWr/ZZOhHpMCjXpPd7gSRDADizq48tEIxjQAqjAnyf4L7koBpHXvqyUeMyq0B0ZGUfopm+lpSTyrP4x/Mx1SX34M7r3+j5oXpt36XAYDxV1bTXCqhd5Xoq4UftpULBwMhZjJN8JlmtcY3aDHtRFwNz2/4Bv4bnedvbgdSU1NFRW2Z86cKZU458YbbxT1VFesWCGVsMEX6iCC1bD9zefg2a/OhijrQph5/UWuJyNsR2HfD78KB0EwfEg/uMBe6sDZVwyEkcLPANTvhPz9J+yFXsLhW8AWG54qXImR4mtPwtSiRqlcoCIDY8RyN9nIWuVQ+uPk9FLNXxEzaLUBGUHDBDp2lf5CC+qNWfXyrOqg9E02Y3ggiNCUi8n96b3cKHu05OPyYTSO79RZCxBajv0Ib1vfgK/AAiEP/xPuCDGTjPNXyDtQBaelv9oDLohwBo80AKorYC918ELf3vdCF5/92X3gimv/KBxUQ8nRWq99xl4IeBvUl/4AX3yeAe+ueAzuGnEbxL+zD0JilsLqpDEQqGyjXn3hSnGocwB+2n9M/ApqgRX74acj0h/tDBdEkGg3DYAaqKw/6TQWzOKFgG+C8i+eg7Hj/w4xCS/B+mJSdpgEM2Nug6v7qqRMel4No6aECQfF8MHyj+GHExrfazwOP6/NgEzpZsWR/ZVCk/g+XBDBN/FCwJ8FPQbHwJrMDZCVmQ5vLYqF8MpVkHBbGAyfkQaF9cqgvghGxjwEURbhMHcRxMxaCZsPNLR+u7HpEPzwXjLM/s9W+GNwgFgWcMmF0N6hxAURuo4GgBcCvjv0v2kCTLxzLNx+52SY9tSb8MV3qRAbArDvnTkw1fod1LT+XnWD7oPvBevrcRAC9bAvbSbc3C8Ewu+8Dx544O9wy5BQuCHmI+j27xdhaey14jP+0KsHnCcetQ9cEMGkIMJ5PSHA3le5xtYAxw//Lhz0h+uDLnKxHsc84tWr0tjTgEWp99pvPgUkYOYR1bW8rR7LN6/CuePaLk2whD+I1nW7sLr5OOYmRwhlFhy2PB9ZLzJQvqfSZGi2w6wYgVlY1MGVj84wnR++dYYtFOMyD9nLtNB7ngG066ZR6A1OF6XiGPH1XUxB2hqxurRQzCKbX3QQaxpPS+WlmD65v/BcdlNWSrTagEyGhRiBWVjUwZWPzjAviHAIM+OoIwvAiJRdzjur1inqaEwp9F72YJNDGoSW47/Czu258PX/2w6VNqlYg7Mu6A2XSsdO6dYdAvpfA2FhYTB04OXQu7tUvboS+CmH5raGwIjQi+xl7QgXRFCLICjNnSBCHxg4nIajNZCfUwiHKOwcsMGJ3XnwFR0G/RkGX3m+WOotHL4F+lGsk3CpoGzD+pynUWgW4fWVN5+OY2HGa2i1WnFFdrmTG0otWJWVaH+PDlpaIMMFEbRwnxL9dHEa3kUrJS2TMaVA49e9eT+mx9KvgAWHJG8RBsBsUPsqmWOhEWxHMjFeVHdwsbiruQQz4sPE17ZEp2LRKTloG7AwJdpe7mzRUONOTImi4UwAjly+A9mIkrdF6bvStKAA80SMgCWe1kE+V2nm0aEBYDuC2fNGiudYRi/ErLL6M51b82HctnK6fUVtwFRM288q3L0U8Ii1mL/8LvsFqeUOXJBVispVvLbGUsxacIf9cRiNC3KOKnpyG54SxvbR4jpp9WpJGzbX7MZ1SdJzwxdhTrV31sRrtQFZV8M7PuoIeAHb0W/w6dH2VZVgCcdJiYvQuuwpjBtNKpBUFyfLx00g+6gyx0LDNBZiWqy8ESAQwyb9G5OFYcqypEcwKixQKtda/kvUYVFanLRmXvncGThakjeEkBmYWnDcyZDHPLLfautqeMdHfQEvdmBHt+F786JVF8EWDB49G1duOcQ02Ikz79HGHAs9QvhpyntvPo6Tg7TVAjE81ooZ+UecO2Q7jkWZVowNl78csoXiuLmrcHO54ifQC7R9zzPW1fANH09jY81BLMonPaefsLC0qs2IgCVa/tItMzpog/1cz8CmGjhUfgCO1DULf50Pffr1g6C+Fn17UlvqobKkBCrouedcAH+8sh9c3tvNXlgG8D2tXRMtf5kHfGeEB3zXRMtfLywt4HB8Fx7wHL+CBzzHr+ABz/EreMBz/Aoe8By/ggc8x6/gAc/xK3jAc/wKHvAcv4IvLRDgSwv0Y0oDAJrheMlP8N2mH2H3r8WwWxRE6A/BwyLglhEhfiCIYKuE7Zm5UGYgzdTZV46A8WGBTH+aeMDr4TTU780Ea+J8WLhuj1SmIDga5i1JhqcmDQGLVnO2VEBuylPwwKOrYJ9UdAYLBEclwZsrE+CWQHY5KZx+rmozjoeCCK071fWb6zXXnqH1PmSukEUIaJudHjECb2C0DkZ9VGJKAwAbcH/aVCmX/FCcvPgj/Da/CMtKlBoAtBtqGW5huMlH7SsZfQXooA32c/WDR7Pgsb9OgpeEL37wuEfgP7P+DhHXXAJQXQq71r8J85/8r/CtDoP4jI/hlQl/OrNU+PQv8O7DS2HjSelvJ9iqCuGz9duhHoJgbOqX8PmDoUzzlujt4RsbG2HDhg3w/PPPi5ukA6SEKzU1NfDWW2/BK6+8AtOmTYPzz/feJmQzdfC8h6+F7S/cA9cnZoEl8iX4Zs0suL6X4hPA47Dz1Ycg4tGPoX7IEsj94Qm4oYfivU58DfNCb4Vllf0hasUaeH9mmOJXAIXOfz0k3joFXt5zMdyV9iVk/DOEyS+4l3p4M4IIOmjdTWXB0NmZeIihJIqM2n/ZlFCeF8oN46kYAQvM1sGdj04xowEg0JrqQysnkUitEEOR9jpNTsdyRh+x2lfJHAsNYbIxXGKrwm3WaPHLwvrnTolWG5DJ0FCBAo2yArijKwoi2OqKcXNmOqa+vApzKp0MKOtzMCmIXlOdd4iyTjxmH870X4y5TVoR0owVGXH2OgVbMY/RmFXtq2SOhUYw1xiuaMHabS9hpLjBewwuzq3qsD2tFGTUc+qFEiBRL8wSFnVw5aM5XGgACLSqe8AETCnU6PBslZg1274nOiAhC1nlflD7KpljIVtcN4ZTGrbjclHbKQDDF2zCam9Fu4BWG5ARNEygY1fpL7Sg3phVL8+qDkrfZDMPbc7eiiulYWfIw+uwQv1Z2cox82F7mpaAyW/gjmpFMhdbPZZlLZQU/tRZLcyh9lUyx0J26GgMTRS5KEPmYGaFN6TMzqDVBmQEDQ+M9KwylCOGVbo9VnVw5qNxTmNdyVbMylyDacvnSBv3hc835jXcUtEknaNEiIOK7zAlLsL+mQZHYULyMrRan8OkuDH28b0lEmenO5c29QQtfwVzLDSH0cZwxFa1EeeJU2DeU+5TotUGZAQFjCeBS1OFrIY1rOrgzEfjnEmg1WohU3H5xiKscTapYGvAirwPcJ6cm6aNDcUpK77FQ3IuUUY4vo9XJG8MCCJo8jvs++xteG2P8LzQ++HRuwZ1yuT7XUsQQY0RDQCBloPw9XMxcNP1U2DpNz1h3NzXISN7C+TlZsO61c9BbPhR+ODRv8Kgvy2B7Eo3c9QMcPgWmKMRS3MyUGgMoZdPR6ExMFwcn5G48DtY4E5Ru2ELJg+h3t17qfXUaLUBGUE9Kw0NjEI5IPXMqOiBVR2c+WieU1idnyqJC6uvuU5hReYc+40pyx24YOMBhxtTtrqdmCol8rJErsB8RvlD1b5K5ljIFleNoUaRONVlcla2aLUBGUHDArr4MwqNuSngWMCqDs58ZIMTDYCWXZgSQSrcATjC+qNwlja2Qxk4VcxR6nx62yha/rbDaslzIWDoPTD/iSiwQA1se+VT+P5Yi/SYCjwMWz7bAJXCYcD9d8PoID1DIO9CaaqJ/Px88X89UDrrzz77DG666SapxBy+UAf39ICrIm6FkXRYsxP2HGgSS+HoXsj9jlS5BsO4iIFO5Yq6XXYDTPgHCbcVwFd7DncmFT8tnDSGmpoC2PhhgXAwBCaPGwZ9te8MtzvPPPMMPPTQQ+JtfXfQOc8++6woDMxyiUHH1YGVBsA5cN65rhaE9ILAq+zP/v1YrXAl5x1MBjxLQQQbnMj/Fj6izsASAZFh2qreHYE/CyLQZ/z7T2/CHdePhFsnvw45B09J5WoQGvb/DN+Ix32hzwXSiqlWjac6OFbrpKMjhF/3X74jVXYLXHr5RdDTXuoVHMY5+jEriKCkHvOX29fkQHQalrC5btGF2n/Z1JgRI2CFmToofZNND6Y0AGxlmDHVvoo2IPZDLNOctrRhY8EbGCVObkRgUs5vUrk5lH4qzLHQCOYEERS06jgB9k/ORX0z9mxQ+q40LSjAKKBofls+j46pzOidUE/xtA7yuUrThzkNgIb8FdISkSAcnZSJxW1m6k5hdcGa1vn5gCnv4X6t+PAAta+SORYaw0xjKGjV5PeOcJkrtNqArKthykczGgC241iQOkNaMy9Y8BiMS3qu7Z1WwSyjF+FGnTcn9WCvk4M5FhrGlCCCRKuKm5EFZmxQ+q60roZpH81oAAi/2UfzPsTkmJFS56cw4QsQb12HBco1Ngxo8x5nzLHQI0w1hnJFnYEFZoxoW98z1tVg5aOtsRoPFO0U5UXz8gqx5Gidy8+2Lc1Yd7QUC8XnquRJGaPlL02E0EEb7Od6hilBhA5C746nzo7nO546J1r+Mg/4zggP+K6Jlr/tdOOJw/ENeA8v4KyH9wd4D8/hdGF4wHP8Ch7wHL+CBzzHr+AXrQJ8WrJrwi9aOX4PD3iOX8EDnuNX8DG8AB/D68ecIIL0/NxcyNu1H34tKYETva6C0EHXQvgtN8H/BPZw+3wjaPlLJcwC3uPGwGr45asc2FPvYo8gcfaVMGJ8GAQy/l3iAa8Hk4II7p5viYTZb70Ii/7h7PnGcfq5qs04HgoiyLRu/nBjDDPLKtF8L8FcYVSMwBsYrYNRH5WYE0Sw4anidJwqpmoRnh+VhGkb87CorBgLt/4/fCsh0v0GIQ/Q8lcwx0KjmGsM4fklaRhN51jCcNz9MRgT48RmpGGhFzJma7UBmRoKKEqKRPtGp0+fLm6rI6NjOp/2lHo78M3UQembbPowqQHQuq/VSTKu5jLMnD3CXqfIlVjo21v8zAoiKDaCR6R4JaDdofZfNiWUhZeSIVFwaWUFpr2klPhIKy87K8zWwZ2PTjGlAWDDhrwXcAQ9FhCH6WVam3tseDJ/BY4Un89uA5CWv4I5FhrCtCBCIxalThLfN3BuNtZKpe2J2n/ZZKjHpECj3tMdXBBBvUVTVvew4JDkLU4zj2HzMSzaWYTlFUeY7YDS8lcwx0IjmBdEOIxZCUOFx4IwOm0fs/GbEbTagEyGgsxIumoaclAvzBIWdXDlozlcaACc3o2pY2hfcxjOzT4mFbYPWv4K5ljIFjeCCC35uHwYjf8jMDn3uFTYvmi1ARlBwwQ6dpX+QgvqjVn18qzqoPRNNvO40QBoHQHIn/0prCnajBmpL2FSQhwmJFkxJT0bd1Y0MO/stPwVzLGQHToEEY5mYhzlLLHMxDW7tuGnK57AmFEhUl1CcHTcYlyd7SLvOAPU/stGcEEELQxoALRmo4jDjLJS/NZ635l0HUoLnoiLsx0zC5vB4T3s5lhoDiOCCDZsyl2M/el9Lf0xuD+d61gfGu6Mmp2Ohe5SbXuI9nva24ECxpPApalCVsMaVnVw5qNx9AsitCr4wRicETcGLWIWi+cwbUMObtuWgxveewHjJZ1Wymv09LeVzHr6NvU7Y46F5jCiDtGEJWn3SefR/OzTmL5lt3DhUoEVFQexJP8LxRxtEI5evNkrWk9t6qowwtNgo3nxjg54dR2c+Wgc/RoAZwKerD9GWTfjUVUcKPPDw4gXMK9z5Yc3IojQiMUZSRh7fxSOnupELEEhXQkwDpfns0/SpNUGZAQFGg0NjKIWIzADqzo489E8zjUA2gS80zl24TqvKBWjxThhd3Gr9lUyx0K2GBFE0MZWlYWzxQufAIxI2YWsBzZabUBG0LCALv6MQmNupRiBGVjVwZmPbNAWRGi9qSgMZcak7hYGvE6w7cO0aBraWHDY8nwmn7GWv+2wWtKAIIITuvX5M4z9x1DhqAa+y90LR+3F7QIXRNCLtgZAt+494ULxqAdc2run8+W53c6DnheSAEY9nDjVIkanN2in5cE6BRGc0hMuvkJMMt4hcEEEExoAlwRD2DCh34dTUNtw0muBrBeTAW+yMVrq4bcDe4Xn74TS4656/Qb47SApJQiDmoCecJ541H5wQQQTgghnXw5DIgcJBwcgZ8seOOYs4k8egZKdR4SDoXDntVd4NTVj6/hGNv2YFEQQxuYJYm55N3dZW5X93IwDPUSrDcjUmBEjYIWZOih9k00P5jQAbNiQuwSH0PtZJmNKgdakQzMeyZqHoXSOUhDNJGpfJXMsNII5dYiDmBk/xF4e9QYWKBPLt9KIZelxKAxohMZ4GDMOsU2pTCh9V5oWFGAUUDTdJ59Hx1Rm9E6op3haB/lcpenDpAaA8vMf/R9cU/Cb4gaTclIjCCOXb3e+3sYgal8lcyw0hpnGaMHa3KX2lXQ0z75gA5YpFw7ZarE482lJh78/RqXsFMKfPVptQNbVMOWjKQ0Akp7/Ehe0qnDTHfSncFkbQQStaWtzyD6qzLHQMAzVISxhkzGRdPiXJeGsqDDpi0Jfhi+xwkvLC2S/1dbVMO2jSQ0AW90+zFr+CI5WPz84GuembsbydpCeF8yx0CPMNIatHss3r8K54xx3TFnCH0Rrxg6Hu3MsUb+nbF0NVj6aE0Sg51dhaeFP9ucX/orV/iuI0AL1laVQXHFCODoLzu9zOfQL6guWcxhtcnQC39PaNdHyl3nAd0Z4wHdNtPxtpxtPHI5vwAOe41fwgOf4FTzgOX4FD3iOX8EDnuNX8IDn+BU84Dl+BQ94jl/BA57jV/ClBQJ8aYF+zAoitAWhpfJ7SHt/K1Sfcy1MnHU7/Ols6SEGaPnLNOBNNQb+DpW7tkLOlh2wv7QYDsDlcM2gwTDshpEQfvUl0N1YSxqCB7wezAoiaNBSCp/MmgQTV24Xnm+FvD2PQxjDvX1OP1e1GcecIIKtbjd+umCCImGP0kJx3LyPvJZ1jHB8T7u5grbUkdE2O/rfWU52b2K0DkZ9VGJWA8CRBixOf/hM2j0viF2ofZXMsdAophrDdgiz5kjJ8MWNABswr6gMy4t24LdrluBkSTUiJD4Dyzp4AwgFFCVFon2jXBBBgVsNADU2bNyzCieLW0Ml6zwBb6YxFMnyLdFo3VbVdi8k/XLkv4ZR4ha/UZicWyOVs0Xtv2xKKAsvJUOi4NLKCkx7SSnxkVZedlaYrYM7H51iWgNAReNOTInqL3zmYzBuxhh7XTpNwJtqjGOYPde+uTcgPhOPaD65FNMnC43DMCOVGrX/sslQj0mBRr2nO7gggpYGgILW1IlBGGndjHvWxNnr0lkC3lRj2GqxZPPnmJ66AlfmVGh+WYR+C3OS7EOeYGueoa1kelH7L5sMBZmRdNU05KBemCUs6uDKR3O40QBopQVrt72EkcIvtj1LxSmsyOhkAe8evY3hhFO7MCWSNoJ7JycNodUGZAQNE+jYVfoLLag3ZtXLs6qD0jfZzKNDA0DCVr0JF4QHKPLTNHe1gNffGJo0H8ZtK6fbL3pD5mBmBfucNIRWG5ARXBBBCyMaABKtkxMhOCWtSMpf1CUC3oPGUFJXgrlZmbgm7SWcLWcxCJmKK7Yc8spwhlD7LxtBAeNJ4NJUIathDas6OPPROEY0AIgmPJSZiKEUB1PTsbg1K1n7B7wXlhY0QfkXz8HY8X+HmISXYH1xvfClngQzY26Dq/tSdljXnC7/AhLHjoe/x8yBl9fTDY5hEDNzCtx+dV+v5htkTY8ePaSjjsN7dTgLegyOgTWZGyArMx3eWhQL4ZWrIOG2MBg+Iw0K609L5xEILeXrYdG/U2BPyDR4/ploGHCuF+8iusELAW+kMTToMRj+tSYTsrLWQfpbCyEm/DCkJYyBQcMfgbcLa8WvaXtTXy98aQ3y66+/Qr9+/aS/zOMLdThDd+h/0wSYeOdYuP3OyTDtqTfhi+9SIVYYe+57Zw5MtX4HNfIH1bwPPnjiCVi5bxDEP58AUf26Sw90HG26fDK2mBFEEK4BqrefkUMJX4Q51ewnJtX+y0bQsIAu/oxCY24uiFCHe1JjMEAYyoTO2aAx7dzlLlpltNUh9KGUQ3E+128GrTYgk6Fgo6DTC82M0Dw4y7uuLOrgykcWnBY+pzHi60rTz815aA12fE93xmr6Weu122l5sBlBhG5w7lUjIWpkoHBcAF/tOQxuBkXM4YIIJjQAfAyTAW9WEKEGSnduh61fb4Ttlc4S7Quc1RN6X9pxF4FcEMFDQYSzg2HiR3mQl+fMtkKWVapjUAKkbbWXfzQxGBiuEnbAodvXj0lBhNZlCcE4Jb3E+VCl9U4tF0TofIIIruiEY3hmgghOG6kRyzIS7DefLPcKXxZW6fLPoPRdaVpQgFFA0fy2fB4dU5nRO6Ge4mkd5HOVpg+TgghO6ZQXrWYaw4YN+SvEtRX2HPBqQYR6LMtaKAkieCZ5qQetNiDrapjy0ZQggjM6ZcALmGqMOixKi2vdCKAtiGBhrg6hRPZbbV0N0z6aFERwpLMGPGGqMZrwaN77OI8LIngVVj6aFURoL7T8pXu8dNAG+7meYUoQAZvg+KFyKDtSxwURvIC5Pa2dDy1/mQd8Z4QHfNdEy1+el4bjV/AeXsBZD+8P8B6ew+nC8IDn+BU84Dl+BQ94jl/BL1oF+LRk14RftHL8Hh7wHL+CBzzHr+BjeAE+htePeQ2AHyE3bxeUVB6E/QeEp191BQQOGAYRt/wFBvY+VzqRDU4/V7V5iq2xAndmf4gp1kU4N+5hnJu8HFMzcrDwWKPODQEKbBWYvSQeY5Kz8ZhU5C202oCsq2HOR7MaALswfXaktNxbw4InYvLnew2spXeP5vtoFEinG8FcYzgiZ6oSnhuTgRVSqbfQrLNgrjAqRuANjNbBqI9KTGkAnNqL6VOl/RKWSExIWYs5+UVYVlKIed9+jNbYkdIXYQTOyTpkvHN0gtpXyRwLjcJWHaIJKzYuknY5CeZDAU8BRSnvaN8oF0RQ4FIDoAWrsp+yd16WSbgiv8YxoJvLMWveKHuddAkq6EPpp8IcC43BUB2i+TfM/yARR8nBTuYjAU95Xig3DAWXVlZg2ktKiY8oELUeZ4HZOrjz0SmmNAAOY1bCUPG9AudmY61UqsZWlo5TxM89ApNzj0ul5lD7KpljoSGYqEOcwpqir/D1uAjppy0UR42yN5IvBDz1mBRo1Hu6gwsiqDQAWpMxBWNMRrlUqIHe8wyg5a9gjoVGYKEO0ZK/HIfJ7x9yH1qz92GxrAzhAwFPQWYkXTUNOagXZgmLOrjy0RzuNABs2Fz3Gx6rczGgrcrCBDH7RRjOzWYzTaHlr2COhWxxL4jQnGfFYMtIjLWuw4JqSvSh2NzbwQFPwwQ6dpX+QgvqjVn18qzqoPRNNvOY1AAQOYWHMh7GAKqTy/xGxtDyVzDHQnboa4zTx/bjrooG4WwZ3wl4LoighUkNABXKSY/QeRuxyvAXRhstf71wp9UG9aU/wBefZ8C7Kx6Du0bcBvHv7IOQmKWwOmkMBGrcCzjr4mAYEtjD9U2LDuLIkSMQGhoq/aWf6667DrZu3Sr9ZQ5fqENbzGkAKMH6n2HVvP/AS3voNabB4n/dCH28GAheCHh2jdGZ4YII7hGDfVYsTHtnh9C5R4P1vwvgbi/nj/dCwLNpDF+CCyKoMSCIoAlCS+Um+N/pMfZgD54Ii9e+CrOv79Muv/IO4xy2eCKI4DtjeLqLSRd/RqExNxdE0KIF6wrTcfaoIHsdQmZgasFxxfUbO9S+SuZYyB6jggi+E/AEBRsFnV5oZoTmwVnedWVRB1c+ssBBEMGBJqzIXopRUnY6y+inMbO41ivBTqh9lcyx0Bu4bwwlvhXwFGh6A5jOodv8rGZoZFjUwZWPzrFhc00p5udtwez1eVjhKld5RQbGiK+r9Rkrl4xQrtBUzBenoL2Hlr8mx/BdSx3CGVwQwUNBhFZOQmW2Fe67Kwm+qQ+C0Qs+ho0psTA0gO1yYL04fAv0Y1IQwSm+1cPLcEEETwQRbHhq/3s4RXw+pUT/Eiu8mBhXidpXyRwLjeAddQjfDHiCAowCim7by+fRMZUZvRPqKZ7WQT5XafowoQFgK8OMqbLA9HRM2bhVyjrszLZjYQUb0Qu1r5I5FhrDG+oQvhvwnRlTPnqoAdBSmIIRivdzbz6+eEyEuToED3hvYNpHwxoAis9Rt3WGgCeYqkPwgPcGrHzkgggKTAkidBB8E3fXRMtf5gHfGeEB3zXR8pfnpeH4FTzgOX4FH9IIOBvS+AN8SMPhdGF4wHP8Ch7wHL+CBzzHr+AXrQJ8Hr5rwi9aOX4PD3iOX8GHNAJ8SKMfU4IIYIOmygLYkpMLPxXuhl9O9IKrBwTD1cMjIOL6AdD7HNfPNoqWv1TCLODFxsjNhbxdJVB5qAQOwGVw1eWXwYBhEXDLiBDXDmET/Lb7B8jOyYP9pcXCcy+HawYNhmERN8OIgX28uviMB7weTkP93kywJs6Hhev2SGUKgqNh3pJkeGrSELBoNqdym59U1EoghMdbYZX1HhhsOVsqM4/Tz1VtxlGlXnAwCwZHLcbPnexQt9Xtxc+TJ2Kw5nNDMWrBp1hUp0rDzRDH97SbK4yKEXgDo3Uw6qMScxoALVi9ZZm0gVv4PJNW48a8PVhStAO/XbMEJ4spXCwYEp+BZQy3/2n5K5hjoTFseKo4HaeKlQa0jJqNKZk5mF9UiiWFeYJDVowNlzaBhM7DLHWKjuYyzJw9QnpvqTG2FmBxcQFuzXoTE8QvEe1yfw+LlFupGCL7rTY1FFCUCYD2jRoVI2CFmToofZNNHyY1ABp+ROuIAOH5QRhp3Yq1bR4WOsuCd6S8RSNxXvYRHTvi9KH2VTLHQkPYjmD2vJHi8yxRr2G+Q09sw+aKDTgvnBy24JDkLXhmx6JCHUJzR5Tw3Krv0BpJQe9iz6xJ1P7LpoTyvFBuGAourazAtJeUEh9RIGo9zgKzdXDno1NMaQAoNvoHJmJWldYvdT0WpkwQ62OZko5ljCJe7atkjoWG0JXX+ySWpT9o7wH6L8bcJskjWwmmTwkW3zNgagYe0nTUhg25S3AIPZehHIoStf+yyVCPSYFGvac7uCCCOidNFeYk2X/BXSmAtO59tcRjRgWb/VNqX8lMT0u2lO6Cz2vo6Hr4y9W9xTJH/gCXXXU1/JEOfy2Himopv2RdKfy0qVg4GAoxk2+EyzSvMbpBj2sj4O4g4bDgG/hud529uB1JTU2F4cOHw8yZM6US59x4443wxBNPwIoVK6QSNnRkHbpZBkDEnZPhwYRYuOlSrekDhOayX2DrATpW5aSxHYV9P/wqHATB8CH94AJ7qQNnXzEQRgo/A1C/E/L3n7AXegmHb4FxmrHu2G9Y5/SCQxi6ZD1mT3gfOB+za6X0VS4zVSlolUPpj5PTS5mN8WS02oCMoGECHbtKf6EF9casenlWdVD6Jpt53GgANOVicn96LzfKHi35uHwYjeO9u4mb0Y2nc8By8UVgcTbtiIdg04frgX4ILKOGwlUXePq2v0LegSpoz/zDu3fvBmFcDH369JFK9EFZv3788UfpL3P4Qh3aYkADoLoC9lIHL/TtfS90kQr77D5wxbU0BqiGkqO1XvuM2+FOawsc/fJ1eHIVzd2OhEemj4YguUF69YUraagCB+Cn/cfEr6AWWLEffjoi/dHOcEEELbypAVADlfUnncaCWbwc8KehvvB9mDfrNdgDFgiJfwz+dXPfM3fjel4No6aECQfF8MHyj+GHExrfazwOP6/NgEzpZsWR/ZXiL4WvwwURfBMvBjwF+3sw6+6Z8M6+erBELoL/Lo2Gfm2GPRfByJiHIMoiHOYugphZK2HzgYbWbzc2HYIf3kuG2f/ZCn8MFq4ABAIuuRDaO5S4IIIas4IIHYeXAv4kVOa8AtPFYBcuQ6KWwtrVD8P1vdS3jbtB98H3gvX1OAiBetiXNhNu7hcC4XfeBw888He4ZUgo3BDzEXT794uwNPZa8Rl/6NUDzhOP2ocBAwbAJ598Iv2ln7y8PBg4cKD0lzl8oQ6uORcCht4D85+IEn7Ha2DbK5/C98da7A+d1xMC7H2Va2wNcPzw78JBf7g+6CJgt8DAEfHqVWmmsB3HwnRZTZvukL6DBe6WBdjqsXzzKpw7Tkq6KZkl/EG0rtuF1c3HMTc5Qny9YcvzkfUiA+V7Kk2GZjvo9r1eaGaE5sFZ3nVlUQdXPrJAUwOgdYYtFOMyD9nLtNB7ngG0/BXMsdBjmg9g9mJ5TUwQjk7KxGIja2BsjVhdWiimcMsvOog1jdL0pa0U0yf3F16T3ZSVEq02IJOhQNMbwHSOlhiBWVjUwZWPzjEriHAIM+OoIwvAiJRdzjur1udGY0qhT2cPlhCCfWNrlmBaJrBd6JkZzZi33tpm1xhKtNqATAnd4XQ3t07z5BRoeu6GeoLZOrjzURuzGgCNWJQ6SXwv58sGFO8R9DTm1LOJG7WvkjkWGkYZ7Bops50jDH8yXkOr1Yorssud3FCim1aJ9sbooKUFMlwQwTMNgNPFaXgXDXEtkzGlQOMGY/N+TI+lXwH1WitzqH2VzLHQGA24P22qJBsuBPvGAwYyyTZgYUq0+J5Ov/2NOzElioYzAThy+Q5kI0reFrX/smlBAeaJGAFLPK2DfK7S9GFSA0C5wHD0Qswqqz/zePNh3LZyun15ccBUTNvP7hdc7atkjoVGsB3KwKnit58uUF/HjdvUig5q240Vra1lw1PChU60eIGrXi1JY8fduC5JasjwRZhTzfpy1Y5WG5B1NUz5aFIDwHb0G3x6tLRfwhKOkxIXoXXZUxg3OkR6rrO19J5jf10HcyzUz5keWr/FqVbD1WFRWpy0gUDZkDNwtJxr3otanoRjHe3W1TDtoykNAFpzsw3fmxet2uhjweDRs3HllkNMg51oW8dWcyzUTzlmxNiX9+o3dcAL2I5jUaZio0irheK4uatwc7niJ9ALtH3PM9bVYOWjOUGE09hYcxCL8um5P2FhaZXO6z3jaPlLtz3poA32czuAlnqoLCmBChJTOOcC+OOV/eDy3u42BpuH72ntmmj561sB30HwgO+aaPnbDqslORzfgQc8x6/gAc/xK3jAc/wKHvAcv4IHPMev4AHP8St4wHP8Ch7wHL+CBzzHr+BLCwT40gL9mNIAgGY4XvITfLfpR9j9azHsFgUR+kOwrucaR8tfKmEW8IYbw1YJ2zNzocxAGpOzrxwB48MCmf408YDXw2mo/2UNJD2SCC9vEpNIqrBAcNR8WP7STPjbgF6OC/5aKiA35Sl44NFVsE8qOgM9NwneXJkAtwSyy0nh9HNVm3E8FERo3amu34Ktee21blp6VBujYgTewGgdjPp4BpMaAMpdcTAUJy/+CL/NL8KyEqUGAO2GWoZbGG7ykX1UGn0F6KAN9nP1gtBc8hHEjZ0Oqyjh0qjZYH1sAowYGAS9WqrgwO5vYNXSF+GdbZUgNAZkfZsMt18iZZc9/Qu8+/BS2HjS/qczbFWF8Nn67VAPQTA29Uv4/MFQpnlL9PbwjY2NsGHDBnj++edh6NChECAlXKmpqYG33noLXnnlFZg2bRqcf/75Yrk3MFMHj3t4PApfz78bbl26BSxRr8F378fB0DbSNAgtlV/AU9H3wtJtzTAk+Uv44ckRZxJmnfga5oXeCssq+0PUijXw/swwhSyO8NyK9ZB46xR4ec/FcFfal5DxzxAmv+De6eFNCSLooHVrmQVDZ2fiIYaSKDJq/2VTQpkCKGOAp2IELDBbB3c+OsWMBoBAc57VvsspIAEzHXp/ohbzrJH2Ok1Ox3JGH7HaV8kcCw1hsjFcYqvCbdZo8Xmsf+6UaLUBmQwNFSjQKCuAO7qiIEJrwGrtVlOgfZ4iVbrTz74ZKzLi7HUKtmIeozGr2lfJHAuNYK4xXNGCtdtewkhxg/cYXJxb5bVtflptQCZDQUY9p14oARL1wixhUQdXPrrHQw0AgVZ1D5iAKYVKORwJWyVmzbZvEA9IyEJWuR/UvkrmWGgczxvDKQ3bcbmo7RSA4Qs2YbW3ol1Aqw3ICBom0LGr9BdauEuYZARWdVD6JhszbGWYMdWeKtEh5YqtHDMftuesCZj8Bu6oVmS2sdVjWdZCSeFPI8WHCZR+KsyxkDmuGkOTBixKvdc+BAqZg5kV3pAyO4Paf9kIGh4Y6VllKEcMq3R7rOrgzEfzNOORrHmSOJ2WEh9dx32HKXER9s80OAoTkpeh1focJsWNsf/yWyJxdvouzRQfnqLlr2COhWxx1xiO2Ko24jxRE9R7yn1KtNqAjKCA8SRwaaqQ1bCGVR2c+WgOpeykC61VWwNW5H2A8+TcNG1sKE5Z8S0eknOJMsLxfZhJ3jjDjSCCJr/Dvs/ehtf21AOE3g+P3jUIzpUe6Ux0bUEEGT0aAAItB+Hr52LgpuunwNJvesK4ua9DRvYWyMvNhnWrn4PY8KPwwaN/hUF/WwLZlW7mqBng8C1gg/KbLwxltARttWjYgslD6DneS62nRu2/bAT1rDQ0MArlgNQzo6IHVnVw5qNnNGHFty+1qmgHRy3F7Iom6TElp7Aic4490ZZFOxWjrW4npkpZzSyRKzCfUf5Qta+SORaaR29jqFEkTnWZqZYtWm1ARtCwgC7+jEJjbgo4FrCqgzMfDWNEA6BlF6ZE0D2YABxh/dHpPZgzKRudix8bRctfwRwLTeGJIIKM7SBmxg8R6xAQn4lHGF7AuELtv2wyFGwUdHqhmRGaB2e53IBFHVz5qBujGgCted8jMDn3uFSohZxHnt3yEbWvkjkWeoxZQYTWm1jsvuV60GoDMhkKNL0BTOd0LUEEBZ5oAOjV4sU6zLOOEuvkSrHbCGpfJXMs9AjTggjKxPvs5Mf1oNUGZEpoLKye11ZD8+RdTxBBwlMNAF134gVs+zAtmmZw2MkaafkrmGOhYTxtjDbUY/7ysfY6RKdhSXt17wJq/2VTY0aMgBVm6qD0TTZ9mNAAUNyDCYj9UHvKUvgtbyx4A6PEYXAEJuX8JpWbQ+2rZI6FxjAjiKCgVccJsH9yrnDZ236o/ZdNCwowCiia35bPo2Mqo8faA0/rIJ+rND2Y1QBoyF8hLRHRGuaewuqCNa3z8wFT3sP9CvUQM6h9JaMJUzpog/1cfWDFJzBtyERYVWOBkNhlkPLIcOjtcqK9J1w2eBAEdleddHIrLA4dAU/9GgwxGd/A6gmiRHe7oHd5cGfHs+XBv8MvK++FwQ+vlf7WQxxkVLwKEwKlZeBYC4WrEuHuaf9n3/wRPAbi7h0NV/UCOLH/G/jvG19CsVBsGb0IPns/EW5ltAnEC8uDWQgiSOi+uGGPdj2NtEPnwDMfGWkACL/ZR/M+xOSYkdJ1nsKCx2C8dR0WKNfYMKDNe5wxx0L9sGoMVKyoUyrAtQ/a9eQB7x2ase5oKRZKw5828qSM0fKX+nw6aIP9XP+BD2m6Jlr+8jQdHL+CBzzHr+ABz/EreMBz/Aoe8By/ggc8x6/gAc/xK3jAc/wKHvAcv4IHPMev4AHP8Sv4WhoBvpZGP+YEEZTP3w+/lpTAiV5XQeigayH8lpvgfwJ7uEnhYgwtf6mEWcB73BhYDb98lQN76m1SgRPOvhJGjA+DQMa/Szzg9WBSEIGevzcTrInzYeG6PVKZAkskzH7rRVj0jyGKVNrmcPq5qs04HgoiyDTlYnJ/reepjGFmWSWa7yWYK4yKEXgDo3Uw6uMZzAoiKJ9PsZCEaRvzsKisGAu3/j98KyFSWiPfKXJLmm0M4RVK0jCaHreE4bj7YzAmxonNSMNCFrt7VSh9V5oaCijKBED7RmmjNG2rI6NjOp/2lHo78M3UQembbLowqwHQuq/VSdqW5jLMnD3CXqfIlVjoxS1+gjkWGsK0IIIiW0FEilcC2h1q/2VTQpkCKGMABZdW1gDaS0qJjygQXWUVMIPZOrjz0SmmNABs2JD3Ao6g8oA4TC/T2txjw5P5K3CkWCd2G4C0/BXMsdAQpgURGrEodZL4vqzykRhF7b9sMtRjUqBR7+kOLoigPk9W93Cj/tJ8DIt2FmF5xRFmO6C0/DV9+ddSugs+r6Gj6+EvV/cWyxz5A1x21dXwRzr8tRwqqpWyfbVQ+vNe4f8gGD6kH1xgL/QpUlNTYfjw4TBz5kypxDk33ngjPPHEE7BixQqphA0dWYdzwh6H/dgMdccWw5i+ztS1TsOJ3w5DNR0G9oHePaXQslXAzq8KhINB8LcRIWd0n9ScczEMvG4gBAVeAr27e3e23OFbYBwTgggt+bh8GI3/3aVi8x5abUBG0DCBjl2lv9DCXcIkI7Cqg9I32ZjhTAOgNhvnBtJ7yUOVU1hTtBkzUl/CpIQ4TEiyYkp6Nu6saBAGNmxR+yqZYyFzXAkiHM3EOMpZYpmJa3Ztw09XPIExo0KkuoTg6LjFuDq7CGsMZTEzhtJ3pRFcEEEPLjQAWrNRCMOcslL81nqfPZOw2oIn4uJsD3MaOcHhPezmWMgWV4IINmzKXYz96TFLfwzub5/pcbQgHDU7HQuN5Kk0gPZ72tuBAsaTwKWpQrq4ZAGrOjjz0RyuBRHOjOvH4Iy4McJ1XCCGxz6HaRtycNu2HNzw3gsYL09nW+7Ap7+tZNbTq32VzLGQHe7UIZqwJO0+6X1pfvZpTN+yW7hwqcCKioNYkv+FYo42CEcv3uwVrSe1/7IRngYbzYt3dMCr6+DMR89xrwFwJuDJ+mOUdTMeVf1aK/PDw4gXMK/z5Ycn9AgiNGJxRhLG3h+Fo6c6SautkK4EGIfL89knaVL7LxtBgUZDA6OoxQjMwKoOznz0DH0aAG0C3ukcuw1PFaVitJiOz03SVQOofZXMsdA8ngoiaGOrysLZ4oVPAEak7BK+SmzRagMygoYFdPFnFLUYgRlY1cGZj4YxoAHQelNRGMqMSd2NTiccO1X2YCVmBBGcchizEoba6xeTgRVSKSvU/ssmQ8FGQacXmhmheXCWd11Z1MGVj7pp9lQQIRhjMsqlQi3OZLHzH0EEp5xJlt8RAU+BpjeA6Ry6ze/JmNsVLOrgykddKNOi69UAaJ12DsLotH0uLkg7W8B70hjNdXisvAjz8/KxpMaVi2d6eJZKzTJq/2VTQmNh9by2Gponp0BjNXZXY7YO7nx0ifLztRjRADiG2XMlUWJXMkZN29A6lL4YQzEh67BUaA61r5I5FhrG08ZoXZbg5tvfquznZhzoIVptQKbGjBgBK8zUQembbPowowFgw4bcJThEfO5kTCnQmnRQTF0HJGCmxgJDT9DyVzDHQmOYUYc4I2JmiXoDCzS/JY1Ylh5nf/2AhzHjEHuZYrX/smlBAUYBRdN98nl0TGX0WHvgaR3kc5WmB3OCCALNJZgRb+/lLaP/g2sKflPEyCmszk+VZvOCMHL5dufrbQyi9lUyx0IjmGuMFqzNXWpfSUdj/gUbsEy5cMhWi8WZT0s6/P0xKmWnEP7s0WoDsq6GZz6y0ACgFbNf4oJWFW66g/4ULlNKzzOb4DiDY71EcyzUD4PGsB3HgtQZrbebLWGTMZF0+Jcl4ayoMOmagL4MX2KFu2sCD3Gso926Gp75yE4DwFa3D7OWP4Kjg6k3V5wfHI1zUzdjeTtIzwvmWKgfRo1hq8fyzatw7jj7ehulWcIfRGvGDoe7cyxRv6dsXQ1f8dHWWIWlhT/Zf/ELf8Vq/xVEaIH6ylIorjghHJ0F5/e5HPoF9QWLm43BZuF7WrsmWv76WMB3DDzguyZa/vK8NBy/ggc8x6/gAc/xK3jAc/wKHvAcv4IHPMev4AHP8St4wHP8Ch7wHL+CBzzHr+BLCwT40gL9mBVEaAtCS+X3kPb+Vqg+51qYOOt2+JOzTH4eoOUv04A31Rj4O1Tu2go5W3bA/tJi4bmXwzWDBsOwG0ZC+NWXQHcj7WgQHvB6MCuIoEFLKXwyaxJMXLkdINgKeXseh7BzpMcY4PRzVZtxzAki2Op246cLJigS9igtFMfN+8hrWccIx/e0mytoSx0ZbbOj//VsrmaN0ToY9fEM5jUAHGnA4vSHz6Td84LYheyjyhwLjWGyMWyHMGuOlAxf3AiwAfOKyrC8aIfw3CWtuW0cs5axQ/ZbbWoooCgTAO0bpY3StK2OjI7pfNpT6u3AN1MHpW+y6cK0BoAaGzbuWYWTxZ1yknWagDfVGIpk+ZZotG6rEkqUCL8c+a9hlLjFbxQm59ZI5WxR+y+bEsoUQBkDKLi0sgbQXlJXYgQsMFsHdz46xbQGgIrGnZgS1V/4zMdg3Iwx9rp0moA31Rg6UjjYSjF9stA4wpeFVUYqNWr/ZZOhHpMCjXpPd3BBBDfntaZODMJI62bcsybOXpd2CnjT05KmBBHwD/Cn8c9CeuoKeO7eMOirdY3RrRdcNjBQOKiHE6daxFq3N1wQwYQgQhuEc7anwX+eXQsQ9RS8NPMv0EvX1S1bHL4FxjEhiOCOU7swJZKuAbyTk4bQagMygoYJdOwq/YUW7hImGYFVHZS+ycYMVxoAErbqTbiAhrat+WmasSKjk/Xwds4By8UXOd97iodg04frgX4ILKOGwlUX6HzbliOQ9/ZyePGrSoCQe2DWHcHtfqds9+7dIIyLoU+fPlKJPiZMmAA//vij9Jc5fKEOrmmBo1++Dk+uIv3VkfDI9NEQpA4FrIAvF82HhdsuhimvL4Rpg4UBbgfQDvGjozGU1JfC1i8+h4x3X4Y5d42C8Pi3YF/IVFix+nEYG3iudFL7ceTIEQgNDZX+0s91110HW7dulf4yhy/UwTmnob7wfZg36zXYAxYIiX8M/nVzX9U8/EmoWP8yzH5pF4RMXQTJ94RA+3+Sdrwc8Hoaoy2ny7+AxLHj4e8xc+Dl9fQlGQYxM6fA7Vf3FX5HOg89ejiV72o3vF8H+nzfg1l3z4R39tWDJXIR/HdpNPRr80uP0FK+Hhb9OwX2hEyD55+JhgHnuooA7+LFgNfTGBr0GAz/WpMJWVnrIP2thRATfhjSEsbAoOGPwNuFteJArL2pr6+XjvTz66+/Qr9+/aS/zOMLdWjLSajMeQWmi58vQHDUUli7+mG4vpfqorZ5H3wgXECv3DcI4p9PgKh+3aUHOg6Hgb15WAki2LC5evsZOZTwRZhTzX5iUu2/bATdxaSLP6OoxQjMwKoOznw0jG4NgDrckxqDAcI5oXM2aEw7t/9Fq2COhaZgLoiglEMZgvGZB1U3p8yj1QZkMhRsFHR6oZkRmgdnedeVRR1c+agbIxoAzXloDXZ8T3fGBRFO78bUMfblCawaQ4naf9lkKND0BjCdQ7f5uSCCQJcOeKONQTRXY0l+HuZmf4V5FSelQi3Yq0MoUfsvmxK6w6me11ZD8+QUaHruhnqC2Tq489ElnmgA2GqwZLs6e7TStmKWdYK9LkEJmLbVXr69pIbJr7jaV8kcCw3jSWMQrSrNwTglvcS5k/U5mBRE53FBhM4niOCKTjmGZySIEJ2KRZqSho1YlpFgX0ZquRdTi1ilyz+D2n/ZtKAA80SMgCWe1kE+V2l6MC2I4JROGPDmGsOGDfkrMFK8INUSRKjHsqyFkiBCAIYv2NTuwsRdCc98ZCGI4IxOF/AsGqMOi9Li3AgisJjtcY5jHe3W1fDMR3aCCI50uoBn1RhNeDTvfZzHBRG8ij/4qETLX7rtSQdtsJ/bAWATHD9UDmVH6rggghcwt6e186Hlr28FfAfBA75rouVve6+25XA6FB7wHL+CBzzHr+ABz/EreMBz/Aoe8By/ggc8x6/gAc/xK3jAc/wKHvAcv4IvLRDgSwv0Y14D4EfIzdsFJZUHYf8BgKCrroDAAcMg4pa/wMDebLPVOP1c1eYptsYK3Pl1BqYut2Ly3Icxbu4itC5PxYycIqwxutrRVoHZS+IxJjkbnaVoZYVWG5B1Ncz5aFYDYBemz46UlntrWPBETP58L9YxXBSr+T4aBdLpRjDXGI404aHMRAyl58ZkYIVU6i206+y6HYyKEXgDo3Uw6uMZTGoAnNqL6VOlVCuWSExIWYs5+UVYVlKIed9+jNbYkdIXYQTOyTqkM0bcI/uoMsdCY7BWh2jCio2LpF1OgvlQwFNAcUEEoxoALViV/ZS987JMwhX5Ghu0m8sxa94oe52GLMHcBjYhr/RTYY6FhmCpDtH8G+Z/IOe0kcxHAp4yBVDGAAourawBtJfUlRgBC8zWwZ2PTjGlAXAYsxKGiu8VODcba6VSNbaydJwifu4RmJx7XCo1h9pXyRwLDcFEHeIU1hR9ha/HRUg/baE4apS9kXwh4KnHpECj3tMdXBBBdV5rbppgjMkot5dpofc8A2j5K5hjoRFYqEO05C/HYfL7h9yH1ux9WCwrQ/hAwFOQUc+pFxpyUC/MEhZ1cOWje8xoAAi/8nW/4bE6F8NZXR2nMbT8Fcyx0DjmBBHEL4NlJMZa12FB9SkqObO5t4MDnoYJdOwq/YUW7hImGYFVHZS+ycYMHYIIzjmFhzIellK9PIjpZa6SculH7SsZoxtP5gQRzrrybvhs71fw9uPjYXBAR2UO14YLIujBoAaACjyaDS88+a4QHxYIfeReiAz6g/QIe9rhTqv7xjjr4mAYEthDn5htO8MFEdxhXANACdb/DKvm/Qde2lMPEDINFv/rRujjxUDwcsCba4zODBdEcI8Y7LNiYdo7O4Sf/miw/ncB3O3l/PFeDHhzjeFLcEEELXQKImiC0FK5Cf53eow92IMnwuK1r8Ls6/u0S2foMLA3j1lBBN+5aKW7mHTxZxSaUeGCCFqo7sqHzMDUguOON6MYoPZVMsdCUzARRPCdgCco2Cjo9EIzIzQPzvKuK4s6uPJRN6Y0AISOMHspRgVLd+VHP42ZupebGEftq2SOhR5jqjGU+FbAU6DpDWA6h27zq8UIzMKiDq581IUnGgCtKJeMUEeYivniFLT30PJXMMdCjzDVGGp8K+AJuvGjntdWQ/PkFGh67oZ6gtk6uPPRJZ5qAIgog10jS7SX0PJXMMdCw5hqDC18L+AJLoggPMeoBoAwYDm1/z2cIt5FpWD/Eis87giNoeUvXRTTQRvs5+rldyh+dyaEx6yCGssdsOCzNyHp1itMaqq2QOUnM+GyiW+AEPBQsXoCBEqPeAMjG0Cqq6vh888/h4KCArBarWJZYmIiDBkyBO68807DN4c8wdM6eLoBBCs+gWlDJsKqGguExC6DlEeGQ2+X0yk94bLBgyCwu3ASlsMn026HiXQfJmQ6pKRMh/DerqKjG5x/WShcE2h+StUrG0C8ow7hmz18Z8czH81pALQUpmCE5jnOzKcXj3lLHYIHvDfwzEczGgCKz1G3eTfgTd54qoI9uQXSMadrEgQTVu+nb4YBWwkTAmnYcg4ETlip8bgr2w+rJwTZ39oL0CCHIr8N9Mb+hJExfGfG0zF8Z0XL33ZYPMbh+A484Dl+BQ94jl/Bx/ACzsbw/gAfw3M4XRge8By/ggc8x6/gAc/xK/hFqwC/8dQ14RetHL+HBzzHr+BDGgE+pNGPKUEEsEFTZQFsycmFnwp3wy8nesHVA4Lh6uEREHH9ADfPNY7Tz1VtrLAdycYlU2dgcnalVOICWyMeK9yE6SkvSGIKybg89VPMKaoysLvGM7TagKyrYc5HsxoAqjTobSwQw+Pf82Czv2sc30c0x0ImNJdh5uwRwuu5X99sq9uLnyfLm7/VFopRCz7FIsaNocTxPe3mCqNiBN7AaB2M+ngGsxoALVi9ZZkU7MLnmbQaN+btwZKiHcJzl7SmcwmJz8Ayhtv/lH4qzLHQNG02dLtLkyx/MehcqTG2FmBxcQFuzXoTE8QehXZTvYdF5jbKOkXtv2xqKKA8FSNghZk6KH2TTRdmNQAafkTrCHosCCOtW7G2zcco/HIUvIOxYtCPxHnZR5il7VD7KpljoecIjlfn4wdttHxcBbxCHULMdLBTpfEjvF7Vd2iNpKDvj9GpheiNxA5q/2VTQpkCKGMABZdW1gDaTE2JjygQXWUVMIPZOrjz0SmmNABOY232fAyk8sBEzKrS+qWux8KUCWJ9jGcedo7aV8kcCz2iuQqLNr6OcfJPW0gEjhpG32oXAW8rwfQp9u1jAVMz8JCmozZsyF2CQ+g1GcqhKFH6rjQZ6jEp0Kj3dAcXRFCfV4U5SfZfcFcKIK17Xy3xOraA6kPtq2SOhcapx/zlY6XnC8OPyS9idtluXCPuhXQR8LXZODeQnjMUE7IOS4Ua1OdgUhCdF4nWPGdN5jlq/2WToSCjnlMvWmIEZmFRB1c+usdDDYDTuzF1DHWCQRidts/5cKU1FkZgUo6xPPjO0PKX0Tw8QsupJrCEPwjWdbnww3uz4ZZ+PcU5T5c0HIfDlXQQAFdc3FMs0uS8HtBLTBm+D/L2V4s1by8oJcasWbMgPj5eKnEP5WXfu3cvHDx4UCoxhy/UwWMNgObjULmXPuRLYNDlvZ3HRM+L4PJLhQERHIWyYw32Mi/AKODPgyuj34C9Of8Hj48fAgFeyxD8K+QdqILT0l/tARdE0IMLDYDqCtj7Kx1cAH0vdJEK++w+cMW1fxQOqqHkaK3XPmNGAX8uXBwyEAK7G3y5Xn3hSnGD+gH4af8xpz03VuyHn45If7QzXBDBHaw1AGqgsv6k137FGQW8h/S8GkZNCRMOiuGD5R/DDyc0vtd4HH5emwGZUnr0I/srxZ9NX4cLIvgmHRvwcBGMjHkIomjolrsIYmathM0HGlq/3dh0SLgeSIbZ/9kKfwwWLocEAi65ENo7lLggghZmBBE6jg4O+G7QffC9YH09DkKgHvalzYSb+4VA+J33wQMP/B1uGRIKN8R8BN3+/SIsjb1WfMYfevUQrhjajwEDBsAnn3wi/aWfvLw8GDhwoPSXOXyhDm3AWvjlwyS4d9wc+FAI9pDYV2Ht+4/BLYEan8x5PSHA3le5xtYAxw//Lhz0h+uDLgJvfW06OOAJCwy8/38he/MqmDuOxqmVsH39fyEtLQPy+vwDrOv+H2QkRcLl3Wziub3+cI6J8aFx/vznP4v/5+fni//rgWZGPvvsM7jpppukEnP4Qh1aaTkIXz83DaLuscKm+iAYnfQBZL1yPwy2OAnRXhfDFeK19mHYX3lCLNJECPjqYprN6Q69e/7Bq5+xOD+pNDbIOQndr6VpxdaI1aWFYtLV/KKDWCPnELeVYvrk/sZeywBabUAmw0KMwCws6uDKR114pAFwCDPjSL81ACNSdqHTFVEVGRgjvm40phS2WZjgMVr+CuZYyAYPAt4ZrTcl2DWGEq02IFNCN37MiBGwwGwd3PnoEo81ABqxKHWS+F7Olw0olh8EPY059bpe2C1qXyVzLGSDnoA/joUZr6HVasUV2eVO7sLRHbxEe2N00NICGS6IIDzHsCCCEM7FaXgXrZS0TMaUgjqpVEHzfkyPpV8BjYVnJtDyVzDHQjboCfgz6badfvsbd2JKFA1nAnDk8h3IRpS8LWr/ZdOCAowCim7by+fRMZXRY+2Bp3WQz1WaHkxrAChXW45eiFll9Wc6t+bDuG3ldAyh+gRMxbT97H7B1b5K5ljIBj0Bb8NTRakYLa6TVq+WtGFzzW5clyT9jIYvwpxq76yJ12oDsq6GZz6y0QCwHf0Gnx4tbR6xhOOkxEVoXfYUxo0OkZ4ThvEZJUw3+7StU6s5FrJB7xi+DovS4uzfcAjEsEn/xmRhiLMsaQaOluQNvanlSaj9l62r4ZmP8ufo+FznprWqUujAjm7D9+ZFqzb6WDB49GxcueUQ851tbevUao6FbNAb8AK241iUqdg102qhOG7uKtxcrvgJ9AJt3/OMdTV8w8fT2FhzEIvyaejzExaWVpkUwHOOlr803UkHbbCf2wG01ENlSQlU1DUDnHMB/PHKfnB57+5en3fnm7i7Jlr++lbAdxA84LsmWv76wJ1WDqf94AHP8St4wHP8Ch7wHL+CBzzHr+ABz/EreMBz/Aoe8By/ggc8x6/gAc/xK/jSAgG+tMBz8OjX8PwT6WC7fyE8eculUqkzmuF4yU/w3aYfYfevxbBbFEToD8G6xBSMo+WvVwPebWPYKmF7Zi6UGUgzdfaVI2B8WCDTnyYe8B7SUg6fJ94D418+CjEZ38DqCWJWLW1aKiA35Sl44NFVsE8qOoMFgqOS4M2VCdqZDzzE6eeqNiboEURozkNrsOP7u7Jga157rZuWHtXGqBiBNzBaB6M+usSIBoByiyAMxcmLP8Jv84uwrESpAUC7oZbhFoabfNS+knmnh285CNmLHoK7Fm6Aegh2/u0//Qu8+/BS2HhS+tsJtqpC+Gz9duG1gmBs6pfw+YOhTPOW6O3hGxsbYcOGDfD888/D0KFDIUBKuFJTUwNvvfUWvPLKKzBt2jQ4//zzxXJvYKYObHp4hJaan2HNwkSY8fJXwmdCuPiMiRNfw7zQW2FZZX+IWrEG3p8ZBpbWqgivV7EeEm+dAi/vuRjuSvsSMv4ZwuQXvB16eKOCCDpoLMS02GHC61gwdHYmHmIoiSKj9l82JZQpwIwYAQvM1sGdj27xRANAoDVvfEACZjrI4RC1mGeNtL/m5HQsZ/QRK/1UmGOhR3jYGC6xVeE2a7T45WH9c6dE7b9sMjRUMCtGYBYWdXDlo3s81ABQ5o1vowyipBkrMuLsrx1sxTxGY1alnwpzLDSOp43hihas3fYSRoobvMfg4tyqDtvTSkFmVozALCzq4MpH99QJvfAotIQ/iNZ1u6QETPq2cbaqe8AETCmsl0oV2Coxazb9igMGJGQhq9wPal8lcyw0jueN4ZSG7bhc1HYKwPAFm7DaW9EuoNUGZAQNE+jYVfoLLdwlTDICqzoofZNNP6fw2N4irJCzwYno/Ixt5Zj5cJj4fgGT38Ad1QqlLls9lmUtlBT+RuOCnKPMOja1r5I5FhrHRGNo0oBFqffarwNC5mBmhTekzM6g1QZkBA0PjPSsMpQjhlW6PVZ1cOaj5+j9jIVru4rvMCUuwv6ZBkdhQvIytFqfw6S4MfbxvSUSZ6fvUonamUPLX0bT2R4KIjgBq3Phbes6qIf+EP3EdLg98FzpkfaHCyKwoBucc+kwiJ7xCDwyOgigeB0sf2ouJCbOh0VvfAnFMBSmLHkKEqOvUczeeAcfXFrwO+z77G14bU89QOj98Ohdg4SvU+fDPwQRdCJmHI6Bm66fAku/6Qnj5r4OGdlbIC83G9atfg5iw4/CB4/+FQb9bQlkV7qZozaJ7wX87zvh45eodw+AkQ9PhIg+HZ9gnwsimKEZKrNehPgnM6DYcgcs2PgVfLb0YZhwywgIu+EWGB/zBLz9dRakxg6D+m+S4K4H3oSdv9Powzv4WMCfhurNn8JrBcKHa7lb6N2vAVG8rwPhgggmOV0Ea5e+A/uEDmzE08/CvFuvgHOkh2S6Wa6DqYufgqkBwhf7qzdh5dcV4oDbG/hWwONh2PLZBqC0+AH33w2jgzo63LkggmmO7oXc70iVazCMixjoVK6o22U3wIR/0HVKAXy157Cvq/gxoqYANn5YIBwMgcnjhkFfL1/A6OWZZ56Bhx56SLyt7w4659lnn4UnnniC6RIDX6iDOc6B8851NTztBYFX2RcY/n6sVriS8w4+FPA2OJH/LXwkKttGQGTYH72eYk8v1MPGxMTAlClTXAr9koDwo48+Kq5xIY1UlvhCHTyiVeOpDo7VNolFmgi/7r98VywcWODSyy8CFzLVpmkzT0nGBqPz8Iq7tdFpWOLFG01q1P7LpsZ/BRGcoeMztpVhxlQSOwAMiP0QyzTXQtmwseANjBJvPkVgUs5vUrk51L6S+U4Pj8dgzxZScgboHx4Cl/lK965gzJgxIAQYXHbZZfDf//4XLrroInHqj1Yp9urVC7KyssRe2Jv4Qh0M0S0Ixib8CyItwoj1ncchduF6KKlXjtCboabwE3hmVjKsqxeu3abEwwM3GFMcN4rDt4ANBnv4plxM7k/v78mdWXNotQFZV4O9jzo/Y9txLEidIWkACBY8BuOSnmt7p1Uwy+hFuLGiSXqSeZR+yuY7PXyrJn8QXHulfY03p4vQ7UIY/OAr8H3eh5AcMxIsxV/CG4vmn7nTGjwG4q3rYGvGPLiV4Y4nLXwm4E/XHIUS8agv9LlAPVPL8U2CYMLq/cLPxH7X2/tEzoO+Yf+AJ1d/C5VHS6EwL0+8T5BfdBBqCjZAyuPjYXCA9++p00iZuvo22H8N/Ae9O546O2x2PHUetPz1rXl4DsfL8IDn+BV8SCPgbEjjD/AhDYfTheEBz/EreMBz/Aoe8By/gl+0CvB5+K4Jv2jl+D084Dl+BQ94jl/Bx/ACfAzvOcYEEYTzmyphV24u5O3aD7+WlMCJXldB6KBrIfyWm+B/Answ3eWm5a9XA153Y2A1/PJVDuypt0kFTjj7ShgxPgwCGf8u8YD3ECOCCHAa6vdmgjVxPixcZ9/o0wZLJMx+60VY9I8hzJIxOf1c1cYEPYIIMq2bP9wYw8yySjTfSzBXGBUj8AZG62DUR5cYEkSw4anidJwaYhHOtWBwVBKmbczDorJiLNz6//CtBDm9uvdzS3qnh9criCCBpe/C3QNiYK0lDMbdNRguctaDn3cbzEv5J1zDODeT3h7ejBgBK8zUgU0P74EgApbDJ9Nuh4mrDkJI7Kvw6Sv3w2CL4kNs/aXIBYhcCYXrH4JrzjXfzbdDD++JIMJprM2ej4F0bkQKFnonBbxL1P7LpoSy8JoRI2CB2Tq489EtHmkA2LAh7wUcQecHxGF6WaNUrsSGJ/NX4EixTpMwtUjrHOOofZXMsdAjPBZEaMSi1EnicwLnZmOtVNqeKH1XmgwLMQKzsKiDKx/d46kGgKzuYcEhyVuwQSp1oPkYFu0swvKKI1jTJgu156h9JWN0+dcAO1+/Dwbd9i94Y1sdCI0B2Rv/D2Zeq2f3eS2U/rxX+D8Ihg/pBxfYC32K1NRUGD58OMycOVMqcc6NN94oJkBasWKFVMKGjq+DMJQ51QSW8AfBui4XfnhvNtzSr6f7WRVbBez8ipJrDYK/jQhxmnkMzrkYBl43EIICL4HejLJQO8PhW2AcE4IILfm4fBhdzERgcu5xqbB90WoDMoKGCXRM/xtBLUZgBlZ1UPomm3481ACozca5gfRe8lDlFNYUbcaM1JcwKSEOE5KsmJKejTsrGphdrMpo+cvoq3QeXBn9BuzN+T94fPwQCDAiMFt9AH7ZR8lT/wyhln3w2Svz4YHRA8ULjm7dBsIt8Usg7eu9cLyF6tv+7N69G4RxMfTpYyxXCmX9+vHHH6W/zOELdfBYA6DhOBymZKHQR+i5D0POC1Nh+KCbYOK0ObBo+RuwfFEiPHzPrTD0phh47uuD0CI+yXswCnhPBREQThb/DF+Il/qfw7zxo+HuR5+HtE2ydO0++OaNJ+GBW2+DuxM/gl/aJPBpH7gggjlaKkrge/GoFLKWxMG4xK+hd+xzkLYhB7Zty4EN770A8aNIJCEDnox+CJJzDotdsbfw7mDJLaegYt8vIKajqf9N+IQeg/Qtu6G8ogIqKg5CSf4X8FZCJFjgAGx6ORFmrsiFmo7p6A3DBRHUfAn/98ZeuMX6Eaz/v3nwz7E3wfXX3wRj73sMXs/8XMwPD/Ub4Nkn3oefum5+eATsOQBi74+C0VNfhbXvJ8HkEaHChUsgBAZeDn8aOgamvZQO31ijxaD/5snn4d2f7TO/7QkXRGBE5BPwXMKN0Fc15O1muRb+OX8mRFuEP3I/gI+2Vtkf8AIdHPDdYcCEhbDq3bXw9dsPtL0ZIdOtD4Q9+DBMD6Q/tsDHub96LXe4FlwQwRxn9/kjDBGPAmHMPX+FUM0bSt3g3JCbYeKtdOOqCL4qOOQn+eGd0K3Pn2HsP4YKRzXwXe5eOGovbhe4III5unXvCReKRz3g0t49nQdct/Og54UkgFEPJ061eG0c3ykCHqAnXHxFx+Wb5IIIJrgkGMKG0VjlFNQ2nPTqBakeOjbgW+rhtwN7Yef2nVB63NWEVAP8dpCUEgACAnqCd9NtOsIFEUxw9uUwJHKQcHAAcrbsgWPOIv7kESjZeUQ4GAp3XuuoA8USqkIbY4OOmxJVWZgQQO8ZhNFp+5zfeGjYgslD6OZUII5J3Y1sbjyfQasNyNRwQQQ1em4u2rAhdwkK43gEy2RMKaiTypU045GseRhK5wQkYOYRNktitfzt2B4+YAjcNpkuaQ5A9pqv4ZcmqpOaJijPXA3/S8p+AXdB3NjgDvtZ4oIIntANelx/DzwbHyYMzz+ExFnPQUZhleIGUzPU7EyDebNegz0QBJHPxMAtl3g3e7TDt4ANer79LVibu9S+kk7o5Ucv2IBlylvXtlosznxa0uHvj1EpO5HNOrq2aLUBWVeDvY86l48IvXxzxZe4YHSQ9L4hODruKVzWRhDBgiGx72BBHbvlsmpfJXMsZIPOxlCpQ1jCJmMi6fAvS8JZUWHSMmP6MnyJFZr6QOZR+y9bV4O9j3oD3o6tbh9mLX8ERwfT8FRRj+BonJu6GcsZrZKUafMeZ8yxkA0GGsNWj+WbV+HccXbxK6WJC9IyduBRLwU7oX5P2boavuKjrbEKSwt/wry8PMwr/BWrGQe6jJa/dBeADtpgP7cjaIH6ylIorjghHJ0F5/e5HPoF9QWLkcVoHqB3x1Nnh82Op86Dlr8+FvAdAw/4romWv53kxhOHwwYe8By/ggc8x6/gAc/xK3jAc/wKHvAcv4IHPMev4AHP8St4wHP8Ch7wHL+CBzzHFKQB8NyDD8Hirw9LJUZAaKn8Dt5+4QV44eUvoLQddud7dS2NIXUI/B0qd22FnC07YH9pMRyAy+GaQYNh2A0jIfzqS6C79nIXJvC1NB5iSBBBg5ZS+GTWJJi4cjtAsBXy9jwOYQz3fjj9XNXGBAOCCLa63fjpggnSRgC1heK4eR9hIcONAWoc39NurjAqRuANjNbBqI8uMSSIoEUDFqc/3LoPwhtiF2pfJXMsNI2RxrAdwqw59MUQzhU3AmzAvKIyLC/agd+uWYKTJdWIkPgMLOvgDSAUUBkZGeK+0enTp4t52snomM6nPaXeDnwzdVD6JptxPNEAUGPDxj2rcLK4n1myzhnwRhtDkSzfEo3WbVVCiZIWrMt/DaPELX6jMDm3Ripni9p/2ZRQFl4zYgQsMFsHdz66xWMNABWNOzElqr/wmY/BuBlj7K/V6QLeo8Y4htlzw8TzA+Iz8YhWB24rxfTJQuMIvfyw5fnCV4A9St+VJkM9plkxArOwqIMrH93jqSCCClsVbrNGCx1iEEZaN+OeNXH212yngGc0S+OhIAL+Af40/llIT10Bz90bBn21rjG69YLLBlKePe9mpHIFF0QgPBREaMNpOLE9Df7z7FqAqKfgpZl/gV7GXoAJDt8C45gQRHDHqV2YEkm/Gt7JSUNotQEZQcMEOqb/jaAWIzADqzoofZNNPx4KIiiwVW/CBeHCr35rfppmrMjolD28CUEEV7Qcgby3l8OLX1UChNwDs+5o/5w0XBBBxlMNAAmsgC8XzYeF2y6GKa8vhGmDhau8DoBR/JhsDCX1pbD1i88h492XYc5doyA8/i3YFzIVVqx+HMYGniud1H5wQQQWnISK9S/D7Jd2QcjURZB8T4gQMR1De3eYbjld/gUkjh0Pf4+ZAy+vJ8XmYRAzcwrcfnVfr+YbZA0XRJARxv7l62HRv1NgT8g0eP6ZaBjAQIPVU3wu4KHHYPjXmkzIyloH6W8thJjww5CWMAYGDX8E3i6sFQdi7Q0XRDBB8z74QLiAXrlvEMQ/nwBR/bpLD3QMPhfwZ/e/CaZMvBNuv308TJ72FKQKwxtRDmXf/8G0qa/AdzXtq/PEBRHMUA9F7y6GhA8qIXROMjx79586/Ffa93r4NnSDcwKGnZFD2fYh/Pd774peqeGCCCZoKYLMJWlQIwT+npfugD+eRcqMSjsXLpv4hv3c4kS4XhjqUPlVL2z3mpqfjwc80Q3OvWokRI2kufgC+GrP4XaVvCG4IELXoWMDvqUGSnduh61fb4TtlaekQg3O6gm9L+24CzAuiOAhZwfDxI/yxKGVtm2FLKtUx6AESNtqL/9oYjBoqH0xo83EPBkbdNyUaFVpDsYp6SWqdTQK6nMwKYjO44IInU8QwRWd9saTh1wwCG6KJkGEYsj84BvY10x1UtME5V9kQPoB4dAyGiZH9OuwnyUuiNA1cPgWsEHPt9+GDfkrMFJcDakliFCPZVkLJUGEAAxfsAmrvbBCWKsNyLoa7H3kPbxBukGPoVPh1dfjIISEhxfeAYMj7oW5i63wgnUBPHrXX2Hw2AXwTb0FQmJfglWJERDQcfcsOF0Eh28BG4x8+5vwaN77OI8LIngVf/BRiZa/1F/SQRvs53YA2ATHD5VD2ZE6LojgBbT87Go+KtHy17cCvoPgAd810fK3E9x44nDYwXt4AWc9vD/Ae3gOpwvDA57jV/CA5/gVPOA5fgW/aBXg05JdE37RyvF7eMBz/Aoe8By/go/hBfgY3nOMawD8CLl5u6Ck8iDsPwAQdNUVEDhgGETc8hcY2Jttthqnn6vaWGE7ko1Lps7A5OxKqcQAtgrMXhKPMcnZeEwq8hZabUDW1WDuoyENgF2Y3iartMqCJ2Ly53uxjuGiWM330SiQTjeJgcZwpAkPZSZiKNUnJgMrpFJvodUGZK4wKkbgDYzWwaiPLjGiAXBqL6ZPHWZ/T0skJqSsxZz8IiwrKcS8bz9Ga+xI6XVG4JysQ863ehpE7atkjoWmMaUO0YQVGxdJu5wE86GAp4DigghGNQBasCr7KXvnZZmEK/JrHAO6uRyz5o2yv9aQJZjbwCbklX4qzLHQc0yqQzT/hvkfJOIoOdjJfCTgKQuvGTECFpitgzsf3eKRBsBhzEoYKp4fODcba6VSNbaydJwifu4RmJx7XCo1h9JPhTkWeoQpdYhTWFP0Fb4eFyF9UUJx1Ch7I/lCwFOPaVaMwCws6uDKR/d4KIjQnIfWYHqOmzjQe54B1L5K5lhoHHPqEC35y3GY/P4h96E1ex8Wy8oQPhDwFGTUc+qFhhzUC7OERR1c+egeMxoAwi9/3W94rM7FLu2qLEwQNZ/CcG42m2kKLX8Fcyw0jjlBhOY8KwZbRmKsdR0WVJ+ikjO72Ts44GmYQMf0vxHUYgRmYFUHpW+y6ce8IIJzTuGhjIcxgOpkeRDTy05K5ebQ8pfRjSdzgghnXXk3fLb3K3j78fEwOKCjModrwwURZBhqAKjAo9nwwpPvQg1YIPSReyEy6A/SI+xhVHtzjXHWxcEwJLCHeBfM1+CCCN4F63+GVfP+Ay/tqQcImQaL/3Uj9PFiIPClBV6CCyK4Rwz2WbEw7Z0dwqVfNFj/uwDu9nL+eB7wOuCCCKxBaKncBP87PcYe7METYfHaV2H29X28/ivPA94NXBCBNaeh/pePIPHeGEj8cKcwjJkBqWtTYf4tV7SLWAIPeDdwQQSWnITKr/8X7ouaDi9vOgCW0U9DZtYLMHXwhe12/cYDXgdcEIEFQrBnW+G+6Hmwrljo2GNT4buMJ+HOAb3adbKCB7wOuCCCWaRgvysJvqkPgtELPoaNKbEwtIOmoB0m59lg5qaE79x4UsIFEdTo+YxteGr/ezhFvItKKdG/xAovJsZVouUv7+ENwAURPAAPQObiZPigRjgOuR3+cXMvqNj5E2zfvt2J/QS/VP5uf66XcPgWsKHr9fCdHfY+uv+MWwpTMELjfZ2b2WUKZ9B6fd7Dc7xICxzdkw/fSX/5AjzgOSYIggmr9ws/E/th9YQgqUzJORA4YSX9jBgwZ6/FBpoRoq6+DfTG/gTfxN010fKX9/Acv4IHPMev4AHP8St4wHP8Ch7wHL+CBzzHr+ABz/EreMBz/Aoe8By/ggc8x6/gAc/xK/haGgG+lsZzDAkigA2aKgtgS04u/FS4G3450QuuHhAMVw+PgIjrB0Bvgwm83KHlL9OAx6ajsPvHbyHnxyIo3V8BEBQKg67+H6+oO7CEB7yHtJTD54n3wPiXj0JMxjduVjkqt/lJRa0EQni8FVZZ74HBlrOlMvM4/VzVZpwWrCtej8lRoQ6vJVrwBFzw6W6m6g4s0ayzYK4wKkbgDYzWwaiPLjGkAdCC1VuWSTn/QzEqaTVuzNuDJUU78Ns1S3ByiEUot2BIfAaWMdz+p+WvYI6FxrBh86FMnB1KlRaeLwR3UtqXuLVwPxYXbsWst+ZI+d6HYWxaITZKz/Il1P7LpoYCigsieKAB0PAjWkdQ6vQgjLRuxdo2MS10lgXvYKwY9CNxXvYR4R3YoPZVMsdCQ9iOYPa8kfbnhszA1ILjqgqfwqotL2AkBb3lXkwtapDKfQe1/7IpoSy8ZsQIWGC2Du58dItHGgCnsTZ7PgbS+YGJmFXVIpUrqcfClAnia1qmpGMZo4hX+qkwx0IjnFFuCMWpGWVOvp01mJtMkiYWHJK8BX0t5LXagEyGekyzYgRmYVEHVz66x1MNgCrMSSKtL9cKIK17Xy3xmFHhIo+8AZR+ymZyWtIGdft3wia6CAkYB5NHXe4kqc6FcO3Nf4UgqIeCj7+H3SfpvTsPqampMHz4cJg5c6ZU4pwbb7xRTIC0YsUKqYQNHV8HhJZTTWAJfxCs63Lhh/dmwy39erpPomQ7Cvt++FU4CILhQ/rBBfZSB86+YiCMFH4GoH4n5O8/YS/0AqYDvuF4NVTSYZ9L4eJezq6wu8F5PSwgZv3e+QvsP9oilnYGKLHRrFmzID4+XipxDyVA2rt3r8uESUbwhTp4rAHQfBwq91KEXAKDLu/t/AvS8yK4/FLhqgCOQtmxBnuZF+iAG0+lcODoSenY9+GCCDIeagBUV8Be6uCFvr3vhS5SYZ/dB6649o/CQTWUHK2F0/ZS5pgM+LOhV99LhR8rgSO7YX/FKbHUkVNQsX83HJH+6kxwQYT2pgYq60+KA25vYDLgu0HPoTfDFHHs9Sksf287nNCoKdbvgrX//VoYwROHYX+l98ZovgIXRPBNzA9peg2HmAWTwSJ8M3OffARmvfotHGiySQ/SreQf4L2k+fCfn8+GYBqiQQBc4uqnzQfhgghdBwZjeAsMjl0Ar8cOE453QNqjo6Bf3+Fw5z8fgAf+cSsMuewGiHnrHPh3yhKIpSGacPHTq4f3RKtYwwURTHJeTwgIkI5dYWuA44cpp2R/uD7oImGw7B0YBLxA92vg/pTPYHPqPBhH3Xj9dlj/XhqkfVwEfWKtsG7ru5A0uh90E69EusMfGC8S8iZcEMEkvS6GK8RrbTdDWSHgq4tpNqc79O75B/fTnSZonZSXzQy2xiosLfwJ8/J2YtGBamyU7kTZytNxsvj6ccxuLLBCqw3IZGitCt3I0bNsgM6h2/x0+58lLOrgykfP0JMw9xBmxtEaqwCMSNmFWvdZRSoyMEasUzSmFLK5NanlL5seXkG37n2g/zXDICzsOhh4RQB0F7+qNqjbtxNy6DDizxB6SXuo+bCDCyKYoQ8MHH6t8H8N5OcUwiEKOwdscGJ3HnxFh0F/hsFXele1xOFbYIi6AsxYbkXrsjcx+4ATBWVbJWbNHia8dudcWiDDBRHU6EuJfro4De8S11JNxpSCOqlUQfN+TI+lXwG28aHlr2COhYZo2YUpEfYFRFPSSzTW0tiwseANjBLX24zD5fkaDncwWm1ApgUFGA0VaAGXfB4dU5DRY+2Bp3WQz1WaOXRqACgWGFpGL8SssvozcdJ8GLetnI4hVJ+AqZi2n113qPZVMsdCYzRgUeq99qWiDqslT2FN0VpMGh0kvG4Ahi/YhNXaq8s6FK02IOtqsPdRv+iF7eg3+LQYB8L7WsJxUuIiYVTwFMaNDpHqEobxGSXI8upO6afCHAsN01iIabE0ZBGeLztjfQ6T4sZgsPiaFgyJfQcL6pxesnQoav9l62qw91F/wNMvffPRbfjevGgpJmSzYPDo2bhyyyGmwU4o/ZSNLinpoA32c42B9Xtg/UorLHz2bdimvEcSHA1z//M4zLx3JAQZXYfRTvAtfu2JDZqOV0J52WGoazkLzr/oShhwZR9pcoMtWv4yC3g7CC31h6GkuEJwBuCcCy6FK/sFQm8fDXQZHvBdk3YI+M4JD/iuiZa/vt31cjiM4T28gLMe3h/gPTyH04XhAc/xK3jAc/wKHvAcv4JftArwacmuCb9o5fg9POA5fgUPeI5fwcfwAnwMb4CWGijJ+x42/fgL/FpSAid6DYAB/QfCsIibYcTAPuBLe9m0/DUd8LbK7ZCZW2YgU1R3uHLEbRAW6DuZC3jA6wGhpfJ7SHniUXg0bYdUpiQUoha/Civn3gKBPrJJ3+nnqjYjNOdZVeub3dkotOb51q4n7Xq6bgejYgTewGgdjPrYhlNFmDZF2qwRci8uXrMJ84tKsaSNBkAQjl682Wc2+ah9JTPdw5/+5V14eOlGcJ0tsgWqCr+B9dsrASyTIXX7O/DgQN9JxqS3h29sbIQNGzbA888/L26SDpASrtTU1MBbb70Fr7zyCkybNg3OP997m5DN1MHzHt4GJ75+CkJvfQ4qLZNgxXdvwsyhysSoJ6Hi8yS4dbwV9ljuh7Sdb8E/B5wnPdZxeKWHd48NG4vekxQeRuDszDLmO1vMotUGZErMihGwwGwd3PnonDrMs1J+f8CA+Ew8otWDN21D61D6jPvj5PRSxTbPjkPtq2SOhSyx1W5FayTtZfStnzslWm1AJkNDBf8WRDiMWQlDxfP7J+dik1TaFnm7H2CwNc8nOjWlnwpzLGSGrQq3WaPtG7xHLMXc2s65p5WCjHpOvcgZBVjCog6ufHRNAxamRNufE7kSC0859lq2qiycHUivORQTsg5LpR2L2lfJHAvZYMOG/BV2bScYjQtyjvrEz5wWWm1ARtAwgY5dpb/QgnpjVr08qzoofZNNL7aKdfiwOCwNwckpeVitUNuzNZZilqzoF74Ic6p9o2PT8lcwx0ImnCrE1Oj+wutZMOThdVjhq9EuoNUGZAQND4z0rDKUI0ad6s5TWNXBmY/6aMKKLW9IgmYWDB43C5OtlIDrTKoNy6hETC9Ui9p1HGpfJXMsNE8LVmU/haH0ej6q3KdEqw3ICAoYTwKXpgpZDWtY1cGZj3qxNR7EvPT5kt6qykJicEVOeWsuUV/AoY6CeWdpQXMRfLbiPdgDFgh95EG4K8T/EvN3LUEEuumUDc9Nvg2uv+c5+OaP0TA3ZQ1k5/4IudlrYfWyByG8Mg0evflG+NszX0FlC8WWb+KFgEf4fftaeGktCfv8FR6e8hfooz0d2mnwe0EEPAhZi+bBk+uELmz0Iti4+UNYGj8RbrkhHG64JQpiEt+Er7e+A7EhNfDNwmnwwOs7gDK9+yLsAx6PwOYPP4YC4dAy5Z9w13Wi7EenhQsiAJzevR6WpmwXjsbC09ZZcGug+qbS2WAZfC8sfv6fEAAH4Ktn0uBrH1VqZB7weCwPPltNay2GwP33RkBQJ+/duSBCCxzdkw/f0WH/myBiSC+x1JFz4bKb/gb/oP6tZifsOdBkL/YxGAf8aajZsQk+rBEOA26FccP/qLj93Hl55pln4KGHHhJv67uDznn22WdFYWCWSwx8oQ5w9h/g3LNdfKIBgXCVKGtUB8dq/SLgayD/603Cv8JwJvpmCOvbuYQPnOHfggjd4LyeFmGoIvB7NdT+LgvWOYIHfoHviumoL1x+kXdFDczgMHXjMS35uHwY3ZwIwui0fT57o0mNVhuQqfFXQQTboQycGkDnh2Js+n4nywbqsCBlsv3mU+gzmFN7WirvOLT8Fcyx0FPO6DhFYHLucanU99FqAzItKMBoTpzmt+Xz6NidGAFLPK2DfK7S9FGL+cvvsgez5Q5MytyLdcrerPk3LFjzH2l+PgSnpBXhKemhjkTLX8EcCz3Dhk25i7G/+Bq+J1zmCq02IOtqmPHRVrcTU2UNADGn+wxMWtb2Tqu4QHDBl1ihWHbQkSj9VJhjoWc0Y0VGnP01gq2Y13ni3cF/2boapn1sPox56YsxRlxeoHwd+gI8jNZ1u9qsselo2tbRbnTJTQdtsJ9rlN/hl5X3wuCH1wKMSYWiDQ/CQC/c1vIGejeAdHY83wCioqUejh0oh/JqmjE6Fy74YxD0u1xWbPQdtPxlGPCdFx7wXRMtfztJH8zhsIEHPMev4AHP8St4wHP8Ch7wHL+CBzzHr+ABz/EreMBz/Aoe8By/ggc8x6/gAc/xK/haGgG+lsYINmiqLIDc3DzYVfwrlOw+Ab2uCYVB1/4FbvnrUAjs7jt9qJa/zAIej/8CX329B9wlkzj7yhEwPizQp35aeMDrBGth79qXIfHxF2BdseMnbRmVCG+99iT845oLfWIvsxcDHuHk1ucgdMSTQNloXBFszYM9j4f5vDQK4awdaE/pjz/+CHv27BH/Dg0NFVNpyNkF2gNP6mAu4H+Hkg8fh7H3pMA+UvtImg+PRt8AIX2aoXLvFvjg+UWwfNMBgPBFkPPFfLgp4GzpeR2HFwP+JJS+Ow0GxLwPlrBxcNfgi5z24OfdNg9S/nkNdHxznEFvwFOQUTaAY8eOiRukg4ODxfLi4uLWvDGUXcCbgW+mDmYCHis+gWlDJsKqmmEQm/oOvDL1OrC0vhxCS8V6SLx1Cry85wKITPkS1scPgXOlRzsKp5+r2oxzDLPnhgnPDcCIlF3om0mxnaPVBmRKKKEpldEmamfIednpf29gtg5K32TTx3HMs44Vzw+I/RDLNHc11WH+8nH21x2TikUdv4e7jZ8Kcyw0zOndmDqGtn2F4dzsY1Jh50GrDchkKOU0/U1ZAtxB51LA6TnXCCzqoPRNNl20qnuMwuTcGqlQjQ2bj+3DnUVlWFFZ4xNJVbX8Fcyx0DBVWZggpnG4D9NKtPUhfBmtNiCToYwARrL3UqBRbnaWsKiDKx9dcbooFcfQ+YHzMdsH0m/oRctfJpMlpw8UQQ5lX+p/DYRc5jtylCygMfOmTZsMJTWi8XPfvn3h+++/l0rM0bF1sEH9wf2wiw6vvQqusAgh01INezd/Bm8vfxpmPzgbFrzwBnz49c9Q2eQ8SZOvwCDgT0P1gf3ClTuA5fYQsOxZB6888QCMvuoC8aKh21W3Q/ziNPh6bzX4ZnpN1/zyyy9ixi+j3HHHHeKFJAs6tg42aDheDZV0eOmF0P3IJnjh/ltg0M13w7TZC2H5quWwKDEe7rn1Rrhp8gvwdaVrPceOhkHA10Pxzh32+feN82H8n++CR5emwSZ5nrb4S3jjqQfg1rB7IPHDAqinH5ZOBKWpvuyyy6S/9DNkyBAoKKAcyubp2Do0QUVJkf3w6HpY8kAMJK7vCbHL0mBDzg+wLWc9vPfyIzDKIsTBunkQfd//Qs4x3+3azAc8HoN928rEw/ric+G6BR/AlqIyqKioEKwY8r94ExJGBQkPfgUvT38CVmz9TRxMcTohWavgjdzhYP0yA/4v8Z8w9qbhcP1Nf4P7EpZDppgf3gL137wAT6zuyvnhbd2g51WRcP+4O2Bq6ofw/jP3wIiB/SAwMFCwATB0zAx4ae3HYI2koF8PTz7+Afx8qvOEvMViEb+8RqGelXpYFvhCHewEQqT1GUgYcanqxiHlh58E85+IAgvUQO6Ln8LWE747nm+9gpWNPS1YlZWIgeLrR2NKoW9pPmm1ARkhT/G5k3VXM336dGbz8azq4MxH1zRhSdp90vmTMLWoUSp3xFaShtHieWNxeX69VNpxqH0lYzCG18PZ0Cf8VviHmHO5AHL3VImlnYErrrgCRo0aJcq964WEC+hO6I033iiVmKNj63A2dO8pq7j0gd4XOF8U0q17T7hQPGqCUz6s8+TwLfAKzXloDabXD8aYjHKp0DfQagMyGfmmj54e29lNH7OwqIPSN9n00JK/HIeJ57u5z1KRgTHieaPQmlcnFXYcWv4K5lioHxs21x3D8qKdmLe9BGtc3V1rvTnlO0rNMlptQKaEAo3K/HJpQW02zhVVtodgfOZBJ3n/bdiUZ8Wh9LoBj2FWVccvMNHyVzDHQv3Q2PwxFEYqwvNcfftt2JC7BIXLJ+E81+PAjkCrDcjUUM9JdzzpDiblYqfAo8CiYyojY92zqzFTBz0+alODucmjxPMtUW9ggda6AdshzJozQjwnID4Tj3TVpQW2I5kYL/bc/TEqZSdqhnLzfkyPDRVfO2BqBh7ygcZQovZfNmdQ0NFtflLHJqNjbwe6Gk/qYMTHtgi/5GUZGC9Kzwfh6HlrsKBaIXnQ/Bvmp87AEHpNy13CBWut9EDHouWvYI6FhrBVYe7iMfbnWu7ABVmlbRYO2er2YmaSpMNvmYwpBR0/tlOj9l+2roY5H5uwYuOiMyrcwWMwLuk5lSDCMIxN3dlWHaQDUfqpMMdCo7RVhwjEsEn/RtLhX5b0CEaFScnz6cuw8YATfaCORem70roa5n1swbriL3B5/BgMbvM6FgweNw9TN5f5vPQ8ow0gwnOayuH7/74Ozy95Dda32f4VCOGx/4YnZsdA1NBLfGqnk4zeDSCdHTMbQNpig6aaA1BS8hs0wllw/kVXwoAr+/ipIEJLPVSWlEBFXbPwx/nQp18/COpr8clAl+EB3zVpn4DvhPCA75po+dtOd1o5HN+ABzzHr+ABz/EreMBz/Aoe8By/ggc8x6/gAc/xK3jAc/wKHvAcv4IHPMev4EsLBPjSAjOchMrNH8L7PxyFc66dCLNu/5PPZIbW8pdpwGNTJezashm2/LQXSvdXAASFwqCrh8ENN4fD1Rd3F9/MF+EB7ykILeWfwqzbHoCV++p9Lve/FwP+NNTvzQRr4nxYuM6eoL8NwdEwb0kyPDVpiCKnuO9gNOA9ESNgjSd1YB7wzfvgw7jJcM+qHeKfnSHgmYzh8ehXsCD6n0KwH4TgcfMgNWsbFJWXQVH+Jliz+F4IKV4LSyfHQuKnpZ0yv6QMBdmMGTNg5syZYvq7v/71r6LRMYkQ3HXXXWJ6DG/iC3WwUw9F7ybDw1KwdyboK97GjHEmWb4l8iXcVqvarW6rwfwVk+xb/IYswdwGH9vQKqD2XzYlZjMGsMBsHZS+yeYZNmwseAOjLPSZT8UZY4PE1xJ6eJ/a0ab2VTLHQkPoSOFgK0/HyeJr+0ZGKjVabUAmQxum6W89G7XpXK2cMGZhUQelb7J5gq12K1ojhSC3RKN12w5cExMsvpZfBLytrhg3Z6Zj6surMKfSibv1OZgURK/tGwl61Gi1AZmMvwsitMFWhdus0cIvtpylohwz/Cng3WPDU4UrMVJ8bd/LSUNotQEZIfeWRvFGbkmjsMktqaQFq3MWYbjwvDP5aTpXwHv5xhNCy7Ef4W3rG/AVWCDk4X/CHSHdpcc6B1wQ4Qw0ObHooaWwLWAqvP7i/TDY13Zt68ALAW+D+tIf4IvPM+DdFY/BXSNug/h39kFIzFJYnTQGAjtZG3WsGIEdX6gDtJTD+ucWwkt7QmBqyny4J7iH9EDnwgsB3wTlXzwHY8f/HWISXrKn7AiZBDNjboOr+3Yt/Sf/QfhM170I/355F4TEPwXPTLyqwzVYPcULAX8W9BgcA2syN0BWZjq8tSgWwitXQcJtYTB8RhoU1p+WzusccEEEhObiDHhi+nLYFzINnp//N+h3TucbyihxGNiz5RRW56dirJiXMADDF2zCah+bitdqAzJCvmD0W0GExgJMnUyp9EbgnKxDGtPOfJZGgwYsSr3XfvMpIAEzj/hSs7gOeMKfpyWb86yqtHp6rMvmh9dPq7itD87Fa7UBmQz1sPS3nh5b7o3VN31k6HG6U0oZfymIlUYBTY9rwaIOSt9kcwcP+DbYsLmmFPPztmD2+jyscCXS7GPqEEq02oBMCQUalXl6W7+oqEgManr8lVdeEc+hMtnob2WOd63XoDIzdVD6Jps7bDUluD0vD/Oc2nq0jrMvLQhKSMOtYlk+ltR0/K+42lfJHAv1cxprs+fbxcosD2J62UmpXI0N63OexiDx9f1LEIHG3dSbUxDS+XrG4fSa9Fr0XurzPamDjB4fjdO5xvB0uU0HbbCfqw88+jn8K3Q8rKzpD9Gp6+HjB69xnLJqKYVPZk2CiSu3gyU6FbZ/PBUGnus7V/reWh7c2NgIjz76KAQEBMCzzz4L559/vvSIe+i5qampkJaWBp988okobKbEJ5YHixyATx4YDRPTijvF8mBCjHylGaMW85ffJQkeaAgiNJZi1gJJEAFG44Kco5oLzDoSrTYgMwP1zDRLQsMXM9C4nn4djM7QaMHaRzv+OEvTWIhp7gQRfEwdQonSd6WZgQKdhh4sYPVarH2046/Tks2HMe+9+TgumObbla8XiOGxVszIP+JTjaGkbX3PmKfQRSirXpmg16GxudaFqBFY+tgZ0PKXBjl00Ab7uZ6BTTVwqPwAHPFjQYS5c+fCDTfcABMmTJBKzPP999+D1WqFzz77TCoxjnfG8L6Llr/MA74zwjLgq6ur4aKLLgKhVzZ0kaoH2r5H2/g83TvLA94ra2n8m7y8PFi8eDHzYCfoF+Pnn3+W/uJ4Ag94xuzdu1ecIvQG1113Hbvlvn4KD3jGlJeXM1slqaZHjx7iF4rjOTzgOxEDBw6EtWvXSn9xPIEHfCeCevfo6GjpL44n8IBnTL9+/bw2zqaZH+rlOZ7DA54xFJDy+hbW0AyNt64P/AUe8Iy5/vrr4cknnxQXf7GGFpHRTA3Hc3jAM6ZPnz6QmJgIGzZskErYQHdaifZM2NoV4QHvBaZPnw7PP/88s16eXoeWFdAXiWMOvrRAgOXSAplXX31VnJNftmyZVOI5rF6LxdICUQMgNxfydpVA5aESOACXwVWXXwYDhkXALSNCoLcPZTRw+rmqjRW2I9m4ZOoMTM6ulEp8E602IDMDrXDsWuvhW7CuMB1nj7Jv53M0CwZHLcbPi2t9Zr+DVj2918O3lMPniffA+JePQkzGN7B6QpD0gO9htIf3vx1PCM0lH0Hc2Omwal89WEbNButjE2DEwCDo1VIFB3Z/A6uWvgjvbKsUKjIPsr5Nhtsv6fj1se3XwzcfwI2tu5yCMSajXHrAN9FqAzI1tJ+Uem15PymtT++IPa1G6yCjx0dNbEcwe95I8XxL1GuYX6fSAKDN/BUbcF54gHCOBYckb8EG6ZGORO2rZI6FniM4Xp2PH8yOlIKdrGsEPAUVlXmaMUBP1gIql4NW6zWozEwdlL7JpouqLEwIoPPDcG72MalQzUksS3/Q/rn3X4y5TR0/sNHyVzDHQo9orsKija9jXLi0pS8kAkcNo2985w946lXpb2c9pxI6lwLO2bn0OAWsp3lpzNRB6ZtsejiTmyYOMyqc71vTe157oeWvYI6FxqnH/OV22Rv6SQuZ/CJml+2WlCE6f8DLwagXCjTqpVnCog6ufHRPM9Yd+w3rmp313C3CD8FjGECvGzgfs2tdJSlqH7T8ZTQPj9Byqgks4Q+CdV0u/PDebLilX0+flak0Al0cbtq0ydB2Pbpw7Nu3b+vNIrP4Qh0AzgHLxReBxdm0Ix6CTR+uhxrh0DJqKFx1gW/e4mFUq/Pgyug3YG/O/8Hj44dAQCfPLquECyLooQWOfvk6PLmKZoxGwiPTR0OQj4YAo4A/Fy4OGQiB3bvejVsuiOCO01Bf+D7Mm/Ua7CGVl/jH4F839/XZX/euF6GcdoSC/T2YdfdMeIfm5yMXwX+XRvt0/nge8G7gggjOOAmVOa/AdDHYAYKjlsLa1Q/D9b3Olh73TXjAu+Gaa64R73YaXQhGqyWDg4Olv8zhC3VoA9bCLx8mwb3j5sCHQrCHxL4Ka99/DG4JPE86wXfhAe8GuqU/atQoQ8t9Sfr92LFjcOONN0ol5vCFOrTSchC+fm4aRN1jhU31QTA66QPIeuV+GGzx7Z5dicNcJRvknINd58aT1t1LNc5u+piFRR2UvslmiDZLRihX6Hasdjov3/Fo+SuYYyEbuk7AE2Zv67PAbB2UvsmmG2Wwa2SJ9kW0/KXLaTpog/1cs8h5w6HLrJakG0ArVqwQswfQTaBLL70UevbsKc5104pGwkwqPD2YqYPnqyV/h+J3Z0J4zCqosdwBCz57E5JuvcKn84USWv7ygBfQG/AynizNZY0ndfA04LHiE5g2ZCKsqrEIF6jLIOWR4dBbu8kkesJlgwdBYAcrdTv9XNXGhq41pOkKeOZjAxamRGs+17n57uIxPkvDcUMV7MntOvksecBz3BAEE1bvF4c++m0lTAj0zRE+DXKoq28DVdqfMDqG76x4OobvrGj5y3t4jl/Be3gBZz28P8B7eA6nC8MDnuNX8CENp8ujHNrwHp7jV/CA5/gVPOA5fgUPeI5fwQOe41fwgOf4FTzgOX4FD3iOX8EDnuNX8IDn+BU84Dl+BQ94jl/BA57jV/CA5/gVPOA5fgUPeI5fwQOe41fwgOf4FTzgOX4FD3iOX8EDnuNX8IDn+BU84Dl+BQ94jl/BA57jV/CA5/gVPOA5fgUPeI5fwQOe41fwgOf4FTzgOX4FD3iOX8EDnuNX8IDn+BU84Dl+BQ94jl/BA57jV/CA5/gVPOA5fgUPeI5fwQOe41doBrxSuZjD6UpoSs9zOF0VPqTh+BU84Dl+BQ94jh8B8P8BMf/bkkZEZckAAAAASUVORK5CYII=;strokeWidth=1;perimeterSpacing=0;" vertex="1" parent="1">
          <mxGeometry x="507.93" y="596" width="108" height="470.49" as="geometry" />
        </mxCell>
        <mxCell id="Sr7Jv7LxJJs2jSXWzshQ-3" value="" style="endArrow=none;html=1;rounded=0;strokeWidth=3;strokeColor=#319f23;edgeStyle=orthogonalEdgeStyle;entryX=-0.005;entryY=0.279;entryDx=0;entryDy=0;entryPerimeter=0;" edge="1" parent="1">
          <mxGeometry width="50" height="50" relative="1" as="geometry">
            <mxPoint x="513.9300000000001" y="218" as="sourcePoint" />
            <mxPoint x="512.3900000000001" y="726.2667099999999" as="targetPoint" />
            <Array as="points">
              <mxPoint x="515.9300000000001" y="218" />
              <mxPoint x="474.93" y="218" />
              <mxPoint x="474.93" y="726" />
            </Array>
          </mxGeometry>
        </mxCell>
        <mxCell id="Sr7Jv7LxJJs2jSXWzshQ-4" value="" style="endArrow=none;html=1;rounded=0;strokeWidth=3;strokeColor=#FFFF66;edgeStyle=orthogonalEdgeStyle;entryX=0.022;entryY=0.321;entryDx=0;entryDy=0;entryPerimeter=0;fillColor=#ffff88;" edge="1" parent="1" target="Sr7Jv7LxJJs2jSXWzshQ-2">
          <mxGeometry width="50" height="50" relative="1" as="geometry">
            <mxPoint x="511.93" y="235" as="sourcePoint" />
            <mxPoint x="508.93" y="726" as="targetPoint" />
            <Array as="points">
              <mxPoint x="380" y="235" />
              <mxPoint x="380" y="745" />
              <mxPoint x="512" y="745" />
              <mxPoint x="512" y="747" />
            </Array>
          </mxGeometry>
        </mxCell>
        <mxCell id="Sr7Jv7LxJJs2jSXWzshQ-9" value="" style="endArrow=none;html=1;rounded=0;strokeWidth=3;edgeStyle=orthogonalEdgeStyle;entryX=0.926;entryY=0.321;entryDx=0;entryDy=0;entryPerimeter=0;strokeColor=#000000;" edge="1" parent="1">
          <mxGeometry width="50" height="50" relative="1" as="geometry">
            <mxPoint x="604.9300000000001" y="520" as="sourcePoint" />
            <mxPoint x="604.9300000000001" y="1031" as="targetPoint" />
            <Array as="points">
              <mxPoint x="634.9300000000001" y="520" />
              <mxPoint x="634.9300000000001" y="1030" />
              <mxPoint x="604.9300000000001" y="1030" />
            </Array>
          </mxGeometry>
        </mxCell>
        <mxCell id="Sr7Jv7LxJJs2jSXWzshQ-11" value="" style="dashed=0;outlineConnect=0;html=1;align=center;labelPosition=center;verticalLabelPosition=bottom;verticalAlign=top;shape=mxgraph.weblogos.arduino;fillColor=#36868D;strokeColor=none" vertex="1" parent="1">
          <mxGeometry x="71.3" y="20" width="67.4" height="32" as="geometry" />
        </mxCell>
        <mxCell id="Sr7Jv7LxJJs2jSXWzshQ-12" value="GND" style="pointerEvents=1;verticalLabelPosition=bottom;shadow=0;dashed=0;align=center;html=1;verticalAlign=top;shape=mxgraph.electrical.signal_sources.vss2;fontSize=24;flipV=1;" vertex="1" parent="1">
          <mxGeometry x="133" y="1010.49" width="60" height="40" as="geometry" />
        </mxCell>
        <mxCell id="Sr7Jv7LxJJs2jSXWzshQ-14" value="3.3V" style="verticalLabelPosition=top;verticalAlign=bottom;shape=mxgraph.electrical.signal_sources.vdd;shadow=0;dashed=0;align=center;strokeWidth=1;fontSize=24;html=1;flipV=1;" vertex="1" parent="1">
          <mxGeometry x="133" y="941" width="60" height="40" as="geometry" />
        </mxCell>
        <mxCell id="Sr7Jv7LxJJs2jSXWzshQ-15" value="" style="endArrow=none;html=1;rounded=0;strokeWidth=3;strokeColor=#B20000;edgeStyle=orthogonalEdgeStyle;entryX=0.022;entryY=0.321;entryDx=0;entryDy=0;entryPerimeter=0;fillColor=#e51400;exitX=0.672;exitY=1.025;exitDx=0;exitDy=0;exitPerimeter=0;" edge="1" parent="1" source="Sr7Jv7LxJJs2jSXWzshQ-14">
          <mxGeometry width="50" height="50" relative="1" as="geometry">
            <mxPoint x="183.63999999999987" y="723.3199999999999" as="sourcePoint" />
            <mxPoint x="509.06999999999994" y="993" as="targetPoint" />
            <Array as="points">
              <mxPoint x="247" y="940" />
              <mxPoint x="247" y="992" />
              <mxPoint x="509" y="992" />
            </Array>
          </mxGeometry>
        </mxCell>
        <mxCell id="Sr7Jv7LxJJs2jSXWzshQ-16" value="" style="endArrow=none;html=1;rounded=0;strokeWidth=3;edgeStyle=orthogonalEdgeStyle;entryX=0.926;entryY=0.321;entryDx=0;entryDy=0;entryPerimeter=0;strokeColor=#000000;" edge="1" parent="1">
          <mxGeometry width="50" height="50" relative="1" as="geometry">
            <mxPoint x="604.9300000000001" y="520" as="sourcePoint" />
            <mxPoint x="604.9300000000001" y="1031" as="targetPoint" />
            <Array as="points">
              <mxPoint x="634.9300000000001" y="520" />
              <mxPoint x="634.9300000000001" y="1030" />
              <mxPoint x="604.9300000000001" y="1030" />
            </Array>
          </mxGeometry>
        </mxCell>
        <mxCell id="Sr7Jv7LxJJs2jSXWzshQ-17" value="" style="endArrow=none;html=1;rounded=0;strokeWidth=3;edgeStyle=orthogonalEdgeStyle;strokeColor=#000000;exitX=0.013;exitY=0.878;exitDx=0;exitDy=0;exitPerimeter=0;" edge="1" parent="1">
          <mxGeometry width="50" height="50" relative="1" as="geometry">
            <mxPoint x="512.3339999999998" y="1013.09022" as="sourcePoint" />
            <mxPoint x="164" y="1010" as="targetPoint" />
            <Array as="points">
              <mxPoint x="512" y="1010" />
              <mxPoint x="163" y="1010" />
            </Array>
          </mxGeometry>
        </mxCell>
        <mxCell id="Sr7Jv7LxJJs2jSXWzshQ-19" value="4" style="pointerEvents=1;verticalLabelPosition=bottom;shadow=0;dashed=0;align=center;html=1;verticalAlign=top;shape=mxgraph.electrical.signal_sources.vss2;fontSize=24;flipV=1;rotation=90;" vertex="1" parent="1">
          <mxGeometry x="170" y="255" width="30" height="20" as="geometry" />
        </mxCell>
        <mxCell id="Sr7Jv7LxJJs2jSXWzshQ-21" value="V&lt;sub&gt;ss&lt;/sub&gt;" style="pointerEvents=1;verticalLabelPosition=bottom;shadow=0;dashed=0;align=center;html=1;verticalAlign=top;shape=mxgraph.electrical.signal_sources.vss2;fontSize=24;flipV=1;rotation=90;" vertex="1" parent="1">
          <mxGeometry x="790" y="67" width="30" height="20" as="geometry" />
        </mxCell>
        <mxCell id="Sr7Jv7LxJJs2jSXWzshQ-24" value="white" style="text;html=1;align=center;verticalAlign=middle;whiteSpace=wrap;rounded=0;fontSize=16;rotation=90;" vertex="1" parent="1">
          <mxGeometry x="660" y="495" width="60" height="30" as="geometry" />
        </mxCell>
        <mxCell id="Sr7Jv7LxJJs2jSXWzshQ-26" value="" style="shape=wire;edgeStyle=orthogonalEdgeStyle;orthogonalLoop=1;jettySize=auto;html=1;sourcePerimeterSpacing=0;targetPerimeterSpacing=0;endArrow=none;curved=0;rounded=0;strokeColor=#E6E6E6;dashed=1;fillColor=#AD5800;dashPattern=12 12;fixDash=1;startSize=6;endSize=6;fontSize=12;exitX=0.5;exitY=1;exitDx=0;exitDy=0;exitPerimeter=0;entryX=0.988;entryY=0.355;entryDx=0;entryDy=0;entryPerimeter=0;opacity=60;strokeWidth=2;" edge="1" parent="1">
          <mxGeometry width="100" relative="1" as="geometry">
            <mxPoint x="187" y="265" as="sourcePoint" />
            <mxPoint x="606.6339999999996" y="252.02395" as="targetPoint" />
            <Array as="points">
              <mxPoint x="343" y="265" />
              <mxPoint x="343" y="67" />
              <mxPoint x="650" y="67" />
              <mxPoint x="650" y="252" />
            </Array>
          </mxGeometry>
        </mxCell>
        <mxCell id="Sr7Jv7LxJJs2jSXWzshQ-27" value="" style="endArrow=none;html=1;rounded=0;strokeWidth=3;edgeStyle=orthogonalEdgeStyle;entryX=0.926;entryY=0.321;entryDx=0;entryDy=0;entryPerimeter=0;strokeColor=#000000;" edge="1" parent="1">
          <mxGeometry width="50" height="50" relative="1" as="geometry">
            <mxPoint x="513.93" y="313" as="sourcePoint" />
            <mxPoint x="513.93" y="824" as="targetPoint" />
            <Array as="points">
              <mxPoint x="440" y="313" />
              <mxPoint x="440" y="823" />
              <mxPoint x="514" y="823" />
            </Array>
          </mxGeometry>
        </mxCell>
        <mxCell id="Sr7Jv7LxJJs2jSXWzshQ-28" value="" style="endArrow=none;html=1;rounded=0;fontSize=12;startSize=8;endSize=8;curved=1;strokeWidth=3;" edge="1" parent="1">
          <mxGeometry width="50" height="50" relative="1" as="geometry">
            <mxPoint x="440" y="631" as="sourcePoint" />
            <mxPoint x="520" y="631" as="targetPoint" />
          </mxGeometry>
        </mxCell>
        <mxCell id="Sr7Jv7LxJJs2jSXWzshQ-29" value="5" style="pointerEvents=1;verticalLabelPosition=bottom;shadow=0;dashed=0;align=center;html=1;verticalAlign=top;shape=mxgraph.electrical.signal_sources.vss2;fontSize=24;flipV=1;rotation=90;" vertex="1" parent="1">
          <mxGeometry x="170" y="207" width="30" height="20" as="geometry" />
        </mxCell>
        <mxCell id="Sr7Jv7LxJJs2jSXWzshQ-30" value="" style="endArrow=none;html=1;rounded=0;strokeWidth=3;strokeColor=#BA5F00;edgeStyle=orthogonalEdgeStyle;fillColor=#a0522d;opacity=50;" edge="1" parent="1">
          <mxGeometry width="50" height="50" relative="1" as="geometry">
            <mxPoint x="182" y="222" as="sourcePoint" />
            <mxPoint x="602.9299999999998" y="462.0666666666666" as="targetPoint" />
            <Array as="points">
              <mxPoint x="182" y="217" />
              <mxPoint x="250" y="217" />
              <mxPoint x="250" y="10" />
              <mxPoint x="717" y="10" />
              <mxPoint x="717" y="462" />
            </Array>
          </mxGeometry>
        </mxCell>
        <mxCell id="Sr7Jv7LxJJs2jSXWzshQ-32" value="CS0" style="text;html=1;align=center;verticalAlign=middle;whiteSpace=wrap;rounded=0;fontSize=16;rotation=0;" vertex="1" parent="1">
          <mxGeometry x="230" y="237" width="60" height="30" as="geometry" />
        </mxCell>
        <mxCell id="Sr7Jv7LxJJs2jSXWzshQ-33" value="10" style="pointerEvents=1;verticalLabelPosition=bottom;shadow=0;dashed=0;align=center;html=1;verticalAlign=top;shape=mxgraph.electrical.signal_sources.vss2;fontSize=24;flipV=1;rotation=90;" vertex="1" parent="1">
          <mxGeometry x="170" y="596" width="30" height="20" as="geometry" />
        </mxCell>
        <mxCell id="Sr7Jv7LxJJs2jSXWzshQ-36" value="11" style="pointerEvents=1;verticalLabelPosition=bottom;shadow=0;dashed=0;align=center;html=1;verticalAlign=top;shape=mxgraph.electrical.signal_sources.vss2;fontSize=24;flipV=1;rotation=90;" vertex="1" parent="1">
          <mxGeometry x="170" y="635" width="30" height="20" as="geometry" />
        </mxCell>
        <mxCell id="Sr7Jv7LxJJs2jSXWzshQ-37" value="" style="endArrow=none;html=1;rounded=0;strokeWidth=3;strokeColor=#FF8000;edgeStyle=orthogonalEdgeStyle;fillColor=#fa6800;exitX=0.5;exitY=1;exitDx=0;exitDy=0;exitPerimeter=0;" edge="1" parent="1" source="Sr7Jv7LxJJs2jSXWzshQ-33">
          <mxGeometry width="50" height="50" relative="1" as="geometry">
            <mxPoint x="178" y="734" as="sourcePoint" />
            <mxPoint x="598.9299999999998" y="974.0666666666666" as="targetPoint" />
            <Array as="points">
              <mxPoint x="230" y="606" />
              <mxPoint x="230" y="580" />
              <mxPoint x="713" y="580" />
              <mxPoint x="713" y="974" />
            </Array>
          </mxGeometry>
        </mxCell>
        <mxCell id="Sr7Jv7LxJJs2jSXWzshQ-39" value="" style="shape=wire;edgeStyle=orthogonalEdgeStyle;orthogonalLoop=1;jettySize=auto;html=1;sourcePerimeterSpacing=0;targetPerimeterSpacing=0;endArrow=none;curved=0;rounded=0;strokeColor=#E6E6E6;dashed=1;fillColor=#ff7b00;dashPattern=12 12;fixDash=1;startSize=6;endSize=6;fontSize=12;exitX=0.5;exitY=1;exitDx=0;exitDy=0;exitPerimeter=0;entryX=0.945;entryY=0.363;entryDx=0;entryDy=0;entryPerimeter=0;opacity=60;strokeWidth=2;" edge="1" parent="1" source="Sr7Jv7LxJJs2jSXWzshQ-36" target="Sr7Jv7LxJJs2jSXWzshQ-2">
          <mxGeometry width="100" relative="1" as="geometry">
            <mxPoint x="230" y="657" as="sourcePoint" />
            <mxPoint x="330" y="657" as="targetPoint" />
            <Array as="points">
              <mxPoint x="260" y="645" />
              <mxPoint x="260" y="586" />
              <mxPoint x="660" y="586" />
              <mxPoint x="660" y="767" />
            </Array>
          </mxGeometry>
        </mxCell>
        <mxCell id="Sr7Jv7LxJJs2jSXWzshQ-40" value="" style="endArrow=none;html=1;rounded=0;strokeWidth=3;edgeStyle=orthogonalEdgeStyle;entryX=0.926;entryY=0.321;entryDx=0;entryDy=0;entryPerimeter=0;strokeColor=#B20000;fillColor=#e51400;" edge="1" parent="1">
          <mxGeometry width="50" height="50" relative="1" as="geometry">
            <mxPoint x="514.9300000000001" y="483" as="sourcePoint" />
            <mxPoint x="514.9300000000001" y="994" as="targetPoint" />
            <Array as="points">
              <mxPoint x="410" y="483" />
              <mxPoint x="410" y="993" />
            </Array>
          </mxGeometry>
        </mxCell>
        <mxCell id="Sr7Jv7LxJJs2jSXWzshQ-41" value="" style="shape=image;verticalLabelPosition=bottom;labelBackgroundColor=default;verticalAlign=top;aspect=fixed;imageAspect=0;image=data:image/png,iVBORw0KGgoAAAANSUhEUgAAATAAAACzCAYAAAAOqEAxAAAAAXNSR0IArs4c6QAAAARnQU1BAACxjwv8YQUAAAAJcEhZcwAADsMAAA7DAcdvqGQAAIJ7SURBVHhe7V0HgBVF0q7NbyPLLjnnIKIYEElmFANgVsxZz4Q5nN4Z0DPngJjPhNnfHFFERBREDOScd2FzevnV/339tpdh3QQLpwvzQW3P9HT3dFdXV1f19JuJUUBc1AmyyOfzSXJyskQiERMXGxtrQhc7NygbMTExRi6sTPj9fklKSjLHLrYvXAVWB6xwVj+2cFm3c4PyEAqFJD4+3pxbGWEcjxMSEky8i+0HV4HVg2AwaASRIVlF4uxqLTEXOy9ocQUCAUlMTDTyYI8ZTzmpPuG52PZwFVg9cLoDnFkppHQlGe+6kTs3KA9xcXFGWdEKs8dWcbkKbPvDVWD1gJYXBZOhnXGp0JyC6mLnBBWYx+OR0tJSIxspKSlVcmLdShfbF64CqwPW+iKL8vPzJTMz0xxTSMPhsLtQu5ODD3YyMjKMnBB0IykfVGSUD058LrYvXAVWBzjDEm+99ZZMnDjRCCXXOBhv18Vc7LygBW6tcw4jWl6jR4+Wiy++2Fhg7iL+9oerwOqA1+s1LsKDDz4o11xzjYmjAqMb6cKFBWWCw4iK7KKLLpInnnjCyE5qamplChfbC+4qtAMUQhJdAesOcJblTMqZloLKYwom3QS6kCSmsWseVHiciZmecXUR07jUdIl9n5WVZSxzq6z4gIegnDjliORi28NVYFsACiPXO8rLy80MS1fSqfQI53l9RMXnUtMlKwtUYBbV5cHF9oWrwOoABZGgsNrQKZgUXHtu0zLOCnF9RAXoUtMlWmF2OcEqMfarlRcX2x/uGpgDlhU2tOsYjz/+uFx55ZVGYHmNwsunT2PHjpVmzZqZmZguIZUZQ15viBC7s3TTxnvvvSfr1q2r2sBKORg3bpw8/PDDJo6yQDgnQBfbFq4Cc6C6AuNjcq51PfbYY3LFFVeYdQ1rhbVr105mzZol2dnZ5pzrXhbM7wrrjo+hQ4fKL7/8YhQX+5xkFRhlh0qNcBXY9oOrwBywrLAhZ1Euyj/66KNGMO2MSoXVvXt3+fjjj6VTp05VFpgzP4W1Pta6At20MWrUKJkyZYrpR8oEw8svv9wosLKyMjP5Ebaf3f7e9nAVmANOBURQMfGpEi0wCqZ1E0k9e/aUzz//XLp27Woen1vlxrwkCmt9rGU5LpouRo4cKV9//bWxtLhsQHAP2COPPCIVFRWuAvsfwF3ErwNUMFRCzm0RTmG0G1mtUiPZhf2GEMtwqekSZYLg0gJlhLJiFZm95mL7wlVg9YCCSsGkYqJFZsFzK6RURjxmaPeMUdnxuC5iGpf+3kTFxJAywH61TxutPPA6rS0LWmOMo9y42P5wFZgLFy6aLFwF5sKFiyYLV4G5cOGiycJVYC5cuGiycBWYCxcumixcBebChYsmC1eBuXDhosnCVWB/I3CvEcludLXnJBfbFtuCp9zr5dyQ7CzT2Xe2L5192hBwr5lNa/PbMgh77owjeG431NYEprX72Qim57nzfgSPuVmb8Uxj3zxrrxHOvDy297b5qpfH67XBXnfmqQ+uAvsbg4JgBWNLOtVFFOSf5aFzgDUVXnLjbPUNsaw7lQPflMLQSVZp2c23tq0kXuNve5mO5yybG3FJ5A1h72XzkFiOrQfJmZblM+T9SATz8Jh5CKa3fWDTWtg68xrz2esMGwpXgf1NwA6sHtrd+lYYGGcHIclF3SDvLP9IdqBxgGzJIPmrwD7m4LZKwyoG7vbnb3TtG4FJ9hcANj3J2VbygfLE/JQjXrd5bbwzveUPQ1ue5aOFldXq6Um2rs4+sLD3t/LNtIyz8k2l5vzVS11wFdjfAFYQqofsSOcMRbCzLbn4M8gnS07+kTg47LWmAKsESFaRWCuKbeEg57ltp53UbD6m48+c+GYMvt7HXmdoeeLkkeWPBc9tnK0DiWXyTbTMx/tbsmWRnNaVLcfGM47l2HPbJp7zXlRqVKwNQaNGgRWGvyv93eGspzN0Um1xLv4Myx87YOzMzwHNAWMHEYmD5u8OW18OeIJtodVCYpus5UVYZWDTkw9Mxzdi8JVQTGeVEPliLTYeO/nEfCyHCo/xTM/yWC7B6yyPL/p0Wm+2TBKPWZblu+0TC56zPKZjfmsJshyblmFD4E7jfwPYzmLo7DgrVCTCdi473wqUiygs75xEcABZIj+d9HeHVSh2rYqKhWtfxcXFhmgFWeuK6axCYEhY66t63sLCQikpKakiprFrauQTy6CS4gd7eZ1gHO/BNCSWyTy8N0N7LydRRp3WmVVMDKkUbT3svXnNKj1SQ+BaYH8hnPV01tfGW2Fh5/OcncoOpoBaIXWxOSzvSBxE9gMs5KN1XcjDpqDArNViLRQqEa598TXmJFpBaWlpRtlQHtgmto3tZHvtl7N4jSHz8uPM6enpVeXw1egsg+fMS1mjcqJiYjpaVKwHiWXasmx5vAfzk+z9GM9ybd15zjoSLIf1ZFzz5s3NPXjO/iLYPzzmvRqCRr3QMBzBoJJKMsXYohATEyuRyqv8HwXPEIu0JkpRcVaYhyYZr0WgVdFxpigcxcRFy6ksg6njlNYHEyA/0lSWVgVTDmPRIdF0vB5NY2tIbJ4L1ypZYUMKvn0n/mWXXVYl/BQQvpGVLzRkyHTsEDKdQsZOYrr6YAW0+n1tWH0Wqn7eFAbh/wrkGfnJ0BIHnwWvVb/OwVUfbF/awUtrgnynDBx22GHy7bffmuuMYxq++JIvNKRMOO9v+27zMNrPUWzet5sBdfVVlEtuznrJy8vDaUSS0zKkDGO8wlsuYW+hJMXHSVZ2G2nZqp1kZLbAvZEt5JO1a1ZKzvoc1DdWEpLScZs48QWg0ENcP/MbBdIiuyUoC0onGe3AeApjBMFr/fnn2bCQiqVNu9bSq1dvSQS/whDZouJ8WbF8qQR9fsQlS0xCimm7r6xQggG4nglQtlBYbTt2lgyMnwyUWVhUKMty10oRykuJTZCMtGYSRl0qoCxDyJuSkiwtW7SUVi1bYsylSGwd7HBiixSYTWoEAAwPQFt7EhMkhq0N+kXicVd0TNgHy0FjxUdGxMKs9dDfFkkEhcFUD9J5yypwnCSpzVKkuAJ+uwYlM80j/opCSUmG1i+vkNjkZlJeAZcpMVlKKsLQ2DD9UYW4QAE6JyhJyVlSUFAmiSlppmNiwCiqs+RE1AOdDPFjbUGcWcJQgsiPjobeNdFR9RptU03gTETFxA/bXn311UaAKZQ0l3v06CGffvqpCWlqO013hlbg64IdVMxLS4Ez2IYNG2TNmjVmduJg4UxIJco3wJLvdAE4ixIcRCRbJ+YnOItyUDVEie4IoLKgMqJSIJH37JOVK1eaePKBvGG63r17mzzkq81TVFRUxVPm46Am78lXI+uVVF0BjhkzRr788ssqRcgy+e2Ehx56qKr82oHyzETMQ45W9hWocqY2MZifImhLbDwHTlAmvfSCPPzgA1BIayWYmCplnjaQcMhZ2RLJTKJSTZOh+x8lF152owwb1lcSpExeeOohee7p52Te/DWS2aqflAdUwuKTuES4cRrdQhHyRVDuvXLK2FESF6NSmFch/31hktx33wPSsmULSUlPkDvuugvKCwoMd9x1j55y5+3/ki8/+AhyB4uqWUfJz8+X1qlhiY1QDyRJTkmZ7Ln/IfLk/Q/IrmnJcvGlF8jzUz6WZi1aSHpZSOIjCVKCGobjEs0YDEKZHjFypNx3z93SsX1rKDXIdULlBF3TEI2yCde2AOhAQ2i0hkBBHAdDIdWgTzVQoRoGeYtBZUysRSUV6o3gFHk3lPu1wFuhJd4SnDHGp5FgWMvLghrAWWlQ1Y8QhWm4NBdlIV3YqyUlpYpSlblKQTnFxVpevBbll2hZaYmGUH6ZF/XBNT/+hBGWlfD+YQ37cP+SIhyHcJ9SRVItLfcpbqu+QNic1wUMBBNCIBUzrFF7UEom7Ny5sy5cuNBch9ArlJ1Jb/NgABg+1UU2XU5OjmJwaW5urkJZKhSWwrzXbt26aYcOHXTw4ME6f/58xeyrUFQmDxSeyQ9lZUIMGBM667CjgzwnL+wxAeWvmAQUisTwsUuXLtqrVy+FMtHjjz9eV69erVBsJm1BQYEJCQzAqjLYD0SVrIPH5CnvRT6zr0jDhg0zskDZgCI0x+PGjTPp4L7+qb83p5CGI/4ohSHzJg7ySxkGQWSNMEd8aJ8f4yUEKtmgX73zXz3u4IHwXUSzdhmid730ti5f84u+/Nx43bVXZ9TBo30HHK7vffKDBny56i34XWd8+YqOPmgo8mRrVssBeutdT+mvi1fpd3N+0XsnPKkD9ztEr7z+BowHjpFCveC8szQtKV0fuucxnTXjF124YK6eePIJmpiSrZP+7xOMxyDyz9RHHrhVs5tnwAlqrsMOH6uTP/9M1y2fp199/Zkef87ZOmDUsTr559917azZetWpx+n5/zxPv/jja713/PWKqVY9Gdl6ywNP6lc//qbjbrxNx55zkc76bb4Zy/DuNoHH1akSWz1FU2vGo89iIgEowejCssTA4oC1hPkfputa8fsqZPWKVVKwsUAyUxIl3ZOMmckPa8orfsxwZWUbxVuRBzMVJq0fcwm3fmg8LKlUmBEiJQV54vWXSn5JiazO2SjrNxTAaYQFFomT4txCwRwpBZgBuBi4dtUaScCMFou6pKalwkTGLJkAkzg5AzNHjCSxXv4grEBYY8GQJGBWC8MqY71rIwiVIc7gtJI4W1t3weke8JzWFq8xjY3jcV1EqwvCLq1bt5bx48cLlKL5IAQtP1pay5YtM9bY7NmzZf/99zcuy7x580zdWD5neQwsYxnwHP1ZVTbT7OiwPKYFxbaTD9dcc43h1XPPPWfiVqxYYfhIfnzyyScyZMgQOfPMMwWKzFi5dMmYj1aXtVi5XsM+ICw/LTGNJeazljfrQouLxGMrL3VRGP7YJorKWvSY+6RgneOcXgUGhQRKi0VSPHLAAftLx47tjQVCq5yuXds27eXYY4+XK668Slq0aCXzf/tVfvrpJ6SJE0/zbBkwYIBktciG7RSRbIS77d5funbtKAN2HyDnnH22jL/9dunTp48UlRYZ+Zo6daop++STT47eA1brLbfcIkceeaQsW7rUGD+79Ogje/TfVZqlJsPiipMunTvJHiivVcs2MmjocLn3wYdk5KGHo8qpkoQ0o485Wi67+B8yuN+e0r1LBzOO4xPipVPXrrLvPv3l5FNPlWHDh5v2wsgwXhJnhD+BN7fWF9AoBSZQXkFvGfQWXLPEJAjKKnn40Qly/Mmnyj77DpaBe+8lRx52iNx1+79l6jdfyR+/z5HFixfLmvUb5ec5c+SIIw6UIYP6y6EH7S9jTzpFPv1kCpQayoZ57PcG5YmnnpSDRuwnu+7WU26++Rp59OF75ZwzTpP9Bg+Tw0eOlr2HHSL9Bw6R/Q/E4D5ouFx2wRnyxQdvQxH6JBbmJ9cIInRXYTbTdeT6WiJc3vgYPt1B4x3CWBNZRUHBorLggLCKjQJIAaYCYkiy10g8ro9YNt1DfnPyP//5jzlftWqVuQ+PCbo2HEx0LfkJr0svvVQ2btxolB/TcPCwDqwvwTgSy9gRwXZZYrvZfi4Ykx9XXXWVvP766wJr1biCVO7kL3lNhUI3m4prwYIFcuKJJ5rJoQVcGlsOQTfTLkBX7y/bt5bIZ97DXmc/MXTKT10EdRilKqUG2Uc3xsRyIuL9IcBmpHNxHhEYa1y/KoaiYe8uXbZUAv4QxoxXUjJboI1JRiE3a9UaCquFYH7GAFDxwmgoLStFnpDJS+MhZ0M+eDVJNuZukOHDBsuoo0ZJZnqmkXPWjeOUkypRjAmCa72wYMWT5IEapCMZlPLiIoz/Cm6pFx+MkliNkanfTpWvvv1WMpo1kzNOPUM6tG0v2W3ayP5HHCa92neFctoga1Yuw73iJTklWdbn5EqxV6RP3+5yxFFHSfcePdF+NNqpmazSIlXD1iswKANfUZ54YFlBmuSTz76UM8+/WK67+TYJwFj9z933yn133yX/vvFa2R2Ve/HpJ+Xo0UfKM88+B43cTDp06SI3XDdO9hu6p/z+68/y+cefyI033CJLl+ZISaFfktIy5ZDDDpX9DhwmgwbvKSMPP1COPfoIGXPkSGmLzpk/d5EsW7xaho44Sq66+mo5dtRI+eSdSXL2KSeZQT530Wp4+iJmHoUy8/nRm1Ay/rIS+PmxEvAGjMDVRRRmwgq3nWEJDiB7bAWWcRTEhoIz/Y033misLt6Dg9Cuq3z00UeGXnjhBXn22WfNUx5ixowZxsLgAKXSZD57fw4qCw7YHQ1WcdkJg+uTXHshOAFw8ZzKh31w3XXXyWeffSZvvfWWvP322zJ58mSzNsU8cNnlt99+k9NPP12WLFli+pEWL8umQmI/8Jiwoe1XhuQ1Q2uFsw/sUzbmJ7F/6gMVZ83kl0DQJ4meRPFB8USgtOI96E9YMqnZmZKWkSoJuHXLlq2MxZXVrLXMnf2bTHr9LUlJTZfTzjxDjj/xJLSVa8PxkpScKinwShKTEiWzebqxxNjuJYuXRPkJsWleuQbIzwSOHj0ano9X3n33XXP8xBNPCNxtOQBydwZ4hikSRkJAkmAtJUKxxrNeUEb5UIYLFyySnPwC2VhaLm2bJ6JuqGgCtTI8GSi9FBw2g87w+UJmfHlSUgSOmXCZL6NZBjylGNQ7ocoCq+yFWojBFgBCU7UuYHzycAHCfH3tv89o33794Qun6pmXXK8/z19h/NhIwI80FaoVG/WVpx/W/v166lHHHq0Lc/K4AgbffrkunvOxHnrQfpqVTf+9le43/CRdvijX+LnBSKmu3LhQp879TleUrNYAcmnEq28/9oBmxCZp892P0Mc//92soYULV+l7T9yie7RL1sS4WD35vCv0jzzVdajq+hLWHYlCrDcXGXDOCtYD004AA8OsfWHGVSgGw71ddtnFrLWQHxA6k46h5RGEuHJdo3a6/vrrzdoJrCxT9uGHH64lJSXmmoVd23r66ac1JSXF3Jt12XXXXXXmzJnmmk1j6+HMv6PAyh2sg83W+bgWNXbsWIUyUSgnw5+TTjpJoZCq8hDkEemuu+4y62FMRzruuOMUblNVfxG2bHu/2mjEiBGmL6DQqmQD1rS5r81fF0UilqIyw2xR4p+wesu58osxFKIAF6NiG9RfsEjPOemA6MP7rK7aasCBOmrMETps7746+vAj9bMvftAlOapFaAqkEGMwR/PX/qpHHcb1Oo9Zr9rnwFEqngzd54ADdMGKlUgFPgbD6sNYDgQ36rw/5uilF12usZKkUH+alurR/Q/cT5+c+JLmFft0Y3k+chTrN28/oy24ESAmVTNadNe9uvfWrKREHT/xSUUVNB918IHCvlLQWgy79WjWCn336VsUNq56srL1/pfe0VykYUs3oKnFPA5hTOEch2gDecmjmiiC+m01wI/yEslZu1Y++vADmb9woXSGf3v5VddIn24tZH1uoWQmhCUtISICjXrqaadIWnYr+WPZWimCyduudYwkwGLYsH69jLvsYnn93cny8svvyPc/TJWrr71KnnjyAUnP9si69XmyLmeDdOnYHaavV0LlZbjncglH/FKyZr0sX79BKjAbNEtPkqNhoX311Zfy63vT5dMvJ8ux562RdWvWyhdvvSgdMBNsWLFAWmY1F28oFjNasnnyqWbttWbQnKYLsmjRImNWc6a1oCvCbwDSMuKsSYsHgm9CcNZYQ5yp6wI/Tc/0tPY4m59yyilmJufTM66H0R3g2sxa8Pj888835d50002mHn/88YcsBM/79etn6matQYL14bm1GnYkkAckgjzmGtc333xj2kxcdNFFxhJj29dDtsgH7neipcavqXM7DF2/O++80/D9nXfeMWtou+22m6xbt66q/3iN1lpNsHydO3eu4T3LYxwUj3kyzc2ZzF8f/7nGRVgJtGH0yXhEWrbIkn/eeJ20ap2NSMSBQho2a0fw5KQZrKV2cNEWLPhRVi1cLAcc1NG0sXVrWIIoutzrkzTIVfOsFmZrgsRGx2Lv3r1gqSVIUnx0SxOrwbokJMZKAiy2vpCpa6+9VoYN218++fRjefX15+XbKVNlwfw1ZinmnHNOhDu+AY4NLDB4e9w20aF9Oxmyaw+JmwONhvhytKA5m4dqK5eY4mihBsULSzfor5BEGJRxsL5CMP9KSoPiaZYgyTDWojsE+MfyzkREDzdD5XV0VoNhZwrOHhoqB+XoBy/er9AdKgkePfCY03XBxoAWIW051XoYf0pz1bd2HqaEVVq4YbXO+OUXXVoc0EIWUQYLbOYHOveX6Tp//iI9dOTxqGka2pui48ZdAS0c0N+XztP3p36l6yuKtCIAPR0o0En3XKetUxNV+hyq//l0nhbT0gutV109TZ/+13malZmuktJWb372Cx1++k2YdVpghkzVNEgGNX+ixGF2wcxJrx0WUG1E9pDszM5Z1s649hpnXYY2PdPYY2dZNVFWVpZJR+uB5V5yySVVfObTRloCDAsLC81TR/J9v/32M3n4hO3NN9806Wm10fpiGsKGOxLIE1o95AnbCgVh4vlEsWvXrsaqgrJXKJWqeIL8Y1paX7SYyUMeMw/5CJfJ9JntO9sfDC3V1HdWBpjH5mMf2vS15duMmAbEtIaouRyUlZWqy5f9gcYXa6BinRlvvuIlesHph2psvGj3ISN1ORycN954S3u0a6NQE3rU6FN1wbroGKSNEvTmacH6eXr4iMEaDwu+++776BfTf9G5y9frLf+5S/9YuFh9GKZ8Ml/u36C5eYt12dKFsP5gAyFu3ZoN+uyzEzE2R6COyXrUmJN08arFKLlIp77ztPbO8mhiUpZeePE/jbH40lNP6T0vv6jLkaIQjgEMZC0qzdMAxyftsrKF+uFzt2hL6IzkVq104vtf6kZcgX2pefCKKLn0J6IWGO0vtoLuEhWKk4yPV/9TSKQyxNnFGeKPuU5LgIdcfOzVq5dkZ3MjJ9cC8IcXMAMmtWrFD+aZ9Yk9BwxAVILZExYMxECjp8iatWukd5/ucuO/rpQefTtJTJxfnnrqcXn4wUeloiwsLZp3ktIirshD3UNjR9SHGQ4zLjfkwerhTIwpmCveZta06xFc+LYzM+NC0SrD345aUmiZaUttZC0o3oPgfTjjkgcWzmMCglmv5WXBdRfuT2K5tMD23XdfU1+u0dD64yzONBggJh33o33//ffG6mMeWgu8TiuRsGUx3BFQvT/IW8tfy2NaqVyzIq/Ydq4p0gLiWo7dB8b+4xoOrVnyldYFF/DJJ4aW/7Yv2QfOPqxeD5JNy7w8J2gZs37W+q2epzpFrQgHVcqnBU/hQCEtjKc4aCzcMiYmTrw+PjiC/BTmy/TvZsrB+x8sIw4+FBZVonz2+SewLseDJwLrRqW4pMws9CclJUoIlk9eXg4szbWmvXyqzTvDoJM5v8yRFcuXG89i0qRJ5sk+70eenXvuuXI5LNesrGxZC35x4d/vrTAPRXwYhxqOyKrlK2TNooUyeNhQWG7DpLzUhzEr8tucxVJmdh1gDLFBGKob8wqQD3xGX+RtzEXfoZ245MHwZn1ouDUUjXAhYyRUWCz+IAY0KpaRnoZKF0tRfkA88bHSJjNe/KWl8tyTD8n61SukBezaxOatZHV+uZRFkszTyYN27Sir12yQNu07o21h6dO3m9z/4J1yzumnQnF55blnnpWcjaUycvTxcP0SxZOUIhHzBCYoAe4SCPmkoqQI8TD1I1BaJcWysaAIihHMSvBIWUmhjDhwf+meGSfZiWEJl24UD3orKIkShsaNwcRZlwtJQaYw8qnVlClTjCKhwJL4dJALnOxgpqMyoXKzLgjTUKDrAgcJF5j5kxcu+k6YMEH23ntv80ib4CJnmzZtzDE30lKBURFzcIwYMcK4PXSPeF8Le28ShbQpg+0kooN9c/Aa+b7nnnsa95ouIXnPrRLsl5deesm44VTwTNe2bVsTcnH/mWeeMUqNSugf//iH6UPyn/xmn3CC4D2pFO29agIfslAB8jplg/1Al/6AAw4w5TOuThgdSHOLAWSRR1HjDRSBK9gS7mMb9CVcPcor7hOBzZaV3crsVO+3Sx/p2rmDZLdsLpf84xKZv3i5TJkxS76a/Lm8++4ecurRh0l2q7YivhSjrOOhIbKyMjBWM6Rjuyxp36o5lF6MTJs6U95861W55NJTjbx//PHHsmzpOrnv3gclPYOTY1hSU1INnzp16Cjp4A8fDHTv3UcymjeX9evC0rlTZ+nQpzf8wpB40PaURI888cTzkhAJyildD5fU5AxRX7nEeFKlS7deguyS3aG9tGvdSuDBQdlCIUMhZqWlmAevXp9X0ioNkSiq90HlOTqqTqCTq9xGEjrJkAZhu4Y26qN3Xs2FNGPynnDm+cYE5DZVL6y8jevX6ZUXnq2Dd+2uLVJiae7BrInToYcfq+99PgU2YkDnTP9af/xxqpYFS2E2+mAYluttt1+taammF7VF6856233P6jrYxDQmNVSkE289W5tDT3h6D9a73/lBi7ywXX0wRPPn68Tbr1QwBffJ0Itvn6BLSuHFVi6OVi3io270bhuKxx9/3LgVECArXdq3b1+zsZSAsFaFll+GRw3APffco1BKhljuEUccoa+//ro+9thj+tprr+kTTzyht912m2JQacuWLRVWrKkHLLGq+3Ihm31DOOuyI6FGGQToDhLkEflHdw6D1Szs88HHK6+8Yvg5ceJEvfjii8019iUGo+HpnDlzTH7LP4uG8I+L+FB4VTLBfuEG2gaDMmmp6jDqNkGC1Bvg1m0f6sawXH+a/oVef9X52rtrthlv8a076fCjTtL333gXl336w9dTNatFO5W4DG3Va3e9/qZb9PmnJ+hdt1ytHdulIF40vU0LHXXSmXrrXY/qVdfcoLfcOl53322QDhy4r65Zt0B//eM7HbDHrjrqqGP02qtv1gcfeEzvuvsO3X33/tq/3z762adTULegvvzfx/SkI4co9JDGSLr26Lq3XjfuCh0//ma96MZr9Pzrb9Z4Twf95433akFpdNE/7F2vUz58WU88dG+FakJ9YnW/0cfrpE++1A3wY6k3SoMh9UXQx5W8iI56S06GkVTjbgXA/C1GbAxUZjj62HfF6pWyfOU6yc5qLkcdNUbSUzxSmF8o2c2byUEHHyy7DdhTPvjkMykqLZeLL79S7r33Punbu4eU5edKYXGRrINJ2RIzZKKHP6kpkZEHHyR5ubmwfBZJQVGp7HfgIXLIIQNhYJVDi5fKrOnfyJRpv0gZXNCRRxwpA3p2lCTUpbyoSF5761355ofZktQsCzPzBTJw967GzCzOLxZfWQkmuAisRsxomGmDoU17eGoi7rfirDN9+nQzs9P6sZYWLZ/jjjvOzGzkAcEQgm+u8xiDwpzXRpzxDzroIOnYsaNZiOb5cpjxb775pnz33XfGlOeGRN6b5bFcmu20Os455xxTB96DYL0InnPm52xN2pFg22PbRqLFROvp0EMPNRbn119/bXjFpY0PP/zQbAWglUurgps0yT9axgyPOuooQ8zHPAzpYvIay2UfWVlw9pvtZ0wwZpMsrRbmZdzAgQMhq4cYN5b1s/lrogDcryA8mADIlBvEOWTS3ifZkwwXsMTUlw7t7Nm/yBdffGU8joFDhkhy82zxou2tPEkyfOgQ6dClsyQkJkkkNdVsSchZsVLWrVouq1YullatWsouA/pJ2/adZM3KXJn3xzzJ37BOlixaBF0YL8ccM0YOPHgIZDxJ9tpzXznrzPPAB6+88MLz8tPM6bLvvoPl0UcmGKt/6bJ58n//97YsW75M9tprH9lrjwOMiztv0c+yev0qWbx4mSyct0gG7TUY5ZwuPXq0Q1nFEgmpfPXVNzJjxkwZsPee0rXvbhKCdZmV2Ux237WfpOLefvA/gVszwP9N0sujmggwaqwO1GaBhUOc+cq0tGCFPj3hfs3OStGkxFgdN+5yXbAg+hObIFcGgYULF+mgfYdglorVo48/SRcsW2U0LGeX6dMn68zffzHaN6e4UCsCZTgq04L1i/X0sUfzN+F6BWaSdSU+81OjSLBc33r6bk1D1Tv03UOfeedLs6SHCzrlk3e1e7tsY+mdde5FumBFrlZAUZtFygDqAu1ufnuE//ypQiAQXRCujWjZEPx5D1lF4uzNkD8lWrRokZmpIfCGJ3axmHEMeV4X8R4M7T340xS4j1X3sFYZrYrDDjtMMTCMhbZ06dLN6sl+IVgH3tse74hwyiJ5x5C8tu299tprzXaUdu3a/WkxHkpehwwZogcffLCOGTNms58M8cGH7Rc+NCHIS8tjxvM+JMoFafjw4VX9Y+/BbRSEs39qIz88B78XfgfJ51cvy/aTUL6/QkvKijVgxhn7NKBBf5nmrl2pIW+JBuG9cKSsLoBrwp/OlcH3KeF2CwSg3ApYMsjqLynVstzliC9Qfzhfy0LlmlcCawdiV1SI8VtcrhVl0THhC+RpacXa6P1wjqro+nV5WlScDx6BvxAzs/0ogrHh26B5+ctQ91INwRmLoLzcgg1a6N2g+cUbcR28Q3reJ1pe1Josyc9RbyG8JRTEVq3OL9CNpeVm0d4LfgdhfeGi+enf5lbXJjhjttoCY39VVJRJWrNMaOE9JQWz0Mac9fL5p5/AJ14HxRgjCxcvlTXrNsqvc+fLt9Omw29OliMOP1yG7rsPZpgKmfzNp/LUc8/KwmVrYH2lyy69ekpiXCIss3xp1iJLdundXeYvmietO7STQw49xCzYfvrhR/IhZtX5i5ZLMKLmV/TccvzhBx/KY088JUuWr5QTTjhJrrrqSunXp5tE+Dw5EpJErkdBG5rFxFiuV3CNKrrDmbNtTQT+mJbSCqKFxHPOhhgsZp3k7LPPNju5MYiMBWTzmRkTobUQaiNep7WEQWF+4sLFUs683DbBNRs+FOF1rqk89dRTZosABqe0b9/e1IGzPsuw9bTlESx/RwXbSYISMDywFhXjyMezzjrL9AkXpLt06WLWwvgACcrfWE3nnXee4SMtWCgmUyb7j3xkedX7096vOr344otmqwZh+2Dw4MHGqoZSrJKD2gilVB7jiOeVssiQ54kJaBssG6Ic3ksi3/KAuIT4JCn3wcJPjJOkuBjxIB4VkqC3XOKSPVLmr3writcnfK+Bh0uhibFSVlEOwUjEebKE+cs/jOG09GRYO7AUuc4WF8C1JMTTEuXP02JhkSVLamr0QUjAX/kgITYk8QmxGM9p8B+TxFeCetAnTIlDvMAbipEE/IvhBnI4J0nm4SwQw58JJiFNihQXl4nivsmwutJQZ27n4A+6PcaTwDjDvbnux1pGKRpUlmRgroDxzrg/wV7+UxjDp3R8nUeJpCagYpGwFGzYIG+88ZZ8/NmX8tu8xRLg7xoTU6RL955mEI456nAZuMcuEou0v/0+S/5567Xy0y+/SnxSaznh+DPkrttvlnBFRDL4EE3LROKD5qlKID5FRhw8Wl57/XV5/omJsvqPudKlUxfJLauQCigiPkTAJArhGSRnnH6qHHnYoegUNYLAJx18DUjELNpD+UCf2bXVCDttM5ZsDnYa3UbuK+IiOgWbAs6Bw6dc3DFPJcNFeLoRFD6CSoRpKeR1geUwDfNynxIHGQWP+7u6desmsBDMwwIOBJuOdSLxaSvj2B/2XlZ57eiwMsg2U/mT71QYdmLhE8esrCwz4fEaeUWXjuDvTumqk8/kG3nG8njO/HaCIpHfBK+zfIZOGjlypHH1WQ+WRYwbN848bGH+uvrDSIZZxEf5JLOIz9BEGbDufNUMVR3ljoJelM+3tSRLYlqy8Hci+XnrpUM8H2KhMAwcPpENpKQZpRbjjZg3v4g/D8oCCggKLy6+GUqDkisW4dYwKg0/lFWSB3xK5dP2iHh9UEBx/G2oSGEhXNjEkFFcmRkwFoBwxCfeUKn4EJme3EriyiGHuE1pUqnExfqlWSBR/GVh8SZmQEFCqWG8+8uLJDE9S0or/BIT5oMSpIFxwYd38eBTguGVit+477i/4T2ZYSkaGB5Fz6JX0BH2vEbYy38KwXD+JCGBrQyjUrZYKIXycq8Ul/mlxBuCFvZIYnKqtGnTjEtmEh8DoVF0SlxY1mxYCQXngRJMgIWUIR2QJg4zAyYVlMOfYqCLEhOkHGVKnEdCgRjZsCZHMmIT0EGYnVI8sqGgUAK4zM10LeDnexLjofFRv2AATA9hwqFGj0WdKiQlLd087SB4C/BpU71rADc48ge/VGB8TQpBQacC4Y9cua7CkGswFDBeozCTKPBWodUGzv4cJHxSRmuA5XAAccBREO32CN6PZdPKsBYHlSYHa3UwLQcPy9gZQB5SUZAnfPRvrSqrfKhY2A+M43olecxrdpIhP528tLwmD1mmhVVgNiRo0fEnSiyDfc57NPR1OpS/TdoK5eHQiCZCK5G8SistmhaOBryHeNSN8GHyC8RFYDwkShysM1QaAg0lCMvFHwc55A93Sv2SButJoGwkhk/moTSgPGI0xfx0h/Lvh4nELRa8iTdQIMmmzh5M7vRSaJFCOUf4RDVeyktCkpqWAAVXan5CGEQmpJBY3h4WmA9jOhAukgyF7IXiJcytG2hUEjfQonUKC4xqno/CwtHqGHATLXzUSn4r2ln521QzfqJcICy7NuMPOsOebzGowKKFoIIsBmRK4wBGyMrDTjPmsDGTcYlMi618mOcP+lApxtJcjy5UUg+bKDaVDwqQjmUYW4ktQMGxLJw3QrnMz0cyFkaBRFOb+zI/YispemaxKReKrVQ4Vkh5TIVBJbK9XmjohHNwWCKsQrT3ZuiiYaBCsfxy8tGeN6SPbF+ybzmoaDVb5ccHB9OmTTN9ZeMoJ5zwqMCM1QQ479kQWBmtMbXjYgjjjnIOPUYBMnEcD2FzH7QV8RybiOEBvBBmR5uVCm6TJ2LKZIRRLzwxoxBtZxzPecDMlfyCEcLywkZGYdVFMG5wFIb1wXvFw4WkAtXKCYB1jMJ5VBtsCos/p3SWsWWjrBqgllAIK8+3poKgYaNvUEWxXH2H6SjQ3jS9NATzCxYR4+jukTmK2UBCaCw6HmrXXI8oXUKoRqNuuS4BAoMMb2GJUVuz44IgP6ws/vA1jLwRqnTkJRlBqfKfbRgFjyz93eAUcB5XP3exZbAK30nE352XrF2tNXRc5AYO7uePoD0RtJXLJJzMGR8L5WJ2/cBiMNv2Y6i0YChgnHIHQYwxDipRdTMqLiodG8E0VBeV50YjblJmUF0mB3+iFAPib1viOF5xP9aHuaI5azqqDTZF7SmdVzi6G43ahIMzFi0ShpY4U1GwSPVdJ1gejxnvTM+QVg+JpjrPmYbpnRZMU4PlZXVyseWwckTaEXlaU5u2hOpDTXm2hP4X2CYKzMJW2jaASsTpFtHEru4m1XXdCZvWXmdIc96u+dh4e2+rAJsKbL3rIxcNh1OBOZXYzgKn3NREjUVNZTrpf4FtNsprqrhTcIjqjarvenXwuiVnvuqor5y/K5xtc5KNd7FlsHxz0o6EmtrnpMaipjKd9HfAdjFTbAPp0jmp+oCs77oTNs6mIdFttC6lzV89X1ODbWd1ctF4WKueoT120bSxzRWYc7BZl6860VW07mJNZK9bQauN+JTJupE2vQsXNcHKhlN+XDR9bFcLzGktOam6xVWd7HVbTm3ExXu7/8qmd+GiNjgVl6vAdgw0rZXu7QgqTivUVISugO9YYJ86J0cuO7ho+nAVmAsXLposXAXmwoWLJgtXgblw4aLJwlVgLly4aLJwFZgLFy6aLFwF5sKFiyaLRikwbjTYms0GW5vPhQsXm/DXjz9bkpP+t9hqBVZr1Wu6QHIcVot24cLFFqLWsVTTBZLjsFr0VgK5uVdS+V4skj0nRS/XdoM6Lm0xtokLuSWV2VYVd+HCRRR/3fhDaTUpLiec5zVdbyTcNTAXLlw0HvwVn6X/IVwF5sKFi60EtBV/f7wlv0HexgpuqxUY62HrsiV1cubZknwuXLjYBOf42ZJx5MyzJflqhy2pAaVVJmlg6gah0RbY1lRkW1XehYudHX/d+GMpNRADJ6qfb2M0SoE5qr2pntUjLTkOHVEuXLjYStQ4nqpHWnIcOqIaieolgvgxHmfUdoa7BubChYutg1NROel/iFi+zdT57iu+EZXftLNvRa1+nWAaC74R1cLG8yMbzMP8FjxnfPU4J9m3sdpyeMx4fp+xJrBuvL9N76yX87g2VL+/hX1hYn2waaqndZZVF2w6flfSgh9ZtXzidR4TbCfJnvNttDs7yA/LQ/vlbcqEBT8OTFkmKENO/lkwf3Wi7DREfupDTWWTLGq65qT6YNNY+WGdLR9qA3lgZaf6Pcgbyx9ec/KA8mh5a8doiDKKc1KEda48pgz/r2AsMA5AVtwKhH3HPMG3nfI6K20bxxfD2cbZj3fy3MYxP9OyjNrK5TnLJTmZxessn7BpeA8eUyBtHVgflme/iuyM57Et438N1rOhYL0JvlmWXwGnYPEL0WwX22HbSFg+WAGs66vPOwts33PAZGRkGN5TXvn1bcoAP0rMOB7zq9xWjjgQ7SBj/upE2bHyw3MLe2zTNQTOPM5wW8AqFH5akAqaMkQ+EM5JkXJEuSHIA8oO2888TGeVPGXNypsds5Q18o/jkrxlHMch+RMIBsQX8BulFdaIVHijhkYqZPh/pcRibYVZQR4zpDJhxa0l5rxuYQYYGqb87D9awE+DWw1sjvhBTRzHxMUaQs9xdEvQj0ZXeCWA8tkBvBeZ4VRcFnYQk4FMR8YznQXjyGiGtt4UEGc9/xdgp1YP7XF92Lhxo2l3ZmamEYyCggIzizI/+c/ByL6wAkhhJZyWxs4Ky2cqfYK8JNLT0w3vCgsLzXXKBY85qDgISTZPQ7E1Cqh6ni3J2xBQGXnLKyQchIKGXGQ0a2bGXF5Bvnhwzg8/8zyWYwtUQQMgwA9Ai2k/FTzlieWQR4QN7VizodUFbAMng3IoP48nGefRMRsXG4eyUsBvc2qUGA+jp/aoOjUesVQOHAwkq0DYwVQCbCDjWHk7IJluk9KINy4vFRnBxoX55W2k5TWv32fMTJbB/LwX03g8HjDGY+KsgPEayyXZ+pB5lqEE60QmMg1DMpbpGFYXDiqD+sA8dVF9sDxxoqa42sA6tmzZ0vB31apVkpWVZYj8Z9spZAwpYCQqN9aLcS6iVgL5Qf5RDlq1aiV5eXmyfv16w7vmzZsb2aAM8ZhxtDo2bNhg8jPekpXFhvZfQ+SjPlg5q43qQ8Dnl0TICttIS8paXfGIYysSEhIlGObX7qMTPBUPy41grPm9PiNPVOr2ftZQID/Jp+Li4qrrlEnGkc9RAyFGSsvKYYWFpBRK1I+QoPESCAVrUE+MqYkah1hWmI1zKgdW2lpgPGcaCyoja4aSEYgwSswqHV+ltUBF5oGSSoinCxprmMPyISESYjoyA+mYh9cIO1DJLNbJuoysG+tklRyvMR3rxTiazrzODuR1CiFnFqdQbg01FDatM2wIcYJg+ykgnTp1MlbCjz/+aJTZkiVL5Ndff5XVq1ebviBPbD+Qjzzf2WEVOXlJ0HJt0aKFtG3b1vBw2rRpsm7dOqOwyEvylIOYkwZBfjrJlmNDJ6pfqylNddSXh+dbS/hjKA5yQAOC8k6ZoMKiXFnE08jA+GMeyho9JSIO49ZOllaBkQcMObbIp2aw6BjSCyBo2VqDJiUlWZJxjWFqagqUJKqDNLFUdhjz5RXlNagnxljaNohlZVkpayVRWXCmYsV5TCGxmpsDxyghwI9GGEYCNr9VhNEyYXbCP/bBCvP6vCZtEiyveFzjDMHyaGbSGmNeKh4qIHsPDlqWx+ssk/l5zrQEFReJTGaHMR0ZzDRUZkxXXUCrE8usi+pDTemdYU33dJJtJ0Mq4f/85z8yYsQIGTlypAwfPlwOPPBAuf7662X58uWSk5NjBifdpPoWancm0Eqwg5cyRd6QV3feeaeMGjVKDj74YNlzzz1l2LBhhpcLFiwwE4UZzJV9ZcH8lizYT4TtT2dYH2rKsyVUHxIh8wRlYt68eUZBc0zQnSsuLTEeEEELjPEJHHsg8mzx4sWyeNEimTNnjuEHwbFD4vncuXPNNRoR5Cll0JRdeX3BgoUIi2TOb3/IosXLzBgNQ4tVUC+grNSUTUp0c/CqpcYjBpWCUo6YDqWiImha0gznTMZ4atw2bdpErS6kpXKg9RQPRrFx1NCZWc2NNbZm3VqjwDp37mKUVwIaZmYBlOuHgsrfmGfKM4rOkySZMO3tug4HM8t2WhdLly418cQuu+xi7s8Bz3ScXan4qMB4TyouMjg7O9soNNa9LjgFtSbwviz78ccfl8suu8yk5315/+7du8tnn31mQprW5B3Ts+68znqwrnWB9WO9r7vuOnnyySdNGXZRlfkpxCyjX79+RlHff//9ss8++5hr9p47M8g/8psDii4icdZZZ8mHH35o5MsqKoL848Clm7n33nvLE088YeSbsEqLfWuPSeS/7UvKGcu0HgDjOdHQymM6G0c5eeSRR6r60MKWaY+J+uSD9akNLIFrX9988428+OKL8tEnH0tGZqaMu/IKo7BLMCaptDMwqdvxV5ifL1989rlMmjRJfvvtNymDldSnb1/Ds3bt2hletW7dWr7//nt57rnnqsYaZXLfffeVK664QgYMGCCvvvqqXH/DjRIHDystI0PGnnyyXHXlldI8MwMKzCspNErMHaP1jK6GV1dcvML2RdNtNXz+gAajSgz9ENGc9Wv13zffqO3atNT+u/bVnj266RGHj9TPP/8cV1X9gbBW+ELq9flxFtDnJjyiQ/ceoLvv0kf79Omr7Tt31cuuvkbX5eWpP+jTUCigPqT97ff5etv4e3TPvQZp61YttXvXjtq7e2e9ctzF+uNPPyj8ZpQXRSjoBfn0yQlPa//d99JWbVrrmDGjddp33+mMGT/p7N/maU7uBj1z7LHap1tb3W23frrXvoO1TdeeevbF43T+0hXqDQQ14Pdq0FcB8uLYp3601e8PVlGAaQKBWgkK0dTnscceM5yH4CmE0hxDcemiRYsM35iOIToa7Q2hbH9VWBdBOPSUU04x5UFYFROEIQw2zcjI0MzMTMWgqboO5aXLli0zeV1A+tBH5DOJvD/uuOMMr6DYTQiL3PCQ/ISCM3HwLkyIwW36DRaGYjIw+aF0TJkYyIbYPzxnyOuMY3qmY7jffvuZfqFcsJ8YXn755aZuTG/72cqTLdfW2cbXRrzvJgo5CGMl7Ncfp3yhu/fpgTG1j7725jv6ww/T9c47x+tuA/fRw8YcqyvX56AmGLURn86cPlXPPPsCTUzN0j59d9fHHp2gX3z5tRnX77wxSQ8cPkR79+qu7//fO7pu1TJ94dkntXPHNoZXew0apO+8/4GWe8tRWkR/n79AL7z0cj3q2OP04Scm6K9z52sFxlIId/OjrgyDEdQ5eneTJ/qXMZYY13gIb8biogUGtThvvc6e8a3ee8fN2rldtibCs/Qkxumpp56my1euQwrV3CIIDsKCjYv10Xuu1l07NlPYApqV0UJvveNBnTZ7nhZ6AyjYBwroB+98qCMOOQbMaK7HnnqhvvPBu/r6a0/rNRefpt3apWuP3p31zvvu0bJyDExUo3DjCn3ogTs0Jb2VjrvmFn3trdf1vy8/r6eePBaKYxd9/o2PtbjCp7O/ek1vvOAoCA7UenKannbdeH1/1mJdXRHR0mBEg95S9RagE6EQywrztby0Qiu8IS0p8WtpqR+C6zPCWxtZxfTggw8aQWVn2rBXr166cOFCI6CwQg0xD89hkRohh1tohI/njOcxBZ8hr59zzjmmLA40hhdffLFOnz5dp06dagTrhx9+0P/+97/mGqxUozz32GMPXbNmDTvMCDnrR7IDw4L3aOpge2pqB9vLePLb4vjjjzc8gsVs+EVF8tNPP+lHH32k32Hi+/HHH81EBIvNKBqGcNN19erVJn9ubq7pG4L9xv6iEqqLmJ+Ki2XxnqRx48ZVyYBTlmomKs+oAo2SdzPixI+m4rgcZXo1HMGYwggMhb3o/EK948rTtaVH9C4oo+hUG9QVyxbqfx6dqEMOP14Xr84Fs0Ka+9tUvfrME1RimmnfYcfqF9P+gOlB86MSviJ9ZeKD2r1Ta33/7VdwIU/XLf5JDztwL+RBm266SReuy8GYD+u8xfP1xjv+o5M++FgLyyqM1iD5aQwEYQjh2KminGTj7bVtAfFioPsg/F5oVw2BMRFSma5fMVdvvvYSHT5ogKZ44rVr12767bSftAgys6GErFL9/LOX9Yn7r9Tzjz9Ye7RopqOPPEFnz11jmIlSNBKo0NnfT9WBu++Lzs3U8664Sxesr9ASKBRVFBLO1wfGX42BKZrZIl0ffOhx07Lly37H/VrrgD2G6qxfFqLBZExAP/n0Kx2y/5F6x2P/NQpUS+bqZy/8S9tCCaZ366X3vjNZ50IHrq+8v0ZgCRVDgbHDYQmybAqEpfrAgUJMmDChaoaFa2rCnj17GqEnrPKwg43HzFtdoVDoCbi+RllR4LOyskx47rnnKlweU5Zz0HIwPPvss5tZFYMHD9aZM2dWpSVVH+y27k0ZbE/1dli+su3EihUr9Nhjj61STOTRpZdeWjVROPMzDq666UOmI8GdNP1BcELgxGLLrg9Dhw6tKof35uR21VVXVV5tCFi32vspGAxjYizFERQ2lFdJaQGUFzyKEEZYuEDvvvIkzcC99xt1nH74w6/qqyhCUr9+PWueXvrvB/S7n+chXVDfuv8G7QpFJwmt9PbnPtcCiEkehvv6Qr/mbsgzyjB30SwYLf/U2T9OVv/GBTrn27e0V6c0zWqRrEeddpquKCnX7378Xk845QR95IX/6m8r1qgfVSdPSZbP/BsKo49wD9s6EiWzOkVzNA5mw1QifPuYePijkaCE/F6Jg1uK+kjv3n0EilV+m7vQLBRCWGT3PQfCrxbx+oKyas16iUtMFk9KhqzNK5Z2ZRWS4EmVirAIV7G8OH9y4jMy69dfJSOrowzf/yBp2yZZSooKpSRQJO1btZYxxxwvn33xiXz73Xx58fnnZRjSxEG+KkIxUrRkvkz78iPp3ulkSUpvJnsNPVhGnbABvn+5xEmIz5GlrLxc1ueUiqTRz+cTEK5diZRF/HLXnTfLgl9/kfgEj0RiEySoiaY9RFwcHzpwDaL2dQiuqXHhnAueGDSVsVFwjfD00083Gwch+GYthmkgxFWLsFzb4zoM1+O4XsW1Re73Yvr33nvPPHRgHITeLDpDCEzZ3ArAcnnOtGeccYY5vu2228x9YZmZNBg0VXnsegvPGU9q6qjeBvKU7SPx2MbBYq1ae7zkkkvMGhQmC7MORZDHfPJIHmGiMCEX9GH1mMXqI444wqwzMj3L4Lok13XZb3WBC9uE5T3zvvPOO2assN/tU9LaEW3DpnUghpvazHKbNcuQm266UTp37mjqwwV6PvGTYFh6YXz27pUtU7+eLCvW5sjoffvKpZdcLLv130OyWrWTPh2bSWHOOvnwo0+kBKzo3K+ndGzfTsIQ5ZRkUArGQxnXn4PSqns3OfHkkyGTqZLYLEXS0jOka9eusui73w3vfp0zR5556G7p3KmjnH0m5VG41VNiWB+eGDeI/cG1u837jWCMbS2xeUsbgXI/fHGYfsGAD9Ym/PaKAvWV5Or8OT/o+2+9rNO++Vx7dO2siYlJetSYE3Tu4jXqheqcMv0nfe+Dl3TK12/ouPPGQjVgJjjwGGjmMl0HYwf2lW4syNcuHTtqfFymDoLp+vbkBVqIeBr+MDihtb26eumvOurAXRRs1M6duuunX8/QVTDhjz/9FGpX7d2hvZ5+8ij4+K9oDjLOXRvUNQU+1BMllc/TSQ+P0/hEzICt2urdb3yuy1E270FnYOSI/RQiaOrGsmJjEsHDpEricdQdrI0gyCbkjA1hqoq361Ik61I6r1e/RrJrLySm5RoX3R1aVLNnzzZuS04OzHRYF9Z6oBuCwYeWYLbCjEJrrW3btqbcKVOmmDS0GkgW1S2xpgy2mWSP2S5aR7SSaM3S7aIV3LdvX8NXDDTjfhNQIsatt7zgMXnJc/J6t912M/3YrVs3k5cWlO3vLSXmZUgXln3DdUwbt2XEPJSZTZSZ2VxnzZoJayWoFd4SWF+UbB86GnLhX6mP3nm1Nu/cXSUlW2GCaL8+3fSqW+7SFUURLQfrli2YpyP7t9csXGvXa6C+Nnme0qYrhpFZDAehPIA/PpQVjo6acBBhZKP+Mf0D7d8TZcYjX99+mtK2owrm5tPOOEXnLV9txnCJN6j+EHwjsBiOnPpQFozGzSyvmmhbwihLhOYJBDUpH81yuwM1KjejDhq0r+w9cG9z/YsvPpeff54FXossglXiSUmXDp26SUFRKZLHizcQxMSAWRJl0l5BW8xjW4GWDqE72rbrYHoqp6BY/GaDHZ/8xCO+PWY9kXW0Lmb8KClpqXL1NdfIqCNHyco1azGrfSj/+Mc/5OJ/XCGLFi5ACSqJyagjpiKN4aNf1gj3DHIPWvQ4EgqbPSkWvG/0FwGmabjGnynxeNNTp+rENhO0giD45pjgzAjhrzp2hsxHK4wgP/kUk6A1xzS8zrI4+9NK4EzPtvE6nwBxCwCtCW6rYMj8GKRyww03mHx86sv+spsxd2bQwqUlSguLoAX173//21iptJzJf/KV1hCv8Ukl+/LGG280T+HIz2XLlpknlHYMWNDaYT/WR7TW2KcE3H1zT4Ysz8pR7RSVxZqvRctk+QTLtWUaUKDhh1x21TXy9MSn5aTTT5OOHdvAW1gmD957j1xy8YWyfm2ekbMKP+QXqeNZZ3gcLIHFYOhIXAItqLCo+RkQN6KbkWIsq6SkZFFkbNmipfTvt6ukp6XIpx99JA8/+ADyYLyFYQ0jLTex8gc5LIsb803VKmHuhRgnoTWV5Ey5dYhP5E15EAtzV/nToLB5POtHo/lzAf4E4cgjj4Sb97UUFZcbc33Y8AOMKdu8eZZkZ7eUCq8fDImDW+nHwE4QD8Y2GcbfSsXH8/eQ3L3Pnw5Ru6TCPUqXJLhvceAON7VqnEd8yBCXlCipyUmSCkWz1267yb9uuV2GDBkq7388SabN+FXefek5+XH6dLnv/jtl7OgDcIOwJJDJKJX1Tud+MPiusK7FgzJOOOF46derJ9zcFJhDiXAh483OYSovusmx/FMHEyngdOW4H+aDDz4wSotCSwGle3DBBReY6zy3LiSVlBU2DgimY8hrHHBMx2sse8KECWaAcfPqmDFj5KWXXoLb3tuUwUFF8NE/94c99dRTRng5AM877zw54IADNhNoHhNO4d+RYNvEkH1g+duxY0ezdeGee+4xvJwO+Rg7dqx51N++ffuqvmKfcFK4/PLLjftOHnPCOProo6v211FpMS3LZlnsr7rwxhtvmI3GLIuKhn3KLRrcXsHJqX5Y2bP9xXBT37GMxMQEUz+C8hd1ITFuYCxUbMyVtKzWcuRhB8k++w6WhceOkDdff12e/e/bMvnLz2XlP86TjlkpkpyaDnWB9iUlSMBXYZQPhr1RIVRYSTQGfDyLKi4MSoyrJBgW7UTmrpHDDxsp559/gTx657/k8UefkPfffVf23GOgnHXWKcaN9CJvTAw3xMcaRcbVKGJTS4jKtho5JeHqtpBTNMCALmQ4CMPQmKheXbVsrr739itaWpynK1cs0yFDh+GuCdq+cx/99/gH9b2PPtcly//QdWvm6UmjR2p6YircxDE6Dy4enR4apMtWLdM9dt8Vpnkz3WvfI/Xtr+ZqHu7HpewKP1IEi3T+L9N01JgRxjzt2KWvTpk6Q4tL1+uadYvNQn1hSUhn//qj3nr79Tp40GDUwaMjjj5FF69cgUKW6VtP36rJaXGa1LaDPvbel8rnc0UsP8itBnCJ4Q4rn97QBUFM1bJ6A2xZCL0JufALITVugXUnoWgUVpC5bt02m57HFk73jqDbY+Meeugh05t0JxlCKemjjz6q9957r7l2//3369VXX23cT94XgmzcFD5dw+A1xHuRqruOti5NGU6eWvCcbWXboZxMHF3Cu+++27jYtp9GjRqlmBAML8ePH6+YAMyTSfKZ6ezTyuXLl5vySIS9X/V+qwkHHXSQKcNJfArZcPBedfeT1wt3EWnsIj5dSJ+/WMP+An3r+Qf1w7deiLpzoGCgXBcv/EOPOmEstFKG3nbX/eorK9FHbr1aM2j6eLL0lof/q2W4ZYE3oqsKK3QdeKdapr6SNVpQuF5D4XL1Fi3XWVP/T7t1SNfsFul62HEn6bKcAv3x+++0W3turYjT1u2761dTf9QysK0CYldUAXlEST4ck5OUxE0t4xFiIrgSQSpL9bS9IYD1xL0vfg2HuIUhoCF/qfrL83X+H7P0pRee0rWrlyFZWG+6+d+amp6lMfFp2m/AUJ015w/Eg2HzZuiJRxyiMKR170GH6Yzf1+tKONl8ElnhLdJzTz8Rvnm8tmrTW9/9Yo7mow05xQVaUrwWxRbprz9M1n2GDwJzU3TIfiO1sKBUf5k1WR9/7C5duwGdhXIgrlpWlqtvv/qSNm+WrXsdcLh+PX0GbrBKJ9w1TuMxaXradNDbnn5Vl0L/skNLK8o05CvScnQK21VUXKIlFQEtB4fLytBJZWWwmp2PtP9M+fn5ZpBwGwUsJ7O+wXUTCir3gc2fP9+sxcBKMoMIs3bVOfNzDYvrNYznmgyfMtr1G65zEXaPGYn3sMckDkQOSB5zXYXXR4wYUfXon4OMA47EAW0HIeFUZk0V1ZWyBdtr460SI2677baqp7Ukyzv2GfnHY04EDMnbM844Q+fOnWvysq/JT/YL+8/2UV00ZMiQzfqIdMUVV5hy2OfV5enPVNM2Cm7tiVJBQRHK4l5FjE+OTW5LUr96IdcBb75eceFYPfSAQfrFtO81t4xmQUArygr1H1dcrXFpWfrCK68jLqzzfvxazz5pDIyEZO3Yb5B+OfUnlBJdJy6FBcOyPv9okr4y6UXdWMAnsoW6YeUcPerQfY3Pd9HVN2gJ9E3IV6Gfvve2jjj4UI1NSNOjTzpDf1u80pRV7MW4gs6nWqIUcm2sdgVGg2LbKLC4W2759638XRQXwyAZEsvHeFBsEBLJLyiUvQcOMmYhXcXvvvtecjdshIl8uBwxcgRcNqgmOIvTJk+ReXMXSa9ddpPTzjxD0jPgP8M6hGMobVtky+9z5smiJUslu0VrGQgTu21WMsxZ2JkwX+8cf6e898GnstfgYfLvf94i/XfpIatXLZJ77r1P1uaUySGH7Id6+SUZ5m8ELuM7//eBpLVoJWecfrK0aO6RvJwcef/zbyUEF3js6WdJv75dkC4oGZ5E4+8nJCahhnFm13Ac3Nk4uI1JMHUTYOfGmvPoGzhqIoJuxM8//ywfwfcnILDGxeDvyPgUkju7MZjME0WCrgTdRIYsg+4OTX+WQ/eE54xnHI/79u1rdoRD6M06DQTZ5GeZBNMeddRR5knQ4MGD5emnnzauDwa3Scf6kFgWyYJxTR1sT03tsG2mC0m+kdc85k+vyBfymWuLdAPJI8aRj+Qpl0PoWnKXOnnJdTHG031kmUzP/OwfHrMOLJ99zpDjgtcI7mjnk3nmYxyv8ZcSvAfLtH3Me9s+t2H02F6zMshwkzza/uUyDNdzSeEIV5f5lDsis2fNlu9+mCHeoMj6detk6YJ5Zhli0ptvywknnigXXXCepKV4pGXbNnC1O0lJQGX6tGnyzeQvZGN+vmwoKJOZP82Qn3+YKitXLJd2nbuZnfl8cv/i8y/IBx9/KpjwZf3GIniVYdmzX0+zxPP1t9Nk/oJFsmDuPPlp9myzI6FH9+6SkeGByx42YwtzDNxd9JPhVE3AFfMmi8bJadxtt95yKw/CYXQymErlxTWZF154Ub78arJZg+nXr7+0aNlKvpnyrSxYuMisG4wZdZgsW/SHvPHqy/LNF5MlN79Y8ovK+OhNmmVlSvNMKKmEiLTv1EG6d+wq8+Ytkq++nSobN66DgimURXN/k4fvfVC+n/GTdO3V0/jYIw45HP54rOQVbJSPP/kUaUtk3ZocyV2/FAryd3n44QlSWFohV1xzteyxW1+Z9+NUCNHr8v2seUZJRWLiJCszS/p07SgxUHpxZlKMkUgshItn5BkbrWGEfADAs9oZSMGn0MJlk08//bRq4FgFdtppp5mQg4fpKLQUPF6n4DKsCxx83F4xcOBAOe6448xg4poKy+TPpnjt8MMPNz/r4HobH/dzbYz34wBgXXZmkNeWD5RT8otKngqECp+/DeSaIvnKn8JxIpg4cSJk7Xw55phjTH/ZPrXK0kkWvGb7lqHt21deeUVWrlxZlZ8KbNCgQabPKDuMI5zlOcuNGm2EjWO46XpUjpiX+Wwc11ej61Vx8Qly3Akny4A995Y3Xp8kE594zCjus889T+76z52SDKUcCgXg/0SkbefOsu+Q4dKlaxcpzMuVH2bMkDfffleWLl4ou/bsLGNGj5bBww40k+gnH/yffPzRhxgzsbL/wYdKQZlfVkFR792/j8z9/Td57fW3ZNCQIdK2U2fz4I3Ks0f3bqCups2mrnUqsMrYbaDAYN3QFI+ad/z5zqqVS/Xeu8drt64dtHXrLD3woP10+g8/mI1p773/iZ597sX65dfTjYl7339u0t7t03VQ9/Y6asgwHbTHMM1u3V2vvvk2zSngJs982KirYFd6dcOq9XrjTXdp9967aeeOzbVfr9a639CBetP11+iCP35EWr/6YFWuLwjogjWr9MXXX9YFcxfo3XAL9titi3bu2lIPOWKMTvq/z80a2oqVi/TM4w7WfXbtAJd2V+07aKimdOypx5x9oS5fy5UwGLZB+LKhcg3A3eDWjwoQffQI18dQp3Bo009RaiK6AURDfkpE0J3hOfMS1curTkxLV4WP+Am6l3QPeU4XhW4Ft1ZY8Jz5GLrYHOQdlItxpQn+WoHbJshHuvLko12zJM/p8tPVIzEP+cr87BMnGE+wb3mdeZmH4f77729kAYO2yv23PyViH7FcS7Z8e4+onDA+ei1KXMtkfJS4kZVxETNGWQ+kDVdoAHLt85doaQnGF+J5ZcWa1WbsFuTnagjpi9FuH8oMYlwHAxVRF5T1Qnm5eRt1be4GzcegmL98tRZuWI1iSqEFwhpAuvzcZbph9XwN+go1Z2OOri3x69pCyJ6XG2h9WpSXp4WFJVpY6sVY26DL1uQa15FUhkHM2m7ORZ4xloMPtTBuJGuzeaqtQUyYgxmcp3tlAG1dUJAvObm55gVpfMLYoX1nuEDRTX2rVudKhw6tzY4VX8l6yV29Qjq0bC8+P2ag1BayZO06yWydIe1bp4snplwwJUDJwr1KzjKm7rqcdRL2rcXsAFcrqQVc0xYSA4ssFMYsltpaIpVPMCvKS6V5DBxUX5lsKFwtBRV+adFhd8ymKcIHyzGhEgmW5MnGvAIJJrdA8W2koLhcUuBqds5OFy+u8TUf1PLBmGRB8Wa+o/pJjPBpKGYylM+nB7UBQlrnj7lplfXo0cO4fUxHi4pmP4TTzNYM6wKfilkLjmXwiSbvgX4xbwHgsXWH6KJai41g2XaG31lBvpHf5AstYIJbKMh7uvYEece+Ia/I13y4TuQrf/DPfiR4TrLHTlg+276FIqvq28MOO0y+/fZbc51xrA+fctqNtExP1FY+BnDlkY1j6LzOp8zMwxAeA2UW3gO3PVC0EhKSJYg2sI1pkPWkhHgpKiyUzObZSBtj3kZB+WE5UJASn8BlFbaJ2x5wPRwvIV+FtOBOH9wnoNH3iMWHyyUuASljEqTUj/Z7Us3m1/jyAowveDOxKDMuEeUHxZMCtxqZvBU+3CNofjwOzxjnXshqcmVrWKoT9nzz9m4NYiNhDDarvAB2alZWNlyYftK+fUfp2aOXJCQmSFlZ9LFwp45QMuh3vy9gTMyufXeVhOzWkpiSDtfRI/137yZt27SQMOroK4HySk2D8koxu/IToAM7dWknvfrsItktWkl6RiY6IUnikcaTQiHj1gsQOicjNV3iYQLTDO0I87TfLn0lCUqPIucPVr5qB+V27NkbdeoszVI90qFdNnz+ZAibT1L5cwHDKCgE8GhzVcJ4dvFfC7tuRkHnICPvOcC4t4mKioOGLhJdIAo+4yisBAfSzg4OTIKKg0RwPZHKyQ5aygl5ZRUXtyRw0qCrxHMqn5qUS3U409SVzgmb1pnXhva4LkTdxz+nNXGoN8dfXFyCNM9sLqFgwLy2Kh5jFdYN2lwBpZ5gXvXsC4aM/EOFQ+YxgnA9AOUWBF+SkzAouXUCEz2Nkig/MOnDcCmDrCVDeZVD1ErLoZCaQV6hK4qKi3DfGEmF8iorLZfC/AJJwr2a4zqVF4cXX6ZI2JHmJNYkSvXzoD7EmgZj4JABYWhQgq+i5R4w/kyHe7koCNSmXppQQBAahkot0QPFVO4T9QYkqXkzKcbYWr3eJzkFFWhIkngymnGkScQHRqVjQEKLb8yvkPyCIpTHPVuY0TBTwaKUCLQ9lDgNQElm27gVFponJjFF/FB+ZaUlkopZgT/OgOEJiwpMhurngn25twJ5kZ55YYHFGy4C7PjKzresMqcOsgJSEzUWNZXpJCouWl6crTnQqKw4+Lh+wxmeioug0mIaDkq7N4mLzjs77OI6rQzykov2BHnJY/KTSp+84jF5yvTkPdMwrA/ONLbfLDUENl31kLDlbE6M35yqg+k421dgguOSPtVCAqwveKWmvTFQfNzzxfFMhZGYCCMBhkIw6IPiqjB7t7hnMi01CeMUY4UbJ2HIcA8nMhjiw680jN9ybznyCpQTvBhOEjDFslq2MC8uJTLSUqVViyxYf1CCyFdWWoaJl5bxJqPIorJoo0wZbguYkW5nMi7ik5JQeQpEGiwjXvNAQNjO5OSoSRwfH2t24cbGeyQ5I0tiYH0RsGildVuPZGelSD5cQKaBnyixyanRioNxWdkp0jyrlZkx4+AuJvHpYmK6hOKTBLeVVChuj/glNuSVghIf8sI0TmsuHijM5DjMqOgU7vyNIFVCajOJhaZPQfmpHtQddeQmOs5cfiPM7H12bzWGcarZZizcekQnhpQqpWQHIEEhpdKiVcbrfMkk03OGZDojxDs5KJu0pKicCPKSEwLjad2Sf5Qz8pAPP8g7/pKBeax75wTzOcmJreG3zVM93BZgWUlQ4NxwTtdNMdbY/lhurzeyDcWFscF0VHIEz5OSEIfRU1pabMYKCYmMQjSBXVhH+6mwUjG2CP6EmG9/Zcle8NhOCFSGEfCX79uPQLmlp/M16HyKvjn/Nj+LnleP2xrEauU77Okfs+J+aHVq10RqbDCGnU6wQiH+HgiIKh5+KIBvSmVjERlts6AdxifOggsYFwcrIZ6DEyxDHBUMdI/4uJ6QCI0OASPjmJ0GFG9F3RLCTMHX0jZr7pEyWGWlsPL4g/EI/PVYhTBCsVbwayi0hkGsISmIQkLcaY9/SXwjJDsTxC4l2XQ23pjN6LXaqLGoqczqxMFFxUQ3h0qK4CCjhUDFZd1IpuGgY39QUKsPsJ0V5BEHEnlmeUOekm+8Rp7xmMR0VGS0yKzL6URdCqw62HeNRXVZYJFOciJaHaah5chfz0THTQoUEsdKkicZMhI2XlNUyqOyhVEqVO8sjoqOv7Lhbvv0tHSzrgUxQ3KkQF5acJz8YxMxbuMSobCSTD7ueOK2qACUJdeMkyvftmqsN4YohEsgRqnhnlSqLMeJas3ZZoDChsuFitrhncS3SyRxoRgaPD7REG8eD583IR4MxDEVEUPuS6EvbjiEIBnFcEEwHRej6pDlgpCGjCITUpE2GW6hxMB8peWGMshDxqP4qBWVwIGMwYq/adB/6bC0WE5scrrEoK5Mnw4mx0BBxiZg1jGpRZrBCkvhPjYqJ/40Cm4pK8b0PIqeEYgx19iKTbCCS0En1QcOGAqeVfJOYWwI2PEkdrzTJeRivoW1zqyVQdj77uywPCA/nDwjr+yiPkGlxnPbTwQVm7O/SLzuJMIqMisbThlhyHQ2ztaHcB7XDqZpWDquS3GkxGCwkSjVlGDKdrQM7m1MhNeEMWViIVcY22wFJceMAXhMcRgvEgPeoDwYSiiXF5EC496sueHUjJ84jl2qP3pE0bGTCL0QmxRd8Y83mu/PoDx7oFSpv1hWfdRYoH41FeukBqAyKRvLZlmGRf+SouXwOinKJsRXmqs2H8MoovkqiwV4xZYaTR9NGz1iGhsXjXfGRO+26YzY/MyFi78/KKuWKPPRcRCVYOe1zYl/rbRH4zbJPs8MqMXMWLSwaaJjKzoaCZu/KucWgbmctC3grLULFy5cNCm4CsyFCxdNFq4Cc+HCRZOFq8BcuHDRZOEqMBcuXDRZuArMhQsXTRauAnPhwkWThavAXLhw0WThKjAXLlw0WbgKzIULF00WrgJz4cJFk4WrwFy4cNFk4SowFy5cNFm4CsyFiyYJvuanJqop5u+B7VEvV4G5cPFXYotGs3P4k/jOOn4lIvqS5k3//pySVGPk1tLmh1E4rzup6tB8lgQ1joaVlxoFV4G5cPF3wFaNZqshLG0qZlPMprAKf4rYBnCWaW9e7T7O6GqXthquAnPh4q/EFr3hz5nYSY1ATcU1hIDNlFFlnIE9tiES8DD6GsZN/7YFXAXmwkWTBBSA+R4FFUF1ZRD9eFn12D+h3gS1o0YLylleDWXbOjXitn+Cq8D+Qth3qW8tuWjqsPZLdWogzKugN1cL0W9wEZvK+ZPC+FNE41F1t3rKtjXdVlX4Wyuwmgatk1y4qAs1yYyT/lrw/jURYcP64FQHm1SC/XysDbc3/lTrmm5aeZGXqHSi9Ws8XAX2F6KmNm0JuagbNfHMSX8PsB6WiOphfdikCuzKUpQ2V2ImhfmzCc47bylF8ecr/GdQ7V4GjqQ1Xd4auArMxQ6LmmTGSX89HCPaoLawIahHY1jYZI3UIOCg+UuKuq2b7hP9C9R1j6pEjcN2VWBWSOw39Cz4kVbC+e1FfpjUgmnNl7srv5toycbZT/EzPz8IS/CLzAS/ulxuPu4ZLacuYn4n2XgL3oOw3wjkOY9tSDC9/TYgv0doz+21uoh1ZVp+gJTtYPtYD4LX2CaGTMs0PGd6to+hTUswjRNMvzOA7bRtt182Jx9JNp485Hca2W/V+UQwjh++tbCyQNi+ZGi/H+kkprXHzrJrO64fNm00jPDLzeaYdfSbj9MS/IgtL+kmEahqQ3lFmQRD/AhtdH8Y85WXRz/5zw9UB4OUd6aPluX1ecXn94kf6SzCKJwftg4Eo2Xa0CIcDqFdaDvKJ/F+FiwrAP6b+kCJ8cPZTvh9f/6o8NZiuyowO8DY+c5OtB9pZbz9/Ds/TEphLCwsNAqOHx7loC4oKJDi4mKT3ionfsGa5fF6UlKSbNy40XwYlvkZ8ivBTMc0jSFbfx4TVrCdAu4MLVk442oifnCVbbWDhG3hIMvPzzfX2A5+kJVpKQxsN9vFz+azDsxLYrt5butLWOW7o4OyQ5A/7PsNGzaYtlN+yBtet7yg/FDeyC+GJKvcLJ95znyWlza0itLymccNBcuvGYy3VBN4D34Rn8oojDrGY+ywLRHIDD/EC+Xj3aQM2AbWMzUlVRIwxqjsyspLEZ9gZIlKh3xKSIx+1RtSKH4oJo8nWeLBr8TEJAlDKfmgyGJj+cHlBJMOrTXXeVwBZWfO4+IljkqbigzKLhFpI8hbBkXJksn/BNQnFI7KaRAK1yLJkxBt2jbAdlVgTrDDbadbQSD45WlaFoxjQ5s3b24aT0FimqysLDOw2TGZmZlVwkihYHrma9mypVECpaWlVfeo6cvL1Yll1UVM44Q9d4Z2ZrahvUbY89qICpjt4r3Ih6KiIqO8qOCXLVsmOTk5smLFCqO0KJzkh/1Sty3DHlslyPIsb3cGUDZoeZE/5BtlhPygTFEGqNQYT1lhPNMxngOavCTfKGsErzM907BPnOA1y2fb1/WB/UCyfWJDEsWUn/LHoYN4vklJcpRTUcXFcwcVATUWCcLCqTDKCcYUlEZUF/gDUa8mbCw0lAHFQiXmgVLyVpRLBRRLGGXGJ8QjRHp+/r9SxqnIrJEQGxP1MGhFVXijXg2B1puQ10w7jOkH64v1ZGNA4WAIPPWYPin3woBgvrhYKDJ+/R9loo4+X7SetersLcR2VWBWCKhUnJ3OWZFCYwWHDebMwE7jrLhu3TrDJA5mDmoKFJVTbm6u5OXlmTzMS0tk+fLlJg07wCotWm0UWpbRGLL1dYZOYn1tWg4QJznLqY3YLquc6UKzvNdee0123313OfTQQ2Xw4MEyatQoOeyww2Tt2rWGN9Y1Yh5bL4LHdnARVpHvyCA/2G5aprTcKS9sNxU+r/GckwRlxbrf5DFliNdoubMPqLQof06eUSny3MbZY2ea+uDsk+rEazExVCCWGGcpKl+lZaXGNaOyCob8UBq0oLw490MpcEklLCmp/Og/ecGxBAUNeUJtoZygmKG4qLA4FuiKpqam4JjKCVZYUiIUlNcoGSo2Wks89kJxUbElJUHxczyhrkzH+DKUx2txsL4MH2BVUQJjmBHncVC2AR/57TU89XOc415BaEwmSUyKlwQP8iITz7cFYlCRbVVWjYjOJFF3keDg5i15TkG76667ZMaMGUaAGEfB48x42WWXyddffy3vv/++dO3a1eThtVNOOUWuvPJKc3zfffeZAU93a4899pCHH37YCDOFkve1964Ntk61gYLPsh9//HFTHyt4LLdbt27yxRdfmLpxkFB5so4kK4D1sZaDisLF9t55553y9ttvG0VN64sCwPvbGW+XXXYx92JdOnfubPIyjb0ny+E9dyawH6wcnXfeebJw4ULDL/YF48lL8oTHlDuCssFz8rRZs2ZGZnbbbTdTBvuavOR1wk5E5C3lk3kZ2slx5MiR8u2335r0vC8nl8svv1weeeQRI59MZ2H7ZlNIZQr54Gg2EZSVqFUTBawl4y7CzQtwHTQiHigdSLWZsAMBxQTeBgoE1mU4IOlpiUaZhIN0iWnFhSQe9S3I43JEqnhAORvyxOsLwKtpYZRTaWmxtGzRwqyBsb5sB9vfPLO5scDYRraXdc5slomacL0L8o+6VGDCbeaBsoSCNEBarnVtwMQQRL+0b99RAlBwlgclpRVRBQrWWillaI+3GqjwdgWErPJIFcxQDMrKM9X33ntP4TIqBI69ZghCovvvv79+8803+uyzz2q/fv1MPAREx44dqz///LNCUBQWl/700096991365577qnvvPOOohMqS1aFQJr7NYYwABSdqBDIqvqhM00IZaJLliwx16FMTJ2gyEz7GNZUXnWyuOWWW6rKh0VmeMJjuM8mhGApBMEcDx8+XP/44w/F4KrMHeUxy2MdLJx831HB9pIPsNi1V69ehj+wyk1IoiwxJE8xSVTF22PK3Y8//mjKgtVuQpYH68v0I4/JV/KSfWpD9jnjKacsh/1jZRgKzJRDmXDKAetq60sKh9FnfpTjZ1h5HAhWpke+oFe9vlL1B0pxXMoSNRgu1h9+/Eovuews7dqjgx5x1DG6/wFH6Lgrb9DcDQUaQvkBXzk636eRYJl6y/L18kvP1xEHD9cxo4/Qfv376SGHHabX3vBPPfXMs3WPgQN1xOEjdcDee+leg/bRG26+SUsqytUbDOgb77ytg4YO0U7duupxJ52ov8+fp7/Nm6vTZvygK9euQX0iGiwtBsP8umD2LL3y4gt18N576IDd+umeew3QQUP21ccmPqVzMUYo6aRStLE8EFFfGNlMCY1H3SbINoCdcdD5hqiR0YFmFvntt9/k+OOPl5kzZwoUk3z55Zfy5ptvypNPPikHHHCAnHPOOWY2gxIzswGE1FginCm46D9w4EDjYv3rX/+SY4891sy8tEyYlse8T10EgaqTeB9LhD1mmxjacni/msp1xtVGrPttt91mZnCu9w0dOlSee+45eeutt8y1adOmycSJE8096W5+//33cuKJJxqX0ro5tj6sB3nMOJa9o4PtJN+IFrAkCHtOXpEXBBSJsTB4jcsO5BXDNm3amNAJpqFlS/6x/NqoIWBZvJcztBRdhKc8MbTHjI+mJXGsmHvFRC2zOMS1bdtGdu2/i+y6az8zXr6dMkVeeflV+fKLryQO6ROMCxldC121aqXk5ubI5MnfyQcffGLaddRRR8mRRx5pQsoNDAUjS1y24JJFSnLU46CX06NHD7nqqquMTNLbOe6442Tp0qXSvl17KYd7S06/8tREOfvMM+SN11+XDh06yIUXXmjGIr2K22+/Xa655hr56JNPzcyRlAgZNe1ha7YRwKDtBs5YlUeYYXwaDND6CmtZaZHO+eVnPfTgETps38E68YnH9K03XsUsmGe0MrVzbl4pZqCQ5qxbr6eNPVZhiGrH9tn6xluTjDb3g+YtWKQY3FpYWGhmO0sNBetXF9mynnrqKWMBckaHEJjZtk+fPrpq1SpzHcJiQoLHNn99oPXILqDVwPIPPPBA3bhxo7nGmZgoKSkxFsGDDz5YZTkw7YABA3TBggWKicCkIzDoKo92DtDKJvLy8rR///6GN+yjc889Vz/44APDs9dee02feeYZnTBhgsJFVwzMKistNTVVMSGYMmhtk8/kP0Oek2jp8z7kM0N7zmv1WWDsO0u2fBLzl5fjejHJWxmWI10ZqBRUDCrS0rJCLSnN0wpvgVb48o0Fpoq6lefozJ+/01GjR2nfPrtpnCTrKSecraVFXmPlMU9Z2QaMq/v0iYfu1v59e2myJ0kfePhhLYNcVdDSCwX0hWefNHsguvbfU2cvXmXG1dLlS7RXn566S7/eunzFEoxHWE3eMn393Xe1/5AD9a7HntJQGFZoeaF+9Nor2jmrJe6fpPfc/bCWVpTRLoP159e1qxbrAQcM0JgE0aGHjNQpM+dqEYZJCYh+QnAbiWqj1sBsxs382GqlhYIBQ55UzGrw5ePiaCmE5LZ/3y4P3/u4hDS69yQ9M1523XMf6dVvb7n2xnvgm3skFVorgpnzw3cmQJNfLRsKRa66+Xq5/Oa7JQFGUXFOgcz95Uc5+OCDzfoEZ1rOblAe8tBDDwkGuDnnTMMZiU3lzMZzHjOsC0zDWev333+XH374wZTFexBcP+FMw1mSZfMalE7VOgnvw7i6ABe5Ks3o0aPl+eefr1qH4aI+wXNrTb700ktyxx13mBmT9Xr66afl9NNPNw8waJHS6uP9mdauPexIsKJqQ1rbXPPkYjyUiVmc5/Enn3xiHnywXyzvrOW/ePFiY7lTRvjEcgosGFr2PGefkZfs24bIByYc+e677wzPyXv2JS2W8ePH19v3hDEQ2RRzGztwGEaJ9WHILRRsS3xlmdyv9e2Ur+XnmT/IN198J3NmLJbevXeXV959Uzr0aC5F5XlSXLBe3n7xFWmZ2UomPvOK/LZgiVxy/TVyDSgtKU6CJXny9P3j5V93Py3xPQbK3Q88KqcfuresXjBbjjvmGPM089Zbb5VRo8dIJqxbf0yS3Pnch1K0cZ08eNlxsnbeHLng4uvkm1kLpd++o+X19ydJy1YY7xUbJbUsJKmZCfLua3fLDbc/IItzsuSEs66QR574lySi/tmgsDckccmQ0bpZXC+2rQKrXhLPqxYnI1BgfIrml8SkBPn+2x/k+69nmkW9ct96efP/3pL5y/Ilq21HOWzUmXLf3eOldTOReFRv3cLJUGD/kA8+XyJ77Le33PTAW7LXHl1k+a+LpHlKjFlQZwdTCDmw6Z4effTRZoGVsAprS0EBYpkcBBRQC6ukCKvAmNYIWeVAaQjo9mA2NnWbNGmSUWJUXFRGrDOJ91+5cqVZwGcdhg0bZp68crC++uqrMnbsWONKUtFRudJ0t4NxR4PtQxvahyzkGd2fefPmmfiXX35ZTjvtNPNkkvxgv7DPyJNZs2bJ4YcfXnWN/Gvbtu1mSs4qJPKxLrzxxhumb2w+9tc+++wjhxxyiKljfXKwSSSryybPowqMipDj5bTTTpXu3bpLSWmJqd/krz6TdhggX3/6DYyBBzEOOspl/7xBzr/iXIkklMrPP04R/4Y8UZ/IbXc8JH8sXiE33nWnXHbVpZIQhjvtLZAnxv9T7p/4isT2P1puvet+OWVYN/HlLpcrxl0ub7/9kcDjkZPAnyFDh8leB42RZSGPFKzPlyP7Jsor994m193yoBSEs2T/Yy+V+568VZo1j0h2nF/SOMf7NsjPP7woZ112q/yxLEN2O/gkmfDcfdK3YzNBsqhKoD5upAIjo7cadJI2c5RsxGYEIxSuY1lRHk7oQnKhvVzDvtLoKezJorWL9f23ntULLzpTJSlFJbGdTnj5Ky2BhxCqQHr/Cp1w13naOkM0Pkn0lsde0YWFqp9M/r5qUZSmPRdeIazGTIdAGymAUBkTn8eWGGfDugiCadJBiEwZNqQbacuCMG2W1roSjLNp6iO6hqNGjdJly5aBIWoWpdkeuh50N9im3Nxc4y5jwCosBJOP7pF1azDgqh6QYODtkO4k20UiP0i2v+me8UEOeUK3kHwiyBNeJ+jSEVOnTlUorKq0DG3fVT92ykJNRHlgOvY55cLm5UODhuSPiYmtpOrxzLtJPhISY/XbqZNR+6Dmblir/kC5vv/+G/rHb9P0xymfa9f0NtpcsvWAIWN01bpSXV2Yp3c/PF7XLp2tX737su7SqYvGws375+0P6EZvWL1wAQPl6/WRf56rySg/sccwfWryQi0jq8IV+sM3n+mJow7VJF4D9ezcRq+/9U59ecYaXU8mwj196l//0HRc8yRk6onn36dLwd5cXILEYrzCGa3YoAunPabD907TmJS22nGv4/S9mQuUCx4BHxQD/VXqh0YiDmbirWBSo1CfEo2JhSXBGS6Re1ZUvNx4mJAkhfnFkpyWIh5wqfduu8rQYQfIHwuWwcxfJQcePEKG7tvH7DWJTQxIOnzGWb/MlFXr4C617Cxdu/SS0rw10rNbZzPDctGWMxMtGlpM3OfTunVrszjJx+S77rqrIXvev39/E9ZFfHiw9957m3JXr15dtWeLszMXf4844gjjjvDBAtPbMnkfhrxXXURratGiRcaCWrJkidlOwgVTWlu8F8G2cBamu3n11Vebe5PovvIBCBdOOVMzHUMC/Vplwe3ooJVDt+/FF180u/DJN/YLFFqVRUxY955pyEt7Tl6ST+QZQT7afPVZYITlM/MQLIf9Zc8bhui9qyMe7gn0NY5ULrroQmnfvr35eQ/7ef68+ZIQFy8D99xb5v8xT+bNny8FZV7ZZ9hQaL+I5G/IkeGD9pClixfJR598KUWlXtlr32GwpobChYwVDZTJrGlT5cvvfpaEVl3k0JFHSL/OLSUpLiIdOneSdq1aSfPMNCksypMly9bK1Knfy4x5K6Vnj/6ya7tUmTV9inz7/UwJoQ59BgyR/Q8eLqkQ2bCvXFJCXLEOScGGJfLllBmydGVQktJbypDhe8GK7CQZ8ZVyyaCRIrpd18AiYf5WChSHFPwZQ9BnOiXW7B2Jk4g/DsewI2MqpLQoXwIxCTLl+1/k8qtvlzvG3yWnHX+AaIUXJnSpBPJWy5XX3yTPTfpc4rJ6yVnn/UOuu+QM6dw2y7hOFCIKHQWTbiQFm3EUJlMXCCObys63AsuwIXjiiSfkiiuuMELJ8lg2lRX3qdEN5CBgvFN4WbZVKHXhnnvukRtvvLEqLZ8Q0f3h+g7dI9ab+5smTJhgdua3a9fObPTlE6jhw4ebAWvX/nhPpucg3BFhRdWGbDf7nO4g92RxrZJ9QwV19tlnm6UE8oK0fv16owC4LsrJg8qLssKncexDuqGWfw3tPz4hpitv+5z16tmzp3FnbXl1w16vPgR5vmlHflp6qtxxx3jj6rK/We43k78Wv88rhx96mLw68Rm58uobJS8QK0efeIrsB2UyaK8+slevVvL9N1/LPy69QZatKZYbxj8gV113saQmYBIsXSdP/Ge83Hbvc9J+/+Mxtm6WE4b1kSxc4879lNQUCYK/i5cslXff+z95/L9vSW5uWPY4ZH+Z/f6T8tQdN8g1tzwm/rhYGXPm9fKvO+7AWIwVTAmSEoT8hStk5rcvybgbbpUf5oTk4BPOkTvuvV76dMmWtEBI4sKYODBO0Zhok7cWYPpWw3qJm8FGVpKfLmAEtmnID1eyDJEw+wMlOg0m8acff6ZLFi3BtVKNBIu0tLxAP/j8Cz3/qlt15oINxspUmrWhfNA6fXXCHdq1QytooWZ64nnXaVF5dO8VCQLE1Ab2nO4V3Qyec48YzxkyzoZ1EV0zgk8hySoSBoMJuQ+MLh8GQdWTKRJdFRvyHnURhNOUf9NNN2mbNm1MudY9te4IXUZ7zKdnPIblprNmzTL3tveDEjVlMW5HBflFYt/a/iVgbesee+xRxadJkyaZeCdsX86fP1/T0tJM2k6dOunMmTONfNiynPzjcV0Ea7lqr5mlyy67zJTH/qgpz+bENDWl4/4xn6GyshKFFYTaBM1TyUCwQouK8/STjz/Uqd9M0Yi3QhfOnKpH7j9EE+IyNCG1g1545W26dmOR+ktW6PQvXtZu7TIVU7n++86Jmo/hWOQtUm/ZKn3gXxcbF7H17gfokx/O0Pxyv/46e4ZOfPxB9ZVsBMO9mruGyxp+ve+xCSqt+mnHgYfq/DkzdP3cb3XI7h2Nq7vPwcfp9EV5Sg6vg/vq24hxXlah7z5/p3ZvzyfnLfTKW1/QtWAtd7SFQ5BVUqX8NwaNXOm1/VY7ONOF+Kt37m9JALtgEufk5MoXX34lhx95hJx0yli59dbb5f33P5CffvxRfv11DtyjMbJL75aYYaNPMWETi/jCst/wA6VP7z6S2aoFTOfdJC0l3syunAE5W9ISIjhrcSZmvCVed543hJiHZZF4TjDkDMgQ/DMWANOReMx4G9ZHfGLGOvPJIi0GWgb8XSevsf4ELTHej9YW9+XQxXzwwQdlr732qroPLTUeE6wHgYFgwh0ZlC32ASYbwyfyjA9AuJjPp4P8pcTUqVONaz579mwTMo5PLpnW/uSM5Vi+QfmYa7SgWHZdxHyUDZZhLSMS48n/mvI4qT6wbMo3f7eJHKbchPgEs3yRnJIq8QnJEpOQJL1230WOP/Fo8aSgDhhnvXvvKllZzSQxJVn88HrS0jySBouKb5+gWKR50uClJEtqRibqDpnRoGQkJ0p6SqL4kea999+Xl195TSpKyqQVrFYfvKBhQ4dIuw5tJT4mLOkZzaRFqzYy9rSxkNdUWTj/V/lp+lSzLp+Z0RzuIurrC8mL/31TSsuCcugRR8JSPETSYZhxFIVhfeEv/T82s3EAI7cSmA1hHpF4vBkqrS9vuc+EEVoHkZCxwkL+qBU27btv9PiTx2qbDh20E6yqvQb00X//+wZdBKuGc2EBtDV3YUVCtN6gtwtXYRIq1huuuEyPOHqs/rZ4vdkvxpnYWh+0mgh7bi0xCIKJszMjBNSEdiavjWw5Dz30kNHUEPKqGXeXXXapWnSnFcSZk+WSbH7ety4iuFBP4r1IvBcXmbnPDApNO3fubHbfc68TH04wLe9Bi4H3sG1m23jMcEeF5ZvlL3nOkPsAaQ2xX2ixkvhrBlpatGhpNbPvWrVqZUIoOZMWLqX5ZQf5SQvNyU+WXZPV7CT2C8shWbm49NJLTX6WU1MeJ/n9gUratIcxSuxHL+pDWYVFFsRxhP0a1I156/W7ad/ohRdeqDfdcJvO/20uOj9Hf5nxqSanZGiv/vvrdz+v03wMmVnTP9ZrLzla06HnYQLoAYedqu9+8pMuW71cp0/7WM88/lBNhAUV37KLXnzL/frH4qX665xZ2rd3d+3Tq6u++vLzOuXrL3TmT9P19PMuUGnZTe995jV0BHgU2ohglV58yWnqad5Ku+6+r97z5JP64y9z9KsPv9EzRp+knZp7dL9999QvJ/+qfISShzFN7vp90AERWrqbvKatRSPWwDgnRPuPv4+K+vOV/uyfSoymi768KEqRmFgpKPOJz+uVUHkxNLtKcmq6pGRkSUySx+Sgtua+EQl7QdDaYa4LxEtFbLJEMGOmJWH24PVaAGGvPKoZnHVt86uHBITQzH72t5CcXZkHgi7du3eXzz//3IQQRvNIHgrIzJi8L9M15P4Ey2NeztoMMaBMXp6zPK7pkXjMOrCOvG4X+ndWcPGee7b4wIYPRLi+RTSE9wQtJ/6ygVsfaMHZLSgWtG55zvLYL0zPPmE8+4x7zRryW0j2WU1h1Xj504DhefSdeCyDeydtmu+nf29+P/z9tJ8gnzFy6snHyJOP/FNi4uPk2n89KvmlcXLDP++Uti0S5JQx+8iiuTPFk5opwZhmsr4wXjp16SLD9u0hvpJc+fyDD+HNdJD8UDLsoVi56PQT5MgRB4CfedIiO1smT54sb739tixfvkL2GDRMzr/iBjlmNCwpwVgMlYKB0d84fvvDfJnwzAvyw/RvYfrDCo5Nk24d28spp42Rw44aI2279JAwBzOayxYnavT3ldERXtcIrh+NVGDRzt4yBcbjsFFgoRijniQ2CAWFQctfudMk9vMa4tn9XI6ONcorqsBgB4k3LskosGRcbMoKjOUQLNcp3M5jgnViWdXL4712dpAnXKA/99xzZf78+VUTAGH5Vxu4qP/oo48ad5x9QdeS5Vl+O/uysQqsep9GYY83yVwUPI8+cGJbOM74UkK+54ubWPnkmisrcXHp0gzmVed2cRLjSZT8kngpC6RIixZJUrgxLOGiueItWSdpmdkShFIp8qWhrDjJSo9IWVGOJMHdjIEbWi7Jkl9YJL06tZEObVpKWWmJkXs+oFi1apVxS5tlt5Ls9p3EgybF+MoFNob4vSWSlJyOsZomq9flYEIpxFiFXJeHpEVmpjTPSpE0KEJKbQXqG2vYEZAUbv40bWwyCoxApHLA8mJEwuhIL9JHoJSS0ElcGufvwKiY/BCGEIqKhyLjEI3nwKVQmkfKMRLAdaZLioveuTbU1zQKk01TPSQaq8Aacn+C6Zxk4zgAeC9rkRGMI7H8nR3sH4LW6S+//GKUC/sLbphZL7KKrDaw34YMGWKO2XdUQszDvBaNUWDOCYZ9bfvbhpTlKKrLCc83yQMtMDjO0TIo/9BeCQl8GSYmMbOotBHpghJOaC3loTguNwtcQ0kK+3GLCqMjQogPx2dw5cl4NfEYgwqjwOuHzKakSQAXQr4KSU/1RLc8VSpfWqaJ4G8MtA/zssZhpPN4MAbD4H8MbhabAtsiVmJxkctavrKgpKSg7UwMCrIbUAfWC26jxEai8hyfAC1oEm09tsEoiDJ7E9WFyspqtGWxaHxiPN+JlSKxicngagIaGS8JEIgEvm7E/EOZJj1VP5lFYYkR86aRJg52Yk3EwWFDCjAHCAWKA8IqLqvodmZQcVFxEHydEh+C2P1+JMbVRdzuQJDX5K1TyWxLOMvd0vIpAwRfNGjkA14MlWx5eQWsMb5iCoorxFHC8RIWP7SFvUXQC83hw8TnD4jXV2ZGZyCo4kdcKAhFiMsBlKUwDOKoIJHCvKoa6SKI40sPKzBJlJSUmr2KVE5G+iCDfl8IYzUZ90owb2QN+X3mYV0ACpEPDgJBWrJ8mBR9ZxjHK/PHoFyO8Xg+0NsGaKQCs4PIhg3Bpg7E/BLNScsKnUCOKkzkMGaOMExNWnjRkpEHHQhH34QxsVx3I5vrvq8VnNpoe6OmezrJgsd2FreKisRzhrQISDaOyssK9s4ODmpaO+QHrQVaSCRaYRx0dRHzcR3NWnKEVYj1WW8NQfW+doZR4vHm6ZxEmWBoEQcThoqMb4xITvGAYiQOJlicJ01iYZExZXJyvBkVPrhsCQmpGCKwhBI9cI+hbDCm4uL52nUqwxhJSEySZhmZUAJQWiG/ed8Y20/lFaJST0qS7KwW5v1gGXCvmU5hPZnXTSfxTcp8wyrGIf7Hw/xKQHxSYoKkwIrTWChbVCiWxgbcK45X/haaShItrqTGYxtZYM6wNthKO8kCx7QvzRoYBioHsvGPK69VTx6dI0D13fPvDQqokwirnEgcRJZ4zsFKgbaKzkX0tTl038kT/jibip7bSshPupN1EdPxIQBDwvKXsIqssbDlVQ8bCisXTtAKC8KNLCnlK4J4HaoFlldAA+KD9cNRAV1klpjUrJ4zDfJIGSoQNMOGzSuHhca0EZQVCXIzNBUmrH1MlHwfPt/UGgjBqgL5/F4JwnXkhvQ4XKMhkeSBIvWQ9ziH0gti4lDkiU+EPMfHwHWE3PLLI8b55CuuEW/4yqUbBJsP6q3CNlBgTrBWpmYNAuaZTU2w2dA55tf3YDfYGb1uE1WdbNl9/q6gsrLEwWNhFRotLioqEgdUTcK8M8NaSbS4rJLnOhSVBMm4XHUQrTRbBkPymPlYxrZAdaVlw4aC7SH48yESFRdBKywJ1lNGOt/pzwSwmOCyJcCdS0lIMiOE773nEIlJhBWGGMbBScY/jC9cg76qstb4sZC0tFRTLpWWcVchk8biA9Eioyx6kvmaaZzjGpUfgUMD4ykkcG2W9cMd4SWxXH5QhApMYeEZ6wv/w6wc7rEt0MhSyBYnNRTRtBCXqJ3FU9Yk2nIcwiw2f6nCKsGDSrJMa+qgQFuySotk46jYakNd13YWUAkRlmccRE4+1kd2ciAvqQQtWC7L+2tBS7tyQ3QsFQPdx6j1EqJ1DkvIrlPB5JGklAxcgyILw5LCEV83ZcaLMdTjYUHRIOA/tA96EYaTAdsd5EZztJftrlKaUOJRJUZlCdcS91coeb8XFh7SpUL5WRap0ZZGN5l60eqy5fCciEFbjJcFcOLYVmiEAqM2p4JhpSy3KslxuBmBGYbYKegMzghVCowH/M0klBhjE8y/agquMk0cZhqIH6J5oXGwyoIC7Qz/KgG2dbD1qA1/Vf3+TrBPC62FSjhD24+1kU3LY+tGEg3dX0fFx35iSGI5Fs7jLQfzbiIqr7hYWjIcBJD8OC6zwDrHWOG6lXm4hfEAG0jS4jzC2hu9ZcYLCOPFk5SNwxTxSDL4xjgzlMTDtdUktp33iJMkTAK8K+P52bRNtcC/+CRJSk4zSzxmxOMCDakYbotgHD8gkpCIeqEmqCPz8QfntP1gCoJQmUpe89q2AOvRCGxq3iaqD5vSRrtjsyiQvea4TjjT4E/0qjlx4WIHhlPwnWT/EjyKjhirszYbVyaGkz6pckQhvuqy+RuNt3HVKYromPtzfHUYdee4znxGk1bStkNla1y4cOGi6cFVYC5cuGiycBWYCxcumixcBebChYsmC1eBuXDhosnCVWAuXLhosnAVWCNgN5Pa0MWOBbtjn3D2sd1HRrKbXknONK5M/G/gKrBGgELrDF3sWLCKyQm3z/9ecBVYI2BnaDtLM+TMa0OXmjY5+7cmcvHXw1VgjYD9yQ+JsD9facjPWFz6+5Ozf9mnJGeci78ebi80ApyF7UxN8AesPLc/ZHXO1i7teOTir4erwLYhOGs7Q6c74lLTo+r9aVH93MVfB1eBNQJ8CwKFmSHhdCHtuUtNl6zraPvU6UraPnfx16IRH/XY8WBZYUO+cphv7qztox7/93//Zz42y1cZMx3frcR3UtG9oJBbV9JF0wT7m31IZWX7liHPGT969Og6P+phX8vDcpyhi20HV4E5UF2B8cVrfF3xAw88INdcc435iIR98V3Pnj1l+vTpkpWVZc6db/SkAnMXeXd8jBo1Sj766COjqKjUysvL5dprr5V77723StERrgLbfnAVmAPVFVhpaan5VP1jjz0m48aNM3EUSgoiLa5bbrnFvIed51R2VoFxduZsbV9X7GLHBBXV4sWLjUyw7ykDtMA44RF2EnMV2PaDq8AcqK7A+MUaKqrnnnvOCCYVEt8myeucYa2i4jmvUUBJtMAYuqzdsUGlZScthuz3Cy64wCgwupOuC7n94fo5dYDKy657WAXFY65v8NiufVjB5DHjeE7lxdClpkvsy7qIExjT0fLip9koG1Ri1kp3sf3hKrA6wMV5pyDS+qJSYxxnVwoxBZaCTPCYistaXkzn0o5LnLA4wfHd/FwrZf/bZQNOci62P1wFVgconIRdjOUiLWdaKigeU4ipvKzCciozF00fdjKqjdjX/EAuLS/7cVzGE/zepIvtD3cNzAHLChtyHYNC+uqrr8odd9xhjqnMaHlReTGdtboIHhOcmV3s+KDVRQVGmbAT15lnnmmeWPPhj5ULyoozdLHt4CowBywrnCzhMZ9Grly50syqnGnt+gctNCu4FE67TmbXQOw1F00T9Q0N2+dpaWlmuYHKrHPnztKqVSt3H9j/CK4CqwPWoqoNVGQudl5Y+XAV1F8HV4HVgfq+IOxaWC6qKy9naD+862L7wVVgdaA+1rgz7s4N5wRGWaiuxFxsf7gKrA7Ux5r6XEwXOzacCstVWn8NXAVWB+yentpgt1e42DnhlI+alJmr1LY/XAXWCLhrYDs3nArKqbhc/O/gKjAXLrYSzi00NYUutj9cBVYH6mONK6g7N6x8uHLw18FVYC5cuGiycHdiunDhosnCVWAuXLhoohD5f6pHjMvAq3yVAAAAAElFTkSuQmCC;" vertex="1" parent="1">
          <mxGeometry x="35" y="329" width="164" height="96.57" as="geometry" />
        </mxCell>
        <mxCell id="Sr7Jv7LxJJs2jSXWzshQ-42" value="" style="endArrow=none;html=1;rounded=0;strokeWidth=3;strokeColor=#319f23;edgeStyle=orthogonalEdgeStyle;targetPerimeterSpacing=0;" edge="1" parent="1">
          <mxGeometry width="50" height="50" relative="1" as="geometry">
            <mxPoint x="510" y="218" as="sourcePoint" />
            <mxPoint x="190" y="400" as="targetPoint" />
            <Array as="points">
              <mxPoint x="360" y="218" />
              <mxPoint x="360" y="400" />
              <mxPoint x="190" y="400" />
            </Array>
          </mxGeometry>
        </mxCell>
        <mxCell id="Sr7Jv7LxJJs2jSXWzshQ-43" value="" style="endArrow=none;html=1;rounded=0;fontSize=12;startSize=8;endSize=8;curved=1;strokeWidth=3;fillColor=#e3c800;strokeColor=#FFFF00;" edge="1" parent="1">
          <mxGeometry width="50" height="50" relative="1" as="geometry">
            <mxPoint x="180" y="374" as="sourcePoint" />
            <mxPoint x="380" y="374" as="targetPoint" />
          </mxGeometry>
        </mxCell>
        <mxCell id="Sr7Jv7LxJJs2jSXWzshQ-51" value="" style="shape=link;endArrow=none;startArrow=none;html=1;rounded=0;fontSize=12;edgeStyle=orthogonalEdgeStyle;startFill=0;endFill=0;strokeWidth=0.5;exitX=0;exitY=0.5;exitDx=0;exitDy=0;fillColor=#f5f5f5;gradientColor=#b3b3b3;strokeColor=#000000;" edge="1" parent="1" source="Sr7Jv7LxJJs2jSXWzshQ-41">
          <mxGeometry width="100" height="100" relative="1" as="geometry">
            <mxPoint x="220" y="525" as="sourcePoint" />
            <mxPoint x="680" y="560" as="targetPoint" />
            <Array as="points">
              <mxPoint x="25" y="377" />
              <mxPoint x="25" y="560" />
              <mxPoint x="680" y="560" />
            </Array>
          </mxGeometry>
        </mxCell>
        <mxCell id="Sr7Jv7LxJJs2jSXWzshQ-52" value="" style="shape=link;endArrow=none;startArrow=none;html=1;rounded=0;fontSize=12;edgeStyle=orthogonalEdgeStyle;startFill=0;endFill=0;strokeWidth=0.5;exitX=0.945;exitY=0.308;exitDx=0;exitDy=0;exitPerimeter=0;entryX=0.964;entryY=0.31;entryDx=0;entryDy=0;entryPerimeter=0;fillColor=#f5f5f5;gradientColor=#b3b3b3;strokeColor=#000000;" edge="1" parent="1">
          <mxGeometry width="100" height="100" relative="1" as="geometry">
            <mxPoint x="607.9899999999998" y="232.91092000000003" as="sourcePoint" />
            <mxPoint x="610.0419999999999" y="744.8518999999999" as="targetPoint" />
            <Array as="points">
              <mxPoint x="678" y="233" />
              <mxPoint x="678" y="745" />
            </Array>
          </mxGeometry>
        </mxCell>
      </root>
    </mxGraphModel>
  </diagram>
  <diagram id="xb2U6BLQen7zX27oehdg" name="Limit/Stop Switch">
    <mxGraphModel dx="1834" dy="796" grid="0" gridSize="10" guides="1" tooltips="1" connect="1" arrows="1" fold="1" page="0" pageScale="1" pageWidth="850" pageHeight="1100" math="0" shadow="0">
      <root>
        <mxCell id="0" />
        <mxCell id="1" parent="0" />
        <mxCell id="voIoRIUvxAi8oVG5dLGn-1" value="GND" style="pointerEvents=1;verticalLabelPosition=bottom;shadow=0;dashed=0;align=center;html=1;verticalAlign=top;shape=mxgraph.electrical.signal_sources.vss2;fontSize=24;flipV=1;" vertex="1" parent="1">
          <mxGeometry x="-84" y="379" width="60" height="24" as="geometry" />
        </mxCell>
        <mxCell id="voIoRIUvxAi8oVG5dLGn-3" value="" style="shape=image;verticalLabelPosition=bottom;labelBackgroundColor=default;verticalAlign=top;aspect=fixed;imageAspect=0;image=data:image/png,iVBORw0KGgoAAAANSUhEUgAAAQkAAAEYCAYAAABP4gNaAAAAAXNSR0IArs4c6QAAAARnQU1BAACxjwv8YQUAAAAJcEhZcwAADsMAAA7DAcdvqGQAABvhSURBVHhe7d0NWFRlogfwP4jmB34sRTmjqCmLkFkqqGXeFm0FXdsyNK31Ii324dNj+qwrkF+7t1XWXWCtRNvaDRLYvNdukNa2BYRrm7YbgR9RCax2VZChIFJAQIM595wzZ2AG4Z0RYWZg/r/nOQ9z3nOYM3Nm3j/vez5ePCQZiIg64an9JCLqEEOCiIQYEkQkxJAgIiGGBBEJMSSISIghQURCDAkiEmJIEPUII2oPboTeQ4/w1GJ5TmMsRmq4Hh761cg6f0UpQH3pQaTGhcPDw8M0zXkOBw3KMll9KQ6mxmGOeZlHODYePN/2fJbMz926rjItRWppk7zwCgyFGYibY14ejrjUgyit7/CZrClXXBJRD7iYJ8XqICEsRSppsS7TxeZJF+XZlvJMKVpZR66KbVOwFJtXJS88I2VG395uWdvvXqXlpJQSpmu3/sNSSsklqa5ghxRqVW6adNGZUrn5tXWCIUHUY6qkvNhgCboNUt5FpSa2yBmxQdJBJ4WlnJTntOW4XVqx47BUYVVZzevKFXnFLumTistauW0tJSlSWOs2FObthEkb8spNZXVFUsoKJYCUEGlU1+oMuxtE3aKj7oUPQsLl6mrIQXZBjTxfg4LsHBgwG8tmj4Nn7WfIziiU6+4vsGntPdBZ1Ubzug9j26aVmKEboJV3Qet2luGx0FGmYwzet2FJ1E+hw2HsO3ym4+6LhiFB1GM84T3aH5NRiIzsz1BrrMaZ4xVyZZ2P2f4DtXV6nrHyDI4bAN2UcRjZWuPNr802hgTR9VIPGI7G8Pu2y3/5DchZGYR++o04WGuEp/8sLAvTwXD8DCpKP8a+HOUP+iz4O7DmeY4chylyv0V5DZVtR1BRX34KRdqcCEOCqCd5jsPsZbOBnAxs356BHHNXQ1k27A6ERwbLy55H/ItHYGitwE2orx9m6qrgf7E5PgX55rMdcuVuqG8Qdg+u0rqdfdhzSDszUv8l3kx7p63ro67YCe3YBBFdl/YHJduYDiRqZxRaD2Ka8OwGEVlV3qsreItUV5InpcSGtVXe0P+S8sxnM+pKpLyUWIsKbnGGor1OQ0I5e3FZqihIl2JDzcvDpNiUPKmkzkZCyDgyFREJ8ZgEUW9TexBxesurKs2T+erK7sWQICIhdjeISIgtCSISYkgQkRBDgoiEeEyCyEU1Njbi6NGj+Prrr9X5GTNmYPTo0epjR2JIELmg8vJyrF69GgcOHNBKTJKTk9VyR2J3g8gFPffcc2pAxMfHo6SkBIcPH8b06dPxzDPP4MiRI9pajsGWBJGLUVoRfn5+iImJQUJCglbaeXlPY0uCyMU0NDSoP++66y71p5lyPEJpTSQmJmoljsGQIHJRxcXF2iOTmpoafPrpp2pLwpEYEkQuJiAgAA8++CA2bdqE9PR0NRyOHz+OuLg4dbmyzJF4TILIBSnHHyIiItSWgyVnnN1gSBC5KOU6iY8++gjh4eFIS0tTj1EorQxHY0gQuTjlNnBnVlMekyAiIYYEEQkxJIhIiCFBREIMCSISYkgQkRBDgoiEGBJEJMSQICIhhgQRCTEkiEiIIUFEQgwJIhJiSBCREEOCiIQYEkQkxJAgIiGGBBEJMSSISIghQURCDAkiEmJIEJEQQ4KIhBgSRCTEkCAiIYYEEQkxJIhIiCFBREIMCSISYkgQkRBDgoiEGBJEJMSQICIhhgQRCTEkiEiIIUFEQgwJIhJiSBCREEOCiIQYEkQkxJAgIiGGBBEJeUgy7TERuQAPDw/tkZijqi5bEkQkxJYEkYsxtyQ6q5q2lnc3tiSISIghQURCDAkiEmJIEJEQQ4KIhBgSRH1OC+rLTqGsvkWbVzTLZV/i6JflqG++trMiDAmiPkNCc9VxZCU9ibm3PYF9JY1aeRPOvbNJLpuE4EkzMDfmHZxTgsKQhSiPVcgyNGvrdYwhQdRnGPD+lkjEvnMKRq1EVfsxdj+Vi0mJ2cj/YAsmvbsNu//xrbbQNoYEUZ9xI+7elIPj2X/AI7doRXLr4vKX/8IbXg8gOnIept+3DNGPeOG/D53EJW0NWxgSRH3GDbjRTwdvL8t7P1pQU3EOZ2YFYdxgpXwoxk0KRNnZKtSaVgDqipAatRRxWcWo14osMSSI3MEN/WHKDg949R+gFpmU4ED8s8iYvB5bIgLhrZVaYkgQ9Wn94KMfg3H/KMbZy8pZjUs4e/ILjAvQw0ddfgjp6UUY4DMMg9X5qzEkiPoMI5oufANDZTVqW66gtvprGKovod8dc/C49wfYn3sSFaUfYv+BQXj8vkC5c6KIRkrmGlzZvAv7z19RS9pjSBD1Gefxt7WzoPebj61nPsbW+f7Q3/UyTgyYjif/tAhn1s3EqIm/wpllv8KTM0dov9MfI+6OwpbIY0je/SEMVqdFTHirOJGL6fqt4kpLohrfNVpcRNV/KHxv8oaXcg1FfQ2qmm7Q5u3HkCByMRxPgoh6FYYEEQkxJIhIiCFBREIMCSIS4tkNIhdjPnthC89uEJFLYEuCyMUpLQtnVlO2JIhIiCFBREIMCSISYkgQkRBDgoiEGBJEJMRToDZ0dmGLrd1m7wUxIj29DXs++p7eRl/ZTz1Jef3OfA0MCRuc/QEROfs7yO4GEQkxJIhIiCFBREIMCSISYkgQ2ak7zsT0RgwJIhJiSBCREEOCiIQYEkQkxJCwgVdbkrtjSBCREEOCiISsQsJYmopwDw/1fHDrpI9CUm4p6rV1YCxGarjeeh11WorU0iZ5hSaUpi7tYLke4anFUP6zuWk7IYg7WK0+JRG5rg5aEsGIzatS++KSdBkVfxmPd8N+hq3tKrQuNg8X1XXM0xuIDhioLZXpNiDvYovF8gpkRwc6tOlSU1OjPaLucnX498xErsNGnR0AXegyRIZVICP7M9Rqpa6svLwc6enpWLRoEX73u99ppUTUVX3imIRlMPj5+SEqKgoHDhzQlvZNWVlZmDFjRutfXuX9O1JbC7F7J2pz/Phx9TutUD7j2NhYNDY2qvOOZCMkalG6Px0ZOTdiwcwJ8NZKXYE7BoOZEhCLFy/Gp59+qpVAff+ODgrqOaWlpZg6darVdzoxMRFr1qzR5hxITu9WLSUpUphcpBS3TTopdEOOVNFiXumklBKma7eOPOk2SHkXlZUapZKUh69ejmApNq/K9BTqdtrm7VVWVialpaVJDz74YAfPf/UUExOj/WbXKc/jaqZPn37VezVPPa2nt+Oo99EVjnxd8fHxrfui/VRSUqKt5RhW79qq8l7Mk2J1C6XEgu+0pRotJHSxedJFrciaFhKtoXG1aw2Jb7/9Vq3wHe0wTs6ZekpH2+JkPTk6JDrvbgybhZXbBiNmYxZKlfOWTuTj44OEhATILQnILQnILQltiZgcLMq3+bomRUflzpxE77+hoaHD3+muyVE62razJ0e+LrkloW7PFQiOSQxEwJJViC16CSmHXON6htGjR2PFihXYv3//NQdGX/L0009rj6wp+2PQoEHaHPVmS5Ys0R5Ze/zxxxEQEKDNOYb4wKXamhiPhK0ZKKx3cnOiHXcOjLCwMGRmZmL69OnqvPJTef/K/qCeo/yFdxQlCI4dO2b1nU5OTsbOnTu1OcexcXZDa02UpOKlnDL1aklX5I6BERERgfz8fPWx8tPRAWE+9drdE7WZMmWK+p1WKAG1evVqp7QUbYSEbNg0LF03FqnJe3DIcEUrBAwJ92G41QdsvizbXoVIuM/X4ve75zJty8B49tlntVIi6ir+cx4blABz5V3k6q+Prp+zP2PbLQkijdT0HcpLP0Phl+WobzZ/aY1ounAepSeO48uyWjRrpdR3MCTIPi0nkDxrDPwm3omQSUGY9sRelDZJcvEuzPrBaEycMhWTxoTiiYwvoXY6DVmI8liFLANjo7djSJB9PPUI3fEeCr44jbNFL2Nu9qt4+4tL8Bw1Fzv+UYAvvvo/FKXfhezn/oYvmAt9CkOC7OPhiztCZyP4tvEYc+sY3OylFd90O0L/Ixi33ToWt467GVox9SEMCboGl2H4Vxrilj2J5wMjMC9oiKm4uQL/St2AZT9PQ+CauQiyTIq6IqRGLUVcVnHbwEW9lHIA0R0xJMhOLfjunzux/Cd/wjeh23H49Sdx52C50kjV+GfCk/jJy1UITXgLrz89FYO13wBKcCD+WWRMXo8tEYEudRcx2Y8hQfaRziEn+S2M/WM6/rx+Ee70vcFUXJaH5F2j8cc3d2N9xBT4eln+tT2E9PQiDPAZZhEc1NswJMg+LTUoy++Hm2HAicJCFBZ+jrL6FrRUlSH/xuFA5RdymVz+WRnqW0/pRyMlcw2ubN6F/efbLsSj3oUhYQMvVLJ0GAmP/AdCQkLk6RnsK9FGSfo8AY/MVMrkKWIfSlpMxUB/jLg7ClsijyF594cwuOp1/STEKy57OcddjdeM+upq1H1v3tYADPX1gTcuobqqDt9rpeg/FL43effJsxzOuvLR2VdcMiR6OWd/gdyJu4YEuxtEJMSQICIhhgQRCTEkiEiIIUFEQgwJIhJiSNignH4icmcMCRelhJM907Wu2ympHmXF5RaXVBOZMCTc3mVUndiPpOhw3Hb//1hcUt2ZZhiyVlmFj39SIYet68MYEu6uKhdbZsfinTPX+N+qV2SiQjL9t6lT64PdYrAZd72ylSHhopQvZHdPHfrBLGw6WYDspJ/hFq2IyBJDwt15+cBv9LCrWwLKQLb6hxC1fLLapdBHpaHY8r+4pS+Gnt0Nt8CQoM4ZGjBq5ftouZiHyNw9+GtJg7ZA5obdDXfFkCCBWxESdAs8Bw+HL4eWclsMCXcnNeFCpQGV1bVoaalFdWUlquvZeaA2DAkXZXmKsbumDlX+DWt1evjN34ozZ7Zivp8Od718gscYqBUHnbFBqVzO2EWdVurr0OH7UFoSX3+HxtZFHug/9Cbc5M2jDK7CWd9BM4aEDX0+JMjlMSRcnLM/IFtc/fX1Jc78g+HMz5jHJIhIiCFBREIMCSISYkjYwP4+uTuGBBEJMSSISIghQURCDAkiEmJIEJEQQ4KIhBgSRCTEkLBBuW6eyJ0xJIhIiCFBREIMCSIXUlNToz1yHQwJIjv15H08paWlWL58OW688UYcOXJEK3UNHHTGBg46Q45g6wC5Mz9jtiSIXMCWLVu0R66HLQkb2JIgR1CORUyaNAmVlZVaiTW2JIjcnI+PDx599FFtzrUwJIhcxKpVq+Dr66vNmbogSgvC2S1FdjdsYHeDHEk5w7F3715tDvj222/VVoYzsSVB5EJ+/etfQ6fTaXPAq6++qj1yHrYkbGBLgswcta/vvfdefPTRR9oc0NDQgEGDBmlzjseQsIEhQWaO2tfKxVT3338/Lly4oJWIdfSalNcq0v53ROuzu0HkYu655x4EBARoc8CYMWPU1oRSsTuaOtLRepZTex2tY54YEkQuaPv27Rg5cqT6uK6uDjt37lQfOwO7Gzawu0FmjtzXjY2NCAwMxLlz57QS4KGHHkJWVpY25zhsSdjACkjOoByoDAoK0uZM3nrrLfVGMEdjSBC5KMtToYohQ4ZojxyLIUHkopQrMC1NmzbN6oCmozAkiFzUzJkzcezYMfVxWloasrOz1ceOxgOXvRwPXDqOs/a1sz9jtiSISIghQURCDAkiEmJI2KD0B4ncGUOCiIQYEkQkxJAgIiGGBJGd3PV6FF5MZYMzL6DpbvyoeydeTEVELo0hQURCDAkiEuIxCRuc3R8k4jEJInJpDAkiEmJIENmpJ05L9wYMCSISYkgQkRBDgoiEGBI28PQnuTuGBBEJMSSISIghQURCDAkiEmJIEJEQQ4KIhBgSRCTEkLDBXa/XJzJjSBCREEOCiIQYEkQkxJAgspO73sfDkCAiIYYEEQkxJIhIiCFBREIMCSISYkhcl1qU5j6PKL2HemWmhz4KSbmlqNeWdokhC1Eec5BUeF3PYpfmwiT4C7dVj8KkOab3Zp46eI9GQz7S4sIt1vNHVFaZtrS9WhSnroReXU/Z9gX5La+Ch38SCpvlxc2FSPL3gH9SIZRZcj6GRJddwfmsjQiNOo4p+yvQIrWg7uBcFEUtxtqsszBqa10zXQTSpL9jfbC3VuACJiSi4HsJknQRJ7d5YUfYZrxR2mRaVp+PHT9bhA2VD+CTisvqaUJJOoW0CD/T8vZqC/Da5vcwOeWkvM+U9zlCfssvQzq1HsFe2jrkUhgSXWX8CtmvvI/J2zZg7QydvCM94R24DJu2BSF19Ss4VGtPTJQhK8ofHlFZMGglrm0YAhcsxDx8hZJypS3RhNI3khBTEoFdv30CM3QDTKuJXLqASsNgjBwxxL4vn9qyErVMHEdpJbkjhkQXGU99jH05fph352iLnTgQ/rPnI8zwTxz9d4M8r4TAZMyJi0fcHL36JdNH7Ua+4Yq2bA4Wp58G0hfLzW+tIrTvbhgNKEyLwxxzU35OHNIKDa0tFVOXYTmSUjdq6+gxZ2MuDNoKRkMuNmrbNm0/DcX1XW3nyF2F995FLsZj4milpVOFzz88Cl1kBH48yo6AUN6bfjHScVp+y2O0LkazdXfDUvv1PVYhyyCvJO+T/OejtC7LZEQ9f6T1/Zr3X5S8b03dmZ7vtvV1DIkuMtbVyF9dX/gMtW4jew4dgZHaY5NGHMq/hJmvFEOq+wTrzsVj0QuH5ermh4i0vyNzxQRgRSYqOmyiy3+p96xFyIZqRJ68aGruR1Zjw0/jsf+8EjRme7Hjw4n4Y933qCuIAbZvwAuHqrVlOjy894zaDWgpz8SC3GS8ll+jLbPT6RiE9Fcq5HAErczHvJRfYWnAQDmhvsFXR05jsO9wDNZWFVK6UhWZWIEJ8ls+Z7uL0X596WVE6JrVfTIz0Qvb5H3SUv4cvBLXWrxfRQnOjXwGJXV5rtVt66UYEj2iDlUXtT67bMLCxXggYBjgfQceiJwNQ+ZR/Nueo3LGMzi87yjCtsXgsUD595Xm/pLliEQWXsn+yuK4RyjWrVmMQG8veN95LxZOkJv0FxrVJZ662zFV6wZ43jIWQYPbltlNOSbx3SdIDA1GdOZf8Vr07XBa1VP3yWG59bIcS+R94jlqOhbOu4CM7M/k4DWbiIVLwxDgza93d+Be7CLPoT7y37cq1NRZ13ZjnVwJMRS+w+W/tFfxwtARPvJf5lM4W2VHShgvoUbujVj134f9EDPnDcbpmkt2HRw1Go7gebnLo3Y3+ocgRn6+LlEDbjxSk7NwzNxd8boZ4++ZgIaqi1A6Vw6h7hMDDAn3Ybja3RijdtkMlRdwSVuFuhdDwobOburx9J+FZWFlyD1RblFZm3Dq8PvI0d2NaT/sqAHejLoLclN/gj/G+tpxKN9zCHzk3kjlBYtAqP03PsltwAQfew78VePQC2uxrvIXKGmRIH1fgET5+bpmIAKWrEJsSSpeyinTXo8vbv/RNBgysvCBVfenB6n7RCc3bgrwvXomRZvSIuSOFfUEhkRXeY5H+FPzUbR5O17MVw4kGlFfvA/xm08ietdTCB129a41Gj7CnoyjCF11LyaqGTEII0aOUJd1yHMcZi+bhpzNidhTrDSma1H85uvIQASeCh9/jR9eLUrfzsS7Fi0JU2voGgybhZVWZ28Gwn/BE9gwMQurN/5ZOyArM36D0tNtjf9rooVAqyEjMNKy9qv7ZDZO73gJ6eo+kV3P9sgmhkSXDcCoiN/iUNoUHF+kRz+Pfhg69yAmp2XixYixVjv2dEwI+stN4376dTi/cDdeWRWi9el9MGPpcoRant2wIv/1fuxFFGy/CRlBw00HDjNuwvZ3NmGRPWcTlOf/+TNYUbQSE/sNR+iBy5gWOkhbJn/4+hlYtqIaMSE/tfMsgNaawB5s/VOBekGVp24etu3dj+0j38ZM/Q2mbk2/WYg/cdH0K9fKU49ZyxagQd5ngcoFVcOmYem6QIuzG14IWLoNOeuasVndJ9e5PbLJQ26q8Z9d9hjTac7YyftQvD4YvFaod1MCyRnVxVnbNWNLgoiEGBJEJMTuBpGd2N0gIuoAQ8IGJcWJ3BlD4noYzyJr5eTrvGnK1Si3wK+GXr8aWY66QIpcGkOiy4yoP5aF5NQgbNu0DIEuf5+ANoBMR3dbWhmAUYtWY9vkLKzeqdyIRu6OIdFlNch/43UcCpuP2f4d3afRi3kGYEncY0DGByiwa1wM6ssYEl1V+xmyMyoQtmwW/PvcXvTEsKAQzDPkILvgGm8r78Pc9UQgQ6KLjJVncNww0WrQGas7LvVReF69p+MKDAefwxyPEMQdVMY8aEJp6lJ5+UqkFldry5S7GZVpMqJSP9fGj9S6B3N+iSTz+JHK7+TnIzfJPOBKODYePK/dbCVTB1wJR1zSL7XnbDcgS3uiwVt8x2LyhEJkHj3LsSbdHEOii0yDzlgwFmPPYw8jEetxsq4R5buGInFRMg7VekE3dy2SEkciYWsG8ov/it+rN4H9yjRGxA8WY69yh6Z0GeWZP0Lu5r3It2ziH8pB0cQ/oE6qQl7kCaycuRJ/6fckClu+Q0Fif2z/fTZOWYVAEfKr7sEr6gA00Ti3rv2ALGamAW06HbxFuw2ciCHRTUzD2ekRGbUQgd4DMeruuRbN9RGY+mg0okvWYWbQw3hvwXP4zSLlJrAB0E29HTr1UxiAW8aOw2BDDS5csqj1E6KwZoUyyMsIBM0MMc0/c4/8O97Qjx8NnK5BnVVImAdc8YL31AWIDKvouDVg1+AtRAyJLmt/m7WpZVGIhPt8ta6BMjajxQhRo+7F8shg+dEEzFs4HaPUPS93RfJ3tw7J3z8kxrp1cr08h2DEyME4XXQWVVpRK1uDt2hD0xExJLrIc+Q4TNGVtA46YwqNUCQW1KkHuEyTedxKI+oLM7A1oVB+fBrpyW+iULmuovYwXlgUj8ptyvDyEr4vSLy28R1skYPgQmUDJkweC1+tqJWtwVuqzqLodDAWTxvLu1fdHEOiq4bdgfBIPXL2faweEzCNVFWCHTszWy+sMhpO47Ty2FiKNzYmoiQ6E+fOZcrdjkSsf9k0HkOr+mK8/UZuN7Yk5FbKoX3IyJmGVXMmyBXdC0N9LKJCOHiLEbUnC5CrC0N4iI9pGbkthkSXaQPG5LyPw6ea5D0ZgKXJr2EdkhA0tJ/afeinT8SJugso3pOIzUUR2PWb++Hndz9+sysCJTFb8NsCPR7btgBFK4PQb+jDOIAfym2R63UIMSFD5e3fAP1/foWFOTuwKlgZ/WoA9LMWYkVDDEIClQuqBnY+eIscam/+fg8Q+WOEdDDCFrkX3gVqg1J5Ot1FymXZT9yP1c3rcXB3pPOvulT/T0UyJhe8cx1DySuXZa/D9NXArk93IMKuEbDcg/C70IOctV0zhoQNzv6Arkm3hAR1xl1Dgm1JIhJiS8KGXtWSoB7lri0JhgSRnbq7sirP1916ojqzu0FEQgwJIhJid8OG620S2tq93dHk7Olt2PMVcZf9ZM++sFd3vKf2uvP1mTEkiEiI3Q0iEmJIEJEQQ4KIhBgSRCTEkCAiIYYEEQkxJIhIAPh/qi2ScybKMfUAAAAASUVORK5CYII=;" vertex="1" parent="1">
          <mxGeometry x="-289" y="132" width="265" height="280" as="geometry" />
        </mxCell>
        <mxCell id="voIoRIUvxAi8oVG5dLGn-4" value="3.3V" style="text;html=1;align=center;verticalAlign=middle;whiteSpace=wrap;rounded=0;fontSize=16;" vertex="1" parent="1">
          <mxGeometry x="-86" y="115" width="60" height="30" as="geometry" />
        </mxCell>
      </root>
    </mxGraphModel>
  </diagram>
</mxfile>
